<svg width="317" height="253" viewBox="0 0 317 253" fill="none" xmlns="http://www.w3.org/2000/svg">
<g clip-path="url(#clip0_74_449)">
<path d="M271.133 92.3748H264.411C263.835 80.28 255.444 70.2086 244.202 67.1225C222.748 12.9705 158.696 12.0306 126.887 31.7694C113.825 39.8758 104.14 51.7692 98.0579 67.1225C86.8155 70.2091 78.4247 80.28 77.8491 92.3748H70.725C66.4655 92.3748 63 95.8483 63 100.118V126.687C63 130.957 66.4655 134.431 70.725 134.431H77.8501C78.4459 146.533 86.8669 156.602 98.1341 159.66C103.635 176.755 112.719 193.534 126.101 205.815C126.17 208.891 126.02 218.826 121.933 230.468C115.411 249.049 102.435 263.01 83.3656 271.962C79.8184 273.626 81.0129 278.982 84.9249 278.982H257.335C261.252 278.982 262.437 273.624 258.894 271.961C239.825 263.009 226.849 249.048 220.326 230.468C216.238 218.821 216.09 208.883 216.159 205.815C229.513 193.562 238.611 176.796 244.125 159.66C255.392 156.602 263.814 146.533 264.41 134.431H271.133C275.392 134.431 278.857 130.957 278.857 126.687V100.118C278.857 95.8483 275.392 92.3748 271.133 92.3748ZM77.8153 127.061C71.1497 126.911 70.3517 127.392 70.3517 126.687C70.5217 99.3117 69.9935 99.7436 70.7255 99.7436H77.8158L77.8153 127.061ZM171.13 27.4618C201.614 27.4618 224.359 41.1424 235.802 66.1422H106.459C117.901 41.1424 140.647 27.4618 171.13 27.4618ZM243.387 271.613H98.8726C119.639 257.531 131.522 235.668 133.278 211.874C157.987 228.497 185.625 227.761 208.976 211.798C210.685 235.262 222.309 257.32 243.387 271.613ZM140.839 207.915C125.909 198.686 113.803 182.41 106.195 160.618H149.766C156.293 160.618 161.604 155.295 161.604 148.752C161.604 146.07 163.781 143.887 166.457 143.887H175.803C178.479 143.887 180.655 146.07 180.655 148.752C180.655 155.295 185.966 160.618 192.494 160.618H236.064C217.518 213.741 174.874 227.945 140.839 207.915ZM257.029 133.056C257.029 144.155 248.021 153.185 236.949 153.185H192.495C190.056 153.185 188.072 151.196 188.072 148.751C188.072 141.971 182.568 136.454 175.804 136.454H166.458C159.693 136.454 154.19 141.97 154.19 148.751C154.19 151.196 152.206 153.185 149.767 153.185H105.312C94.2398 153.185 85.2316 144.155 85.2316 133.056V93.7036C85.2316 82.6048 94.2398 73.5748 105.312 73.5748H236.949C248.022 73.5748 257.03 82.6048 257.03 93.7036L257.029 133.056ZM271.133 127.061H264.444V99.7436C270.673 99.8919 271.507 99.4134 271.507 100.118C271.336 127.494 271.864 127.061 271.133 127.061ZM95.3001 114.531C94.8175 114.531 94.3397 114.627 93.8938 114.812C93.4479 114.997 93.0428 115.268 92.7015 115.61C92.3602 115.952 92.0895 116.359 91.9047 116.806C91.72 117.253 91.6249 117.732 91.6248 118.216V124.021C91.6248 126.056 93.2703 127.705 95.3001 127.705C97.33 127.705 98.9755 126.056 98.9755 124.021V118.216C98.9755 117.732 98.8804 117.253 98.6957 116.806C98.511 116.359 98.2402 115.952 97.8989 115.61C97.5576 115.268 97.1524 114.997 96.7065 114.812C96.2606 114.626 95.7827 114.531 95.3001 114.531ZM107.494 79.7474C98.2985 79.7474 91.6243 86.4374 91.6243 95.6546V106.432C91.6243 108.467 93.2698 110.116 95.2996 110.116C97.3295 110.116 98.975 108.467 98.975 106.432V95.6546C98.975 91.7157 101.206 87.1162 107.493 87.1162C107.981 87.1244 108.465 87.0351 108.918 86.8536C109.371 86.6721 109.783 86.4021 110.131 86.0591C110.479 85.7162 110.755 85.3073 110.944 84.8563C111.132 84.4053 111.229 83.9211 111.229 83.4321C111.229 82.943 111.132 82.4589 110.944 82.0078C110.755 81.5568 110.479 81.1478 110.132 80.8049C109.784 80.4619 109.372 80.1918 108.919 80.0102C108.466 79.8287 107.982 79.7393 107.494 79.7474Z" fill="white"/>
</g>
<defs>
<clipPath id="clip0_74_449">
<rect width="317" height="253" fill="white"/>
</clipPath>
</defs>
</svg>
