<svg width="191" height="235" viewBox="0 0 191 235" fill="none" xmlns="http://www.w3.org/2000/svg">
<path d="M183.5 66.0989H177.578C177.071 55.1962 169.679 46.1174 159.775 43.3355C140.875 -5.47928 84.448 -6.32647 56.4259 11.4669C44.9186 18.7742 36.3868 29.4955 31.0289 43.3355C21.1248 46.1179 13.7329 55.1962 13.2259 66.0989H6.94985C3.19746 66.0989 0.144531 69.2301 0.144531 73.0789V97.0297C0.144531 100.879 3.19746 104.01 6.94985 104.01H13.2268C13.7516 114.919 21.1702 123.996 31.096 126.752C35.9424 142.163 43.9445 157.288 55.7331 168.358C55.7944 171.131 55.662 180.087 52.0621 190.582C46.3162 207.331 34.8852 219.916 18.0857 227.986C14.9608 229.486 16.0131 234.314 19.4593 234.314H171.344C174.795 234.314 175.839 229.484 172.718 227.985C155.919 219.915 144.488 207.331 138.742 190.582C135.14 180.083 135.009 171.124 135.07 168.358C146.834 157.314 154.849 142.199 159.707 126.752C169.633 123.996 177.052 114.919 177.577 104.01H183.5C187.252 104.01 190.305 100.879 190.305 97.0297V73.0789C190.305 69.2301 187.252 66.0989 183.5 66.0989ZM13.1961 97.3666C7.32402 97.2312 6.621 97.6644 6.621 97.0292C6.77076 72.3521 6.30549 72.7415 6.95029 72.7415H13.1966L13.1961 97.3666ZM95.402 7.58381C122.257 7.58381 142.294 19.916 152.374 42.4519H38.4296C48.5101 19.916 68.5474 7.58381 95.402 7.58381ZM159.057 227.672H31.7465C50.041 214.977 60.5094 195.269 62.0563 173.82C83.8232 188.805 108.171 188.141 128.742 173.752C130.248 194.903 140.488 214.787 159.057 227.672ZM68.7172 170.252C55.5643 161.932 44.8999 147.26 38.1977 127.616H76.581C82.3314 127.616 87.0098 122.818 87.0098 116.92C87.0098 114.502 88.9274 112.534 91.2848 112.534H99.5184C101.876 112.534 103.793 114.502 103.793 116.92C103.793 122.818 108.472 127.616 114.222 127.616H152.606C136.267 175.504 98.7003 188.308 68.7172 170.252ZM171.075 102.771C171.075 112.776 163.139 120.916 153.385 120.916H114.223C112.074 120.916 110.327 119.123 110.327 116.919C110.327 110.807 105.478 105.834 99.5193 105.834H91.2857C85.3265 105.834 80.4783 110.806 80.4783 116.919C80.4783 119.123 78.7305 120.916 76.5819 120.916H37.4196C27.6653 120.916 19.7295 112.776 19.7295 102.771V67.2968C19.7295 57.2919 27.6653 49.1519 37.4196 49.1519H153.385C163.14 49.1519 171.076 57.2919 171.076 67.2968L171.075 102.771ZM183.5 97.3666H177.608V72.7415C183.095 72.8751 183.829 72.4438 183.829 73.0789C183.679 97.7565 184.144 97.3666 183.5 97.3666ZM28.5994 86.0718C28.1743 86.0717 27.7533 86.1576 27.3605 86.3245C26.9677 86.4914 26.6108 86.736 26.3101 87.0444C26.0095 87.3528 25.771 87.719 25.6082 88.1219C25.4455 88.5249 25.3617 88.9569 25.3616 89.3931V94.6258C25.3616 96.4602 26.8112 97.9471 28.5994 97.9471C30.3876 97.9471 31.8372 96.4602 31.8372 94.6258V89.3931C31.8372 88.9568 31.7534 88.5249 31.5907 88.1219C31.428 87.7189 31.1895 87.3527 30.8888 87.0443C30.5881 86.7358 30.2312 86.4912 29.8384 86.3243C29.4456 86.1575 29.0246 86.0717 28.5994 86.0718ZM39.3415 54.7161C31.2408 54.7161 25.3612 60.7467 25.3612 69.0554V78.7703C25.3612 80.6047 26.8108 82.0916 28.599 82.0916C30.3872 82.0916 31.8368 80.6047 31.8368 78.7703V69.0554C31.8368 65.5048 33.8023 61.3587 39.3411 61.3587C39.7707 61.366 40.1974 61.2855 40.5964 61.1219C40.9953 60.9583 41.3586 60.7149 41.6649 60.4057C41.9712 60.0966 42.2145 59.728 42.3806 59.3215C42.5467 58.9149 42.6323 58.4785 42.6323 58.0376C42.6323 57.5968 42.5468 57.1603 42.3808 56.7537C42.2148 56.3471 41.9715 55.9785 41.6652 55.6693C41.3589 55.3602 40.9957 55.1167 40.5968 54.953C40.1978 54.7894 39.7711 54.7088 39.3415 54.7161Z" fill="white"/>
</svg>
