<svg width="512" height="512" viewBox="0 0 512 512" fill="none" xmlns="http://www.w3.org/2000/svg">
<path d="M298.219 216.281C295.849 215.636 293.408 215.621 291.092 216.213L283.31 202.613L276.793 206.342L284.574 219.943C282.89 221.638 281.664 223.752 281.019 226.121C280.037 229.732 280.519 233.51 282.379 236.758L286.283 243.584C288.14 246.832 291.154 249.162 294.765 250.146C295.988 250.478 297.232 250.644 298.467 250.644C299.623 250.644 300.771 250.498 301.892 250.213L303.424 252.886C299.111 257.25 298.033 264.121 301.224 269.699L305.129 276.525C306.988 279.773 310 282.103 313.611 283.085C314.834 283.42 316.078 283.584 317.312 283.584C318.469 283.584 319.619 283.439 320.738 283.152L328.576 296.853L335.096 293.125L327.254 279.42C331.566 275.058 332.644 268.185 329.453 262.609L325.549 255.783C322.357 250.205 315.886 247.652 309.941 249.158L308.41 246.484C310.095 244.787 311.32 242.676 311.965 240.306C312.947 236.695 312.465 232.916 310.605 229.668L306.701 222.844C304.844 219.594 301.83 217.264 298.219 216.281ZM319.029 259.511L322.935 266.338C324.021 268.236 324.041 270.459 323.185 272.306L321.002 268.492L314.484 272.22L316.669 276.039C316.303 276.003 315.94 275.937 315.584 275.84C314.759 275.618 313.986 275.235 313.31 274.712C312.634 274.189 312.069 273.538 311.646 272.795L307.742 265.97C307.226 265.068 306.934 264.055 306.89 263.016C306.847 261.977 307.053 260.943 307.492 260L309.73 263.912L316.25 260.183L314.01 256.269C316.037 256.469 317.943 257.613 319.029 259.511ZM302.156 235.552L295.638 239.281L297.822 243.099C297.456 243.064 297.092 242.997 296.736 242.9C295.912 242.678 295.139 242.295 294.464 241.772C293.788 241.25 293.223 240.598 292.801 239.855L288.896 233.029C288.47 232.289 288.194 231.472 288.086 230.624C287.978 229.776 288.039 228.916 288.265 228.092C288.363 227.732 288.49 227.387 288.642 227.054L290.885 230.972L297.402 227.242L295.164 223.33C297.191 223.527 299.097 224.672 300.184 226.57L304.088 233.396C304.515 234.137 304.79 234.954 304.898 235.802C305.007 236.65 304.946 237.51 304.718 238.334C304.621 238.693 304.494 239.039 304.342 239.371L302.156 235.552ZM183.623 296.853L191.465 283.148C192.593 283.433 193.744 283.574 194.886 283.574C199.751 283.574 204.486 281.041 207.07 276.523L210.976 269.699C212.834 266.451 213.316 262.672 212.334 259.06C211.705 256.728 210.479 254.599 208.779 252.883L210.31 250.209C211.441 250.494 212.59 250.635 213.732 250.635C218.597 250.635 223.332 248.101 225.917 243.584L229.822 236.758C233.013 231.181 231.935 224.31 227.623 219.947L235.408 206.342L228.89 202.613L221.105 216.218C215.16 214.711 208.689 217.265 205.498 222.842L201.593 229.668C198.402 235.246 199.48 242.117 203.793 246.478L202.261 249.154C199.945 248.562 197.504 248.576 195.135 249.22C191.523 250.203 188.511 252.533 186.652 255.781L182.748 262.607C179.556 268.185 180.635 275.056 184.945 279.42L177.105 293.123L183.623 296.853ZM207.48 238.334C207.254 237.51 207.193 236.65 207.302 235.802C207.41 234.954 207.685 234.137 208.111 233.396L212.015 226.57C213.101 224.672 215.008 223.529 217.037 223.33L214.799 227.244L221.316 230.972L223.554 227.058C224.412 228.908 224.392 231.131 223.304 233.029L219.4 239.855C218.884 240.758 218.158 241.523 217.284 242.087C216.41 242.651 215.414 242.996 214.379 243.095L216.56 239.283L210.043 235.553L207.859 239.371C207.704 239.037 207.577 238.69 207.48 238.334ZM189.265 266.338L193.17 259.511C193.592 258.769 194.157 258.117 194.832 257.595C195.508 257.072 196.28 256.688 197.105 256.466C197.461 256.37 197.824 256.303 198.191 256.267L195.951 260.183L202.469 263.912L204.707 260C205.564 261.847 205.545 264.07 204.459 265.97L200.552 272.795C199.467 274.695 197.56 275.838 195.533 276.037L197.715 272.222L191.197 268.494L189.015 272.309C188.158 270.459 188.177 268.236 189.265 266.338ZM293.793 336.363L309.463 336.318L309.441 328.808L293.765 328.853C292.107 322.963 286.685 318.635 280.277 318.635H280.236L272.373 318.658C265.947 318.676 260.529 323.041 258.902 328.953L255.82 328.963C255.177 326.66 253.947 324.551 252.205 322.82C249.56 320.191 246.054 318.744 242.326 318.744H242.285L234.422 318.765C230.679 318.777 227.166 320.244 224.527 322.898C222.795 324.64 221.576 326.756 220.947 329.062L205.162 329.107L205.183 336.615L220.972 336.57C222.631 342.463 228.054 346.789 234.462 346.789H234.502L242.365 346.765C246.107 346.755 249.623 345.287 252.261 342.635C253.992 340.892 255.211 338.777 255.841 336.47L258.918 336.46C259.56 338.763 260.793 340.873 262.533 342.605C265.178 345.234 268.683 346.679 272.412 346.679H272.453L280.316 346.658C284.058 346.646 287.574 345.179 290.213 342.525C291.943 340.785 293.162 338.67 293.793 336.363ZM246.937 337.34C246.337 337.947 245.622 338.43 244.834 338.759C244.045 339.088 243.2 339.258 242.345 339.258L234.482 339.279H234.462C232.283 339.279 230.347 338.201 229.167 336.547L233.562 336.535L233.541 329.025L229.141 329.039C229.351 328.74 229.588 328.457 229.851 328.193C230.452 327.586 231.167 327.104 231.955 326.775C232.744 326.445 233.589 326.276 234.443 326.275L242.306 326.252H242.326C244.056 326.252 245.683 326.924 246.91 328.144C247.173 328.404 247.413 328.685 247.627 328.986L243.113 328.998L243.135 336.508L247.648 336.494C247.435 336.795 247.198 337.078 246.937 337.34ZM280.295 339.148L272.431 339.172H272.412C270.682 339.172 269.054 338.5 267.828 337.281C267.567 337.021 267.327 336.74 267.113 336.439L271.511 336.426L271.49 328.918L267.095 328.929C267.694 328.079 268.487 327.384 269.409 326.903C270.331 326.423 271.355 326.17 272.394 326.166L280.258 326.144H280.277C282.457 326.144 284.39 327.222 285.572 328.877L281.064 328.89L281.086 336.398L285.597 336.386C285.386 336.685 285.15 336.966 284.886 337.232C284.286 337.84 283.571 338.321 282.783 338.65C281.995 338.979 281.149 339.149 280.295 339.148ZM259.853 234.402V192.818L295.867 172.025L292.111 165.523L256.099 186.314L220.088 165.523L216.332 172.025L252.345 192.818V234.402H259.853Z" fill="white"/>
<path d="M368.33 297.18L332.328 317.99L296.301 297.213L292.549 303.717L328.576 324.494L328.596 366.078L336.103 366.076L336.086 324.492L372.088 303.679L368.33 297.18ZM183.414 365.81V324.226L219.426 303.435L215.672 296.933L179.66 317.724L143.642 296.931L139.888 303.435L175.904 324.226V365.81H183.414ZM211.951 165.16L256.1 139.67L300.248 165.16V211.885H307.758V160.824L256.099 131L204.443 160.824V211.885H211.951V165.16ZM256.1 250.297L276.838 238.324L273.084 231.822L256.099 241.627L239.111 231.818L235.357 238.32L256.1 250.297Z" fill="white"/>
<path d="M179.658 373.038L135.51 347.548V296.569L176.521 272.891L172.768 266.387L128 292.236V351.884L179.658 381.708L227.334 354.183L223.58 347.679L179.658 373.038ZM231.314 313.71V292.235L211.16 280.598L207.407 287.102L223.807 296.569V313.71H231.314ZM383.971 292.476L339.426 266.786L335.674 273.29L376.465 296.813L376.49 347.792L332.354 373.303L289.193 348.413L285.441 354.917L332.357 381.973L384 352.124L383.971 292.476ZM301.129 280.692L280.656 292.526L280.666 312.807L288.176 312.803L288.166 296.858L304.887 287.192L301.129 280.692ZM232.535 167.784L228.771 161.286L235.268 157.522L239.033 164.018L232.535 167.784ZM277.096 166.243L256.104 154.124L254.191 155.233L250.426 148.735L256.096 145.45L280.852 159.741L277.096 166.243ZM243.364 161.509L239.6 155.011L246.095 151.247L249.859 157.743L243.364 161.509Z" fill="white"/>
<path d="M346.739 359.205L342.981 352.705L363.967 340.574L363.963 338.363L371.471 338.347L371.485 344.9L346.739 359.205ZM363.951 333.357L363.936 325.849L371.444 325.832L371.461 333.342L363.951 333.357ZM363.924 320.843L363.908 313.334L371.418 313.318L371.434 320.826L363.924 320.843ZM167.895 360.406L140.515 344.66V336.806H148.023V340.318L171.636 353.898L167.895 360.406ZM140.515 331.8V324.29H148.023V331.798L140.515 331.8ZM148.023 319.284H140.515V311.774H148.023V319.284Z" fill="white"/>
</svg>
