<svg width="245" height="245" viewBox="0 0 245 245" fill="none" xmlns="http://www.w3.org/2000/svg">
<g clip-path="url(#clip0_74_452)">
<path d="M162.486 108.446C162.841 108.802 163.123 109.224 163.316 109.688C163.508 110.153 163.607 110.651 163.607 111.153C163.607 111.656 163.508 112.154 163.316 112.618C163.123 113.083 162.841 113.505 162.486 113.861C162.13 114.216 161.708 114.498 161.244 114.691C160.779 114.883 160.281 114.982 159.779 114.982C159.276 114.982 158.778 114.883 158.314 114.691C157.849 114.498 157.427 114.216 157.071 113.861C152.532 109.32 147.142 105.719 141.21 103.262C135.278 100.805 128.921 99.5401 122.5 99.5401C116.08 99.5401 109.722 100.805 103.79 103.262C97.8584 105.719 92.4687 109.32 87.9288 113.861C87.2108 114.579 86.237 114.982 85.2216 114.982C84.2062 114.982 83.2324 114.579 82.5144 113.861C81.7964 113.143 81.393 112.169 81.393 111.153C81.393 110.138 81.7964 109.164 82.5144 108.446C93.1194 97.8415 107.503 91.8838 122.5 91.8838C137.498 91.8838 151.881 97.8415 162.486 108.446ZM122.5 107.196C117.083 107.181 111.716 108.241 106.711 110.314C101.706 112.388 97.1623 115.433 93.3422 119.274C92.6316 119.994 92.2346 120.965 92.2378 121.976C92.241 122.987 92.6442 123.956 93.3593 124.671C94.0745 125.386 95.0435 125.789 96.0548 125.792C97.066 125.795 98.0373 125.398 98.7566 124.687C105.054 118.39 113.595 114.853 122.5 114.853C131.406 114.853 139.947 118.39 146.244 124.687C146.963 125.398 147.935 125.795 148.946 125.792C149.957 125.789 150.926 125.386 151.641 124.671C152.357 123.956 152.76 122.987 152.763 121.976C152.766 120.965 152.369 119.994 151.658 119.274C147.838 115.433 143.294 112.388 138.289 110.314C133.284 108.241 127.918 107.181 122.5 107.196ZM122.5 122.509C119.094 122.5 115.721 123.166 112.574 124.469C109.428 125.772 106.571 127.687 104.17 130.101C103.452 130.819 103.048 131.793 103.048 132.809C103.048 133.824 103.452 134.798 104.17 135.516C104.888 136.233 105.862 136.637 106.877 136.637C107.892 136.637 108.866 136.233 109.584 135.515C111.28 133.819 113.294 132.474 115.51 131.556C117.726 130.638 120.101 130.165 122.5 130.165C124.899 130.165 127.274 130.638 129.49 131.556C131.706 132.474 133.72 133.819 135.416 135.515C136.134 136.233 137.108 136.637 138.123 136.637C139.139 136.637 140.112 136.233 140.83 135.516C141.548 134.798 141.952 133.824 141.952 132.809C141.952 131.793 141.549 130.819 140.831 130.101C138.429 127.687 135.572 125.772 132.426 124.469C129.279 123.165 125.906 122.5 122.5 122.509ZM133.111 148.432C133.111 150.53 132.488 152.582 131.322 154.327C130.156 156.072 128.499 157.431 126.56 158.234C124.621 159.037 122.488 159.248 120.43 158.838C118.372 158.429 116.481 157.418 114.997 155.934C113.513 154.45 112.503 152.56 112.093 150.501C111.684 148.443 111.894 146.31 112.697 144.371C113.5 142.432 114.86 140.775 116.605 139.609C118.35 138.443 120.402 137.821 122.5 137.821C125.313 137.824 128.01 138.943 129.999 140.932C131.988 142.921 133.107 145.618 133.111 148.431V148.432ZM125.454 148.432C125.455 147.848 125.282 147.276 124.957 146.79C124.633 146.304 124.171 145.926 123.631 145.702C123.092 145.478 122.497 145.419 121.924 145.533C121.351 145.647 120.825 145.928 120.411 146.342C119.998 146.755 119.717 147.281 119.603 147.854C119.489 148.427 119.547 149.021 119.771 149.561C119.994 150.101 120.373 150.563 120.859 150.887C121.345 151.212 121.916 151.385 122.5 151.385C123.283 151.384 124.034 151.073 124.588 150.519C125.142 149.965 125.453 149.215 125.454 148.431V148.432ZM245 122.504C245.001 127.6 243.1 132.513 239.67 136.282C236.24 140.052 231.527 142.406 226.453 142.884C221.379 143.363 216.31 141.932 212.235 138.87C208.161 135.809 205.375 131.338 204.422 126.332H189.38C188.525 141.433 182.565 155.796 172.476 167.065L183.134 177.724C187.344 174.867 192.469 173.682 197.505 174.402C202.542 175.122 207.13 177.695 210.371 181.617C213.611 185.54 215.273 190.53 215.03 195.612C214.787 200.695 212.657 205.504 209.057 209.099C205.457 212.694 200.645 214.818 195.562 215.054C190.48 215.29 185.492 213.622 181.573 210.376C177.655 207.13 175.089 202.539 174.375 197.502C173.662 192.464 174.853 187.341 177.717 183.135L167.062 172.48C155.793 182.569 141.43 188.529 126.328 189.384V204.425C131.335 205.378 135.806 208.165 138.867 212.239C141.928 216.314 143.36 221.384 142.881 226.458C142.402 231.532 140.048 236.245 136.279 239.676C132.51 243.106 127.597 245.007 122.5 245.007C117.404 245.007 112.49 243.106 108.721 239.676C104.952 236.245 102.598 231.532 102.119 226.458C101.641 221.384 103.072 216.314 106.133 212.239C109.194 208.165 113.665 205.378 118.672 204.425V189.384C103.571 188.529 89.2076 182.568 77.9383 172.479L67.2837 183.134C70.1452 187.349 71.3328 192.479 70.6143 197.522C69.8959 202.566 67.3231 207.16 63.3985 210.408C59.4739 213.656 54.4794 215.324 49.3906 215.087C44.3019 214.85 39.4844 212.724 35.8792 209.124C32.2758 205.521 30.1462 200.703 29.9067 195.612C29.6672 190.522 31.335 185.525 34.5842 181.599C37.8333 177.673 42.43 175.1 47.4754 174.384C52.5208 173.667 57.6521 174.858 61.866 177.724L72.5244 167.066C62.4353 155.796 56.4746 141.433 55.6199 126.332H40.5782C39.6252 131.338 36.8389 135.809 32.7643 138.87C28.6897 141.931 23.6198 143.363 18.5459 142.884C13.472 142.405 8.75916 140.051 5.32887 136.282C1.89858 132.513 -0.00244141 127.6 -0.00244141 122.504C-0.00244141 117.407 1.89858 112.494 5.32887 108.725C8.75916 104.956 13.472 102.602 18.5459 102.123C23.6198 101.644 28.6897 103.076 32.7643 106.137C36.8389 109.198 39.6252 113.669 40.5782 118.675H55.6199C56.4747 103.574 62.4354 89.211 72.5244 77.9418L61.866 67.2828C57.6519 70.1492 52.5201 71.3406 47.4742 70.624C42.4283 69.9074 37.8311 67.3344 34.5817 63.4081C31.3323 59.4818 29.6642 54.4846 29.9038 49.3937C30.1434 44.3028 32.2733 39.4843 35.8771 35.8805C39.4809 32.2767 44.2994 30.1468 49.3903 29.9072C54.4812 29.6676 59.4784 31.3357 63.4047 34.5851C67.3309 37.8345 69.904 42.4317 70.6206 47.4776C71.3372 52.5235 70.1458 57.6553 67.2794 61.8694L77.9379 72.5283C89.2071 62.4389 103.57 56.478 118.672 55.6233V40.5816C113.665 39.6286 109.194 36.8423 106.133 32.7676C103.072 28.6929 101.641 23.6228 102.119 18.5488C102.598 13.4748 104.952 8.76184 108.721 5.33145C112.49 1.90107 117.404 0 122.5 0C127.597 0 132.51 1.90107 136.279 5.33145C140.048 8.76184 142.402 13.4748 142.881 18.5488C143.36 23.6228 141.928 28.6929 138.867 32.7676C135.806 36.8423 131.335 39.6286 126.328 40.5816V55.6233C141.43 56.4781 155.793 62.4389 167.062 72.5283L177.721 61.8694C174.86 57.6605 173.671 52.5358 174.388 47.4972C175.104 42.4586 177.674 37.8684 181.595 34.6241C185.516 31.3798 190.507 29.7146 195.59 29.9541C200.674 30.1937 205.486 32.3207 209.084 35.9194C212.683 39.5181 214.81 44.3296 215.049 49.4133C215.289 54.4969 213.624 59.4872 210.38 63.4083C207.135 67.3294 202.545 69.8995 197.506 70.6161C192.468 71.3326 187.343 70.1441 183.134 67.2828L172.476 77.9413C182.565 89.2107 188.526 103.574 189.38 118.675H204.422C205.375 113.669 208.161 109.198 212.235 106.137C216.31 103.075 221.379 101.644 226.453 102.123C231.527 102.601 236.24 104.956 239.67 108.725C243.1 112.494 245.001 117.407 245 122.504ZM185.584 59.4198C187.376 61.2102 189.658 62.4291 192.143 62.9225C194.627 63.4159 197.202 63.1616 199.542 62.1917C201.882 61.2219 203.882 59.5801 205.289 57.4738C206.696 55.3676 207.447 52.8914 207.447 50.3584C207.447 47.8254 206.696 45.3493 205.289 43.243C203.882 41.1368 201.882 39.495 199.542 38.5251C197.202 37.5553 194.627 37.301 192.143 37.7944C189.658 38.2878 187.376 39.5067 185.584 41.297C183.184 43.702 181.836 46.9608 181.836 50.3584C181.836 53.756 183.184 57.0149 185.584 59.4198ZM122.5 33.29C125.035 33.29 127.512 32.5384 129.62 31.1303C131.727 29.7222 133.37 27.7208 134.34 25.3791C135.31 23.0375 135.563 20.4608 135.069 17.975C134.575 15.4891 133.354 13.2056 131.562 11.4134C129.77 9.62115 127.486 8.40059 125.001 7.90606C122.515 7.41154 119.938 7.66525 117.596 8.63512C115.255 9.605 113.253 11.2475 111.845 13.3548C110.437 15.4622 109.685 17.9398 109.685 20.4744C109.689 23.8721 111.04 27.1296 113.442 29.5322C115.845 31.9348 119.102 33.2862 122.5 33.29ZM59.4164 59.4198C61.2086 57.6277 62.429 55.3443 62.9235 52.8585C63.4179 50.3727 63.1641 47.7962 62.1942 45.4546C61.2243 43.113 59.5818 41.1117 57.4744 39.7036C55.3671 38.2955 52.8895 37.544 50.355 37.544C47.8205 37.544 45.343 38.2955 43.2356 39.7036C41.1283 41.1117 39.4858 43.113 38.5159 45.4546C37.5459 47.7962 37.2922 50.3727 37.7866 52.8585C38.281 55.3443 39.5015 57.6277 41.2936 59.4198C43.6987 61.8196 46.9575 63.1673 50.355 63.1673C53.7526 63.1673 57.0114 61.8196 59.4164 59.4198ZM33.2866 122.504C33.2866 119.969 32.535 117.491 31.1269 115.384C29.7188 113.276 27.7174 111.634 25.3757 110.664C23.0341 109.694 20.4574 109.44 17.9716 109.935C15.4857 110.429 13.2022 111.65 11.41 113.442C9.61775 115.234 8.39719 117.517 7.90266 120.003C7.40813 122.489 7.66184 125.066 8.63172 127.407C9.60159 129.749 11.2441 131.75 13.3514 133.159C15.4588 134.567 17.9364 135.319 20.471 135.319C23.8687 135.315 27.1262 133.964 29.5288 131.561C31.9314 129.159 33.2828 125.901 33.2866 122.504ZM63.1704 194.649C63.1706 192.541 62.651 190.466 61.6576 188.607C60.6642 186.748 59.2277 185.163 57.4754 183.992C55.723 182.821 53.7089 182.101 51.6115 181.894C49.514 181.687 47.398 182.001 45.4508 182.807C43.5036 183.614 41.7853 184.888 40.4483 186.517C39.1112 188.147 38.1966 190.08 37.7854 192.148C37.3743 194.215 37.4793 196.351 38.0911 198.368C38.703 200.385 39.8028 202.22 41.2931 203.71C43.0854 205.502 45.3688 206.722 47.8546 207.217C50.3403 207.711 52.9169 207.457 55.2584 206.487C57.5999 205.518 59.6013 203.875 61.0096 201.768C62.4178 199.661 63.1696 197.183 63.1699 194.649H63.1704ZM122.5 211.717C119.966 211.717 117.488 212.469 115.38 213.877C113.273 215.285 111.63 217.286 110.661 219.628C109.691 221.97 109.437 224.546 109.931 227.032C110.426 229.518 111.646 231.801 113.438 233.594C115.23 235.386 117.514 236.606 120 237.101C122.486 237.596 125.062 237.342 127.404 236.372C129.746 235.402 131.747 233.76 133.155 231.652C134.563 229.545 135.315 227.067 135.315 224.533C135.312 221.135 133.96 217.877 131.558 215.475C129.155 213.072 125.898 211.721 122.5 211.717ZM194.645 181.839C192.538 181.839 190.463 182.358 188.604 183.351C186.745 184.345 185.16 185.781 183.989 187.533C182.818 189.285 182.098 191.299 181.891 193.397C181.685 195.494 181.999 197.61 182.805 199.557C183.612 201.504 184.887 203.222 186.516 204.558C188.145 205.895 190.079 206.809 192.146 207.22C194.213 207.63 196.35 207.524 198.366 206.912C200.383 206.299 202.217 205.199 203.707 203.708C205.499 201.916 206.719 199.633 207.213 197.148C207.708 194.663 207.454 192.086 206.484 189.745C205.514 187.404 203.871 185.404 201.764 183.996C199.657 182.589 197.179 181.839 194.645 181.839ZM181.836 122.504C181.836 110.768 178.356 99.296 171.836 89.5382C165.316 79.7805 156.049 72.1753 145.207 67.6843C134.365 63.1933 122.434 62.0182 110.924 64.3077C99.4142 66.5972 88.8415 72.2484 80.5433 80.5467C72.245 88.845 66.5938 99.4176 64.3043 110.928C62.0148 122.438 63.1898 134.368 67.6808 145.21C72.1718 156.053 79.7771 165.32 89.5348 171.84C99.2926 178.359 110.765 181.839 122.5 181.839C138.232 181.822 153.314 175.565 164.437 164.441C175.561 153.317 181.818 138.235 181.836 122.504ZM237.344 122.504C237.344 119.969 236.592 117.491 235.184 115.384C233.776 113.276 231.774 111.634 229.433 110.664C227.091 109.694 224.514 109.44 222.028 109.935C219.543 110.429 217.259 111.65 215.467 113.442C213.675 115.234 212.454 117.518 211.96 120.004C211.465 122.49 211.719 125.066 212.689 127.408C213.659 129.75 215.302 131.751 217.409 133.159C219.517 134.567 221.995 135.319 224.529 135.319C227.927 135.315 231.184 133.963 233.587 131.561C235.989 129.158 237.34 125.901 237.344 122.504Z" fill="white"/>
</g>
<defs>
<clipPath id="clip0_74_452">
<rect width="245" height="245" fill="white"/>
</clipPath>
</defs>
</svg>
