<svg width="469" height="449" viewBox="0 0 469 449" fill="none" xmlns="http://www.w3.org/2000/svg">
<path d="M142.149 221.167H171.246C175.666 221.167 175.867 214.104 171.246 214.104H142.149C137.729 214.104 137.528 221.167 142.149 221.167ZM185.374 231.999H142.149C137.729 231.999 137.528 239.063 142.149 239.063H185.374C189.794 239.063 189.995 231.999 185.374 231.999ZM326.968 214.104H297.87C293.45 214.104 293.249 221.167 297.87 221.167H326.967C331.387 221.167 331.588 214.104 326.968 214.104ZM326.968 231.999H283.742C279.322 231.999 279.121 239.063 283.742 239.063H326.967C331.387 239.063 331.588 231.999 326.968 231.999Z" fill="white"/>
<path d="M355 170.224C355 160.196 346.333 153.46 338.237 153.46H298.901C298.898 151.276 298.236 149.143 297 147.342C295.764 145.54 294.014 144.154 291.977 143.365C284.261 140.358 270.954 132.617 268.522 114.553C267.79 109.107 263.136 105 257.696 105H211.42C205.98 105 201.326 109.107 200.593 114.553C198.162 132.617 184.855 140.358 177.139 143.365C175.102 144.154 173.352 145.54 172.116 147.342C170.881 149.143 170.218 151.276 170.215 153.46H130.763C121.52 153.461 114 160.98 114 170.224V287.321C114 296.564 121.52 304.084 130.763 304.084H213.132L209.221 338.789H195.119C190.699 338.789 190.498 345.853 195.119 345.853H273.881C278.301 345.853 278.502 338.789 273.881 338.789H259.779L255.868 304.084H297.192C301.612 304.084 301.813 297.02 297.192 297.02H130.763C125.415 297.02 121.064 292.669 121.064 287.322V272.27H347.936V287.322C347.936 292.669 343.585 297.02 338.237 297.02H316.971C312.551 297.02 312.35 304.084 316.971 304.084H338.237C347.48 304.084 355 296.564 355 287.322V170.224ZM248.759 304.084L252.67 338.789H216.33L220.241 304.084H248.759ZM179.704 149.948C194.588 144.149 205.444 131.476 207.595 115.496C207.862 113.508 209.471 112.065 211.421 112.065H257.697C259.647 112.065 261.255 113.508 261.523 115.496C263.747 131.448 274.518 144.144 289.413 149.948C290.935 150.54 291.932 152.091 291.838 153.717C290.455 177.784 280.178 199.908 261.295 219.476C249.951 231.231 238.729 238.478 234.587 240.966C230.439 238.478 219.207 231.231 207.851 219.475C188.949 199.907 178.664 177.783 177.28 153.717C177.186 152.09 178.183 150.54 179.704 149.948ZM121.064 265.206V170.224C121.064 164.876 125.415 160.524 130.763 160.524H170.81C173.66 183.698 184.677 205.716 202.933 224.552C217.918 240.012 232.31 247.832 232.915 248.156C233.429 248.433 234.004 248.578 234.588 248.578C235.172 248.578 235.746 248.433 236.26 248.156C236.865 247.831 251.243 240.011 266.213 224.55C284.452 205.715 295.459 183.697 298.307 160.524H338.238C342.817 160.524 347.937 164.672 347.937 170.224V265.205H121.064V265.206Z" fill="white"/>
<path d="M192.074 159.773C205.761 152.403 215.457 140.621 219.721 126.192H249.396C253.659 140.621 263.353 152.402 277.038 159.772C272.21 192.935 247.262 214.863 234.603 224.026C229.98 220.681 223.784 215.7 217.58 209.21C216.933 208.533 216.043 208.141 215.107 208.119C214.17 208.098 213.264 208.45 212.587 209.097C211.909 209.745 211.517 210.635 211.496 211.571C211.475 212.508 211.827 213.414 212.474 214.091C220.039 222.005 227.589 227.794 232.591 231.257C233.181 231.666 233.882 231.886 234.601 231.886C235.319 231.886 236.02 231.668 236.611 231.259C249.478 222.365 279.89 197.44 284.371 158.162C284.453 157.437 284.309 156.704 283.958 156.064C283.606 155.423 283.065 154.908 282.409 154.588C268.578 147.842 259.033 136.207 255.535 121.825C255.348 121.056 254.908 120.372 254.285 119.883C253.663 119.394 252.894 119.128 252.103 119.128H217.016C216.224 119.128 215.455 119.394 214.833 119.883C214.211 120.372 213.771 121.056 213.584 121.825C210.085 136.207 200.541 147.842 186.707 154.588C186.052 154.908 185.511 155.423 185.16 156.063C184.808 156.703 184.664 157.435 184.746 158.161C186.385 172.629 191.655 186.465 200.407 199.285C200.936 200.058 201.75 200.59 202.67 200.764C203.591 200.937 204.543 200.738 205.316 200.21C206.09 199.682 206.622 198.868 206.795 197.947C206.969 197.027 206.77 196.075 206.242 195.301C198.632 184.159 193.872 172.218 192.074 159.773Z" fill="white"/>
<path d="M234.558 200.181C239.717 200.181 243.914 195.984 243.914 190.825V176.997C248.474 173.92 251.227 168.813 251.227 163.198C251.227 153.68 242.857 145.92 233.382 146.57C225.317 147.127 218.687 153.614 217.959 161.659C217.402 167.823 220.201 173.622 225.203 176.996V190.825C225.203 195.984 229.4 200.181 234.558 200.181ZM224.995 162.294C225.413 157.668 229.228 153.938 233.869 153.617C239.33 153.238 244.163 157.685 244.163 163.198C244.163 166.875 242.113 170.174 238.814 171.808C238.224 172.1 237.728 172.551 237.381 173.111C237.033 173.67 236.85 174.315 236.85 174.973V190.825C236.85 193.787 232.267 193.787 232.267 190.825V174.973C232.267 174.315 232.084 173.67 231.737 173.111C231.39 172.551 230.893 172.1 230.304 171.808C226.717 170.032 224.634 166.297 224.995 162.294Z" fill="white"/>
</svg>
