<svg xmlns="http://www.w3.org/2000/svg" version="1.1" xmlns:xlink="http://www.w3.org/1999/xlink" xmlns:svgjs="http://svgjs.com/svgjs" width="512" height="512" x="0" y="0" viewBox="0 0 512 512" style="enable-background:new 0 0 512 512" xml:space="preserve" class=""><g><path fill="#ff4755" d="m155.028 355.114-20.298.99L95.376 469.17c-1.254 3.601 1.664 7.284 5.457 6.886l55.163-5.776a5.206 5.206 0 0 1 4.181 1.455l39.655 38.779c2.726 2.666 7.3 1.591 8.553-2.01l39.611-113.805-11.68-11.336z" opacity="1" data-original="#ff4755" class=""></path><path fill="#fc2b3a" d="M247.996 394.699 256 371.704l-113.29-38.526-7.98 22.927c32.17 22.955 71.122 37.007 113.266 38.594z" opacity="1" data-original="#fc2b3a" class=""></path><path fill="#ff4755" d="m356.972 355.114 20.298.99 39.354 113.066c1.254 3.601-1.664 7.284-5.457 6.886l-55.163-5.776a5.203 5.203 0 0 0-4.18 1.455l-39.655 38.779c-2.726 2.666-7.3 1.591-8.553-2.01l-39.611-113.805 11.68-11.336z" opacity="1" data-original="#ff4755" class=""></path><path fill="#fc2b3a" d="M264.004 394.699 256 371.704l113.29-38.526 7.98 22.927c-32.17 22.955-71.122 37.007-113.266 38.594z" opacity="1" data-original="#fc2b3a" class=""></path><path fill="#ffe27a" d="M256 360.116c-185.852 0-185.774-180.529-185.62-183.632C75.259 78.194 156.498 0 256 0s180.741 78.194 185.62 176.485c.154 3.103.232 183.631-185.62 183.631z" opacity="1" data-original="#ffe27a" class=""></path><path fill="#f9cf58" d="M256 352.969c-99.502 0-180.738-78.194-185.618-176.485a188.956 188.956 0 0 0-.234 9.367c0 102.643 83.209 185.852 185.852 185.852s185.852-83.209 185.852-185.852c0-3.142-.08-6.264-.234-9.367-4.88 98.291-86.116 176.485-185.618 176.485z" opacity="1" data-original="#f9cf58" class=""></path><path fill="#ffba57" d="M256 320.126c-146.117 0-146.313-143.682-146.117-146.78C114.714 96.85 178.286 36.302 256 36.302S397.286 96.85 402.117 173.346c.196 3.097 0 146.78-146.117 146.78z" opacity="1" data-original="#ffba57" class=""></path><path fill="#ffac3e" d="M256 313.529c-77.713 0-141.274-60.55-146.105-137.045a148.28 148.28 0 0 0-.307 9.367c0 80.861 65.551 146.412 146.412 146.412s146.412-65.551 146.412-146.412c0-3.148-.111-6.269-.307-9.367-4.831 76.495-68.392 137.045-146.105 137.045z" opacity="1" data-original="#ffac3e" class=""></path><path fill="#ffe27a" d="M264.35 272.82c-10.165 0-18.406-8.24-18.406-18.406V151.263s-11.013 11.045-24.19 4.418c-10.274-5.167-10.274-18.466-10.274-18.466l22.693-38.306a18.407 18.407 0 0 1 15.836-9.025h14.341c10.165 0 18.406 8.24 18.406 18.406V254.414c0 10.166-8.241 18.406-18.406 18.406z" opacity="1" data-original="#ffe27a" class=""></path><g fill="#f9cf58"><path d="M243.415 136.8c-4.885 8.247-15.272 11.823-23.935 7.718a18.357 18.357 0 0 1-8.006-7.29c-5.111 8.646-2.344 19.769 6.166 25.024 8.776 5.42 20.503 2.184 25.759-6.691l2.546-4.299v-13.771c0-1.382-1.825-1.881-2.53-.691zM264.35 263.085c-10.165 0-18.406-8.24-18.406-18.406v18.735c0 10.166 8.241 18.406 18.406 18.406s18.406-8.24 18.406-18.406v-18.735c0 10.166-8.241 18.406-18.406 18.406z" fill="#f9cf58" opacity="1" data-original="#f9cf58" class=""></path></g></g></svg>