<svg width="223" height="223" viewBox="0 0 223 223" fill="none" xmlns="http://www.w3.org/2000/svg">
<g clip-path="url(#clip0_74_440)">
<path d="M223 219.516H0M223 60.1055H170.19M52.8101 60.1055H0M196.432 60.1055V89.7227M26.5684 89.7227V60.1055M196.432 189.898V219.516M26.5684 219.516V189.898M54.8789 219.516V189.898M83.1895 219.516V189.898M111.5 219.516V189.898M139.811 219.516V189.898M168.121 219.516V189.898M52.3266 89.7227H0M170.673 89.7227H223M0 189.898H223M15.6797 89.7227V189.898M207.32 189.898V89.7227M133.277 38.7637V86.6738M146.344 106.273H76.6562C71.8452 106.273 67.9453 102.374 67.9453 97.5625V27.875C67.9453 23.0639 71.8452 19.1641 76.6562 19.1641H146.344C151.155 19.1641 155.055 23.0639 155.055 27.875V97.5625C155.055 102.374 151.155 106.273 146.344 106.273Z" stroke="white" stroke-width="5" stroke-miterlimit="10"/>
<path d="M115.855 86.6738V55.3145C115.855 48.0979 110.006 42.248 102.789 42.248C95.5725 42.248 89.7227 48.0979 89.7227 55.3145V86.6738M89.7227 72.3008H115.855M118.033 19.1641H104.967V10.0176C104.967 6.40951 107.892 3.48438 111.5 3.48438C115.108 3.48438 118.033 6.40951 118.033 10.0176V19.1641ZM144.166 19.1641H131.1V10.0176C131.1 6.40951 134.025 3.48438 137.633 3.48438C141.241 3.48438 144.166 6.40951 144.166 10.0176V19.1641ZM91.9004 19.1641H78.834V10.0176C78.834 6.40951 81.7591 3.48438 85.3672 3.48438C88.9753 3.48438 91.9004 6.40951 91.9004 10.0176V19.1641ZM118.033 106.273H104.967V115.42C104.967 119.028 107.892 121.953 111.5 121.953C115.108 121.953 118.033 119.028 118.033 115.42V106.273ZM144.166 106.273H131.1V115.42C131.1 119.028 134.025 121.953 137.633 121.953C141.241 121.953 144.166 119.028 144.166 115.42V106.273ZM91.9004 106.273H78.834V115.42C78.834 119.028 81.7591 121.953 85.3672 121.953C88.9753 121.953 91.9004 119.028 91.9004 115.42V106.273ZM67.9453 56.1855V69.252H58.7988C55.1908 69.252 52.2656 66.3268 52.2656 62.7188C52.2656 59.1107 55.1908 56.1855 58.7988 56.1855H67.9453ZM67.9453 30.0527V43.1191H58.7988C55.1908 43.1191 52.2656 40.194 52.2656 36.5859C52.2656 32.9779 55.1908 30.0527 58.7988 30.0527H67.9453ZM67.9453 82.3184V95.3848H58.7988C55.1908 95.3848 52.2656 92.4596 52.2656 88.8516C52.2656 85.2435 55.1908 82.3184 58.7988 82.3184H67.9453ZM155.055 56.1855V69.252H164.201C167.809 69.252 170.734 66.3268 170.734 62.7188C170.734 59.1107 167.809 56.1855 164.201 56.1855H155.055ZM155.055 30.0527V43.1191H164.201C167.809 43.1191 170.734 40.194 170.734 36.5859C170.734 32.9779 167.809 30.0527 164.201 30.0527H155.055ZM155.055 82.3184V95.3848H164.201C167.809 95.3848 170.734 92.4596 170.734 88.8516C170.734 85.2435 167.809 82.3184 164.201 82.3184H155.055Z" stroke="white" stroke-width="5" stroke-miterlimit="10"/>
<path d="M111.5 176.832C116.311 176.832 120.211 172.932 120.211 168.121C120.211 163.31 116.311 159.41 111.5 159.41C106.689 159.41 102.789 163.31 102.789 168.121C102.789 172.932 106.689 176.832 111.5 176.832Z" stroke="white" stroke-width="5" stroke-miterlimit="10"/>
<path d="M59.2344 168.121C64.0453 168.121 67.9453 164.221 67.9453 159.41C67.9453 154.599 64.0453 150.699 59.2344 150.699C54.4235 150.699 50.5234 154.599 50.5234 159.41C50.5234 164.221 54.4235 168.121 59.2344 168.121Z" stroke="white" stroke-width="5" stroke-miterlimit="10"/>
<path d="M111.5 159.41V144.602M111.5 138.068V131.535M85.3672 144.602V150.699C85.3672 155.51 81.4673 159.41 76.6562 159.41H67.9453M85.3672 138.068V131.535" stroke="white" stroke-width="5" stroke-miterlimit="10"/>
<path d="M163.766 168.121C168.577 168.121 172.477 164.221 172.477 159.41C172.477 154.599 168.577 150.699 163.766 150.699C158.955 150.699 155.055 154.599 155.055 159.41C155.055 164.221 158.955 168.121 163.766 168.121Z" stroke="white" stroke-width="5" stroke-miterlimit="10"/>
<path d="M137.633 144.602V150.699C137.633 155.51 141.533 159.41 146.344 159.41H155.055M137.633 138.068V131.535" stroke="white" stroke-width="5" stroke-miterlimit="10"/>
</g>
<defs>
<clipPath id="clip0_74_440">
<rect width="223" height="223" fill="white"/>
</clipPath>
</defs>
</svg>
