<svg width="1920" height="2389" viewBox="0 0 1920 2389" fill="none" xmlns="http://www.w3.org/2000/svg">
<g clip-path="url(#clip0_0_3)">
<rect width="1920" height="2389" fill="#0D0F16"/>
<g clip-path="url(#clip1_0_3)">
<path d="M1966.8 907.788C1965.62 909.716 1964.95 911.923 1964.89 914.187C1964.82 916.45 1965.35 918.692 1966.42 920.687L2072.59 1117.92C2073.66 1119.92 2075.24 1121.6 2077.16 1122.79C2079.09 1123.99 2081.29 1124.66 2083.56 1124.73L2307.44 1131.37C2309.7 1131.44 2311.94 1130.91 2313.94 1129.83C2315.93 1128.76 2317.61 1127.18 2318.8 1125.26L2436.54 934.702C2437.73 932.774 2438.39 930.568 2438.46 928.304C2438.52 926.041 2438 923.799 2436.92 921.804L2330.76 724.57C2329.68 722.577 2328.1 720.902 2326.18 719.712C2324.25 718.521 2322.04 717.857 2319.78 717.785L2095.89 711.112C2093.63 711.049 2091.39 711.58 2089.39 712.652C2087.4 713.725 2085.72 715.302 2084.52 717.225L1966.8 907.788ZM2438.06 935.644L2320.33 1126.21C2318.97 1128.4 2317.06 1130.2 2314.79 1131.42C2312.51 1132.64 2309.96 1133.25 2307.38 1133.18L2083.49 1126.5C2080.91 1126.42 2078.39 1125.66 2076.2 1124.31C2074 1122.95 2072.2 1121.04 2070.97 1118.77L1964.81 921.537C1963.59 919.261 1962.99 916.706 1963.06 914.126C1963.14 911.546 1963.89 909.031 1965.24 906.832L2082.97 716.273C2084.33 714.079 2086.25 712.279 2088.52 711.055C2090.79 709.832 2093.34 709.226 2095.92 709.299L2319.82 715.974C2322.4 716.055 2324.91 716.813 2327.11 718.17C2329.31 719.528 2331.11 721.439 2332.33 723.711L2438.52 920.953C2439.73 923.227 2440.33 925.781 2440.25 928.359C2440.17 930.938 2439.42 933.449 2438.06 935.644Z" fill="url(#paint0_linear_0_3)" fill-opacity="0.25"/>
<path d="M1940.64 905.7C1939.32 907.842 1938.58 910.293 1938.5 912.809C1938.42 915.326 1939 917.819 1940.18 920.041L2057.71 1139.53C2058.9 1141.75 2060.65 1143.61 2062.78 1144.94C2064.92 1146.27 2067.36 1147.01 2069.87 1147.1L2318.72 1155.07C2321.23 1155.15 2323.72 1154.57 2325.94 1153.38C2328.15 1152.2 2330.02 1150.46 2331.36 1148.32L2462.69 936.811C2464.01 934.669 2464.75 932.217 2464.83 929.7C2464.91 927.184 2464.33 924.69 2463.14 922.469L2345.63 702.98C2344.44 700.767 2342.69 698.905 2340.56 697.578C2338.43 696.251 2335.98 695.506 2333.47 695.417L2084.62 687.441C2082.11 687.364 2079.62 687.946 2077.4 689.13C2075.19 690.314 2073.32 692.058 2071.98 694.189L1940.64 905.7ZM2464.41 937.852L2333.08 1149.37C2331.56 1151.8 2329.43 1153.8 2326.9 1155.15C2324.37 1156.5 2321.53 1157.17 2318.66 1157.08L2069.81 1149.08C2066.94 1148.98 2064.15 1148.13 2061.71 1146.62C2059.27 1145.11 2057.28 1142.98 2055.92 1140.45L1938.41 920.959C1937.06 918.428 1936.39 915.587 1936.49 912.719C1936.58 909.851 1937.42 907.058 1938.93 904.618L2070.26 693.098C2071.78 690.664 2073.91 688.671 2076.44 687.317C2078.97 685.964 2081.81 685.297 2084.68 685.384L2333.52 693.358C2336.39 693.456 2339.18 694.304 2341.62 695.817C2344.05 697.33 2346.05 699.456 2347.41 701.983L2464.93 921.506C2466.28 924.039 2466.94 926.881 2466.85 929.749C2466.76 932.617 2465.92 935.411 2464.41 937.852Z" fill="url(#paint1_linear_0_3)" fill-opacity="0.25"/>
<path d="M1914.49 903.618C1913.02 905.972 1912.2 908.67 1912.11 911.441C1912.01 914.212 1912.65 916.959 1913.95 919.407L2042.81 1161.15C2044.12 1163.59 2046.04 1165.65 2048.39 1167.11C2050.74 1168.58 2053.44 1169.4 2056.21 1169.5L2329.98 1178.77C2332.75 1178.86 2335.49 1178.22 2337.94 1176.91C2340.38 1175.61 2342.44 1173.69 2343.91 1171.34L2488.84 938.873C2490.31 936.518 2491.13 933.821 2491.22 931.05C2491.32 928.279 2490.68 925.532 2489.38 923.084L2360.51 681.343C2359.21 678.9 2357.28 676.843 2354.93 675.377C2352.58 673.912 2349.89 673.089 2347.12 672.992L2073.33 663.711C2070.56 663.621 2067.81 664.26 2065.37 665.563C2062.93 666.866 2060.87 668.789 2059.4 671.137L1914.49 903.618ZM2490.74 940.048L2345.8 1172.53C2344.13 1175.21 2341.78 1177.4 2338.99 1178.89C2336.21 1180.37 2333.08 1181.1 2329.92 1181L2056.14 1171.7C2052.98 1171.59 2049.91 1170.66 2047.23 1168.99C2044.55 1167.32 2042.35 1164.98 2040.86 1162.2L1911.97 920.446C1910.48 917.657 1909.76 914.527 1909.86 911.37C1909.97 908.213 1910.9 905.139 1912.57 902.456L2057.51 669.988C2059.18 667.31 2061.53 665.119 2064.31 663.634C2067.1 662.148 2070.23 661.421 2073.38 661.525L2347.18 670.801C2350.33 670.909 2353.4 671.844 2356.08 673.513C2358.76 675.181 2360.96 677.525 2362.45 680.308L2491.34 922.058C2492.83 924.848 2493.55 927.977 2493.44 931.134C2493.34 934.29 2492.41 937.364 2490.74 940.048Z" fill="url(#paint2_linear_0_3)" fill-opacity="0.25"/>
<path d="M1888.33 901.531C1886.73 904.096 1885.83 907.036 1885.72 910.056C1885.62 913.077 1886.3 916.073 1887.72 918.744L2027.92 1182.78C2029.34 1185.45 2031.44 1187.69 2034 1189.3C2036.56 1190.9 2039.5 1191.8 2042.52 1191.92L2341.27 1202.49C2344.29 1202.6 2347.28 1201.9 2349.95 1200.49C2352.62 1199.07 2354.87 1196.98 2356.48 1194.42L2515.02 940.984C2516.62 938.419 2517.51 935.48 2517.62 932.459C2517.73 929.438 2517.04 926.442 2515.63 923.771L2375.42 659.736C2374 657.069 2371.9 654.822 2369.34 653.22C2366.78 651.617 2363.84 650.715 2360.82 650.604L2062.08 640.021C2059.06 639.919 2056.06 640.611 2053.39 642.03C2050.72 643.448 2048.47 645.542 2046.86 648.103L1888.33 901.531ZM2517.06 942.241L2358.53 1195.67C2356.7 1198.59 2354.13 1200.97 2351.09 1202.59C2348.05 1204.21 2344.63 1205 2341.19 1204.88L2042.44 1194.3C2039 1194.17 2035.65 1193.14 2032.73 1191.32C2029.81 1189.49 2027.42 1186.93 2025.8 1183.89L1885.6 919.852C1883.99 916.805 1883.2 913.39 1883.32 909.947C1883.45 906.504 1884.47 903.153 1886.29 900.228L2044.83 646.8C2046.66 643.883 2049.23 641.497 2052.27 639.88C2055.31 638.264 2058.73 637.474 2062.17 637.589L2360.91 648.172C2364.36 648.299 2367.71 649.328 2370.63 651.155C2373.55 652.982 2375.94 655.544 2377.56 658.585L2517.76 922.618C2519.37 925.663 2520.16 929.078 2520.03 932.522C2519.91 935.966 2518.89 939.317 2517.06 942.241Z" fill="url(#paint3_linear_0_3)" fill-opacity="0.25"/>
<path d="M1862.17 899.444C1860.43 902.221 1859.45 905.405 1859.33 908.679C1859.21 911.952 1859.95 915.2 1861.48 918.098L2013.04 1204.37C2014.58 1207.26 2016.85 1209.7 2019.62 1211.44C2022.4 1213.18 2025.58 1214.16 2028.85 1214.28L2352.52 1226.16C2355.8 1226.28 2359.04 1225.53 2361.94 1224C2364.83 1222.46 2367.27 1220.2 2369.02 1217.43L2541.19 943.059C2542.93 940.282 2543.91 937.098 2544.03 933.824C2544.15 930.551 2543.4 927.304 2541.87 924.408L2390.32 638.135C2388.78 635.243 2386.51 632.804 2383.74 631.064C2380.97 629.324 2377.78 628.342 2374.51 628.218L2050.8 616.322C2047.53 616.207 2044.28 616.954 2041.39 618.486C2038.49 620.019 2036.05 622.284 2034.31 625.056L1862.17 899.444ZM2543.4 944.425L2371.26 1218.81C2369.27 1221.97 2366.49 1224.55 2363.19 1226.3C2359.88 1228.05 2356.18 1228.9 2352.45 1228.77L2028.75 1216.9C2025.02 1216.76 2021.39 1215.64 2018.23 1213.65C2015.07 1211.67 2012.48 1208.89 2010.73 1205.59L1859.18 919.322C1857.43 916.019 1856.59 912.316 1856.73 908.585C1856.86 904.853 1857.98 901.223 1859.96 898.057L2032.1 623.671C2034.09 620.513 2036.87 617.933 2040.17 616.186C2043.47 614.44 2047.17 613.59 2050.9 613.719L2374.59 625.604C2378.32 625.747 2381.95 626.866 2385.11 628.85C2388.28 630.834 2390.86 633.613 2392.62 636.91L2544.17 923.188C2545.91 926.487 2546.75 930.183 2546.62 933.91C2546.48 937.636 2545.37 941.261 2543.4 944.425Z" fill="url(#paint4_linear_0_3)" fill-opacity="0.25"/>
<path d="M1836.01 897.362C1834.14 900.35 1833.08 903.778 1832.94 907.303C1832.81 910.828 1833.61 914.327 1835.25 917.448L1998.13 1226C1999.78 1229.12 2002.22 1231.75 2005.2 1233.63C2008.19 1235.51 2011.62 1236.57 2015.14 1236.71L2363.79 1249.92C2367.31 1250.05 2370.81 1249.25 2373.93 1247.6C2377.05 1245.95 2379.68 1243.52 2381.56 1240.53L2567.3 945.192C2569.18 942.202 2570.23 938.773 2570.37 935.248C2570.5 931.722 2569.71 928.223 2568.07 925.1L2405.16 616.572C2403.51 613.453 2401.07 610.822 2398.08 608.941C2395.1 607.061 2391.67 605.997 2388.14 605.855L2039.52 592.642C2036 592.514 2032.5 593.314 2029.38 594.962C2026.26 596.609 2023.63 599.047 2021.75 602.03L1836.01 897.362ZM2569.72 946.642L2383.99 1241.98C2381.85 1245.38 2378.85 1248.16 2375.3 1250.04C2371.75 1251.92 2367.77 1252.83 2363.75 1252.69L2015.07 1239.49C2011.05 1239.34 2007.14 1238.12 2003.74 1235.98C2000.33 1233.84 1997.55 1230.84 1995.67 1227.29L1832.76 918.762C1830.89 915.203 1829.98 911.215 1830.14 907.196C1830.29 903.177 1831.49 899.269 1833.63 895.862L2019.37 600.514C2021.52 597.114 2024.52 594.338 2028.07 592.461C2031.63 590.584 2035.62 589.672 2039.63 589.817L2388.28 603.026C2392.3 603.187 2396.2 604.398 2399.6 606.54C2403.01 608.681 2405.79 611.677 2407.67 615.23L2570.58 923.758C2572.45 927.315 2573.36 931.3 2573.2 935.315C2573.05 939.331 2571.85 943.236 2569.72 946.642Z" fill="url(#paint5_linear_0_3)" fill-opacity="0.25"/>
<path d="M1809.85 895.273C1807.84 898.475 1806.7 902.148 1806.56 905.926C1806.41 909.703 1807.26 913.454 1809.01 916.802L1983.27 1247.59C1985.04 1250.93 1987.65 1253.74 1990.84 1255.76C1994.03 1257.77 1997.7 1258.91 2001.47 1259.07L2375.07 1273.56C2378.84 1273.7 2382.59 1272.84 2385.94 1271.08C2389.28 1269.32 2392.11 1266.71 2394.13 1263.52L2593.5 947.219C2595.51 944.018 2596.65 940.345 2596.79 936.568C2596.94 932.791 2596.09 929.042 2594.33 925.695L2420.08 594.9C2418.31 591.563 2415.7 588.747 2412.51 586.734C2409.32 584.72 2405.65 583.579 2401.88 583.423L2028.26 568.929C2024.48 568.788 2020.73 569.642 2017.39 571.404C2014.04 573.166 2011.22 575.776 2009.19 578.972L1809.85 895.273ZM2596.05 948.825L2396.68 1265.12C2394.37 1268.76 2391.16 1271.74 2387.35 1273.75C2383.54 1275.76 2379.26 1276.73 2374.96 1276.57L2001.38 1262.09C1997.07 1261.92 1992.89 1260.62 1989.24 1258.32C1985.6 1256.02 1982.62 1252.81 1980.6 1249L1806.36 918.209C1804.36 914.393 1803.4 910.119 1803.56 905.813C1803.73 901.508 1805.02 897.321 1807.32 893.672L2006.69 577.373C2008.99 573.732 2012.2 570.759 2016.02 568.751C2019.83 566.743 2024.1 565.77 2028.4 565.931L2402.01 580.414C2406.31 580.589 2410.5 581.891 2414.14 584.189C2417.79 586.488 2420.77 589.702 2422.78 593.512L2597.03 924.3C2599.03 928.116 2599.99 932.39 2599.82 936.694C2599.64 940.997 2598.34 945.18 2596.05 948.825Z" fill="url(#paint6_linear_0_3)" fill-opacity="0.25"/>
<path d="M1783.69 893.185C1781.54 896.599 1780.33 900.517 1780.17 904.547C1780.01 908.577 1780.91 912.579 1782.78 916.152L1968.38 1269.2C1970.27 1272.77 1973.05 1275.77 1976.47 1277.92C1979.88 1280.07 1983.79 1281.29 1987.82 1281.46L2386.37 1297.24C2390.4 1297.4 2394.4 1296.49 2397.97 1294.62C2401.54 1292.74 2404.56 1289.96 2406.71 1286.55L2619.66 949.289C2621.81 945.877 2623.03 941.959 2623.19 937.929C2623.35 933.899 2622.45 929.898 2620.58 926.325L2434.97 573.279C2433.09 569.713 2430.3 566.702 2426.89 564.549C2423.48 562.396 2419.57 561.175 2415.54 561.009L2016.99 545.219C2012.96 545.066 2008.96 545.973 2005.39 547.85C2001.82 549.726 1998.8 552.507 1996.64 555.913L1783.69 893.185ZM2622.38 951.02L2409.43 1288.28C2406.97 1292.17 2403.53 1295.34 2399.46 1297.48C2395.39 1299.61 2390.82 1300.65 2386.23 1300.47L1987.67 1284.68C1983.08 1284.49 1978.62 1283.1 1974.73 1280.64C1970.85 1278.19 1967.67 1274.76 1965.52 1270.7L1779.92 917.645C1777.79 913.575 1776.77 909.019 1776.95 904.43C1777.14 899.842 1778.52 895.381 1780.96 891.493L1993.91 554.233C1996.37 550.348 1999.81 547.178 2003.88 545.039C2007.95 542.899 2012.52 541.866 2017.11 542.042L2415.66 557.831C2420.25 558.021 2424.72 559.413 2428.6 561.868C2432.49 564.323 2435.67 567.756 2437.81 571.822L2623.41 924.872C2625.54 928.94 2626.56 933.496 2626.38 938.084C2626.2 942.672 2624.82 947.132 2622.38 951.02Z" fill="url(#paint7_linear_0_3)" fill-opacity="0.25"/>
<path d="M1757.53 891.103C1755.25 894.729 1753.95 898.891 1753.78 903.173C1753.61 907.455 1754.56 911.707 1756.54 915.505L1953.5 1290.81C1955.5 1294.6 1958.45 1297.81 1962.07 1300.1C1965.69 1302.39 1969.85 1303.69 1974.14 1303.87L2397.64 1320.96C2401.92 1321.13 2406.17 1320.16 2409.97 1318.17C2413.76 1316.18 2416.97 1313.23 2419.26 1309.61L2645.83 951.392C2648.11 947.767 2649.41 943.606 2649.58 939.325C2649.75 935.043 2648.8 930.792 2646.81 926.995L2449.86 551.685C2447.87 547.892 2444.91 544.689 2441.29 542.398C2437.67 540.106 2433.5 538.806 2429.22 538.627L2005.71 521.527C2001.43 521.362 1997.18 522.323 1993.38 524.315C1989.59 526.306 1986.38 529.259 1984.08 532.877L1757.53 891.103ZM2648.71 953.221L2422.14 1311.43C2419.52 1315.56 2415.86 1318.93 2411.53 1321.2C2407.2 1323.46 2402.35 1324.55 2397.47 1324.36L1973.96 1307.27C1969.08 1307.06 1964.34 1305.58 1960.21 1302.97C1956.08 1300.36 1952.71 1296.71 1950.43 1292.39L1753.52 917.092C1751.26 912.763 1750.17 907.916 1750.37 903.035C1750.57 898.154 1752.04 893.41 1754.64 889.278L1981.21 531.061C1983.83 526.936 1987.48 523.57 1991.81 521.3C1996.13 519.03 2000.98 517.935 2005.86 518.125L2429.36 535.215C2434.24 535.418 2438.98 536.9 2443.11 539.511C2447.24 542.121 2450.61 545.77 2452.89 550.093L2649.82 925.424C2652.08 929.75 2653.17 934.593 2652.97 939.471C2652.78 944.349 2651.31 949.09 2648.71 953.221Z" fill="url(#paint8_linear_0_3)" fill-opacity="0.25"/>
<path d="M1731.37 889.016C1728.95 892.854 1727.58 897.26 1727.39 901.794C1727.21 906.329 1728.21 910.832 1730.31 914.855L1938.61 1312.43C1940.72 1316.44 1943.85 1319.84 1947.69 1322.26C1951.52 1324.69 1955.93 1326.07 1960.46 1326.27L2408.92 1344.64C2413.45 1344.81 2417.96 1343.8 2421.98 1341.69C2426 1339.59 2429.39 1336.46 2431.83 1332.63L2671.99 953.455C2674.41 949.617 2675.78 945.211 2675.97 940.677C2676.15 936.142 2675.15 931.639 2673.04 927.616L2464.75 530.049C2462.63 526.032 2459.51 522.639 2455.67 520.211C2451.84 517.782 2447.43 516.403 2442.9 516.211L1994.43 497.84C1989.9 497.661 1985.4 498.676 1981.38 500.782C1977.36 502.887 1973.96 506.011 1971.53 509.841L1731.37 889.016ZM2675.02 955.412L2434.87 1334.59C2432.09 1338.95 2428.22 1342.51 2423.64 1344.91C2419.06 1347.32 2413.92 1348.47 2408.75 1348.27L1960.29 1329.9C1955.12 1329.68 1950.1 1328.1 1945.73 1325.34C1941.36 1322.57 1937.79 1318.7 1935.39 1314.12L1727.09 916.556C1724.69 911.962 1723.55 906.82 1723.76 901.643C1723.98 896.467 1725.55 891.438 1728.32 887.061L1968.48 507.885C1971.25 503.52 1975.12 499.96 1979.71 497.56C1984.29 495.159 1989.42 494.003 1994.59 494.207L2443.05 512.579C2448.22 512.799 2453.24 514.371 2457.61 517.138C2461.98 519.905 2465.55 523.771 2467.96 528.348L2676.25 925.92C2678.65 930.512 2679.8 935.654 2679.59 940.831C2679.38 946.008 2677.81 951.037 2675.04 955.416L2675.02 955.412Z" fill="url(#paint9_linear_0_3)" fill-opacity="0.25"/>
<path d="M1705.23 886.932C1702.67 890.98 1701.22 895.628 1701.02 900.411C1700.82 905.194 1701.88 909.945 1704.1 914.191L1923.72 1334.04C1925.95 1338.28 1929.26 1341.86 1933.3 1344.42C1937.35 1346.99 1942 1348.45 1946.78 1348.66L2420.19 1368.35C2424.97 1368.54 2429.73 1367.47 2433.97 1365.26C2438.21 1363.04 2441.8 1359.75 2444.37 1355.71L2698.13 955.574C2700.68 951.525 2702.13 946.877 2702.33 942.094C2702.53 937.31 2701.47 932.559 2699.25 928.314L2479.61 508.482C2477.39 504.24 2474.08 500.658 2470.04 498.092C2465.99 495.527 2461.34 494.069 2456.55 493.863L1983.16 474.143C1978.38 473.949 1973.63 475.015 1969.38 477.233C1965.14 479.451 1961.55 482.745 1958.98 486.784L1705.23 886.932ZM2701.37 957.613L2447.6 1357.74C2444.67 1362.35 2440.58 1366.11 2435.74 1368.64C2430.9 1371.17 2425.48 1372.39 2420.02 1372.17L1946.62 1352.48C1941.17 1352.24 1935.88 1350.57 1931.27 1347.65C1926.66 1344.72 1922.9 1340.64 1920.36 1335.81L1700.71 915.986C1698.19 911.142 1696.98 905.721 1697.21 900.265C1697.44 894.808 1699.09 889.507 1702.01 884.89L1955.76 484.754C1958.7 480.148 1962.79 476.391 1967.63 473.859C1972.46 471.328 1977.88 470.11 1983.34 470.327L2456.74 490.027C2462.2 490.264 2467.49 491.927 2472.1 494.85C2476.71 497.773 2480.47 501.854 2483.01 506.685L2702.66 926.513C2705.18 931.356 2706.39 936.777 2706.16 942.234C2705.93 947.691 2704.28 952.993 2701.36 957.609L2701.37 957.613Z" fill="url(#paint10_linear_0_3)" fill-opacity="0.25"/>
<path d="M1679.06 884.847C1676.36 889.11 1674.83 894.006 1674.62 899.046C1674.41 904.086 1675.53 909.093 1677.86 913.564L1908.84 1355.65C1911.18 1360.11 1914.65 1363.89 1918.91 1366.59C1923.17 1369.29 1928.06 1370.83 1933.1 1371.05L2431.46 1392.05C2436.5 1392.26 2441.5 1391.13 2445.97 1388.8C2450.44 1386.46 2454.22 1382.99 2456.93 1378.74L2724.3 957.646C2726.99 953.382 2728.52 948.486 2728.73 943.447C2728.94 938.407 2727.82 933.401 2725.49 928.929L2494.49 486.839C2492.15 482.378 2488.68 478.608 2484.43 475.907C2480.18 473.205 2475.29 471.666 2470.26 471.443L1971.89 450.446C1966.85 450.24 1961.85 451.36 1957.38 453.696C1952.91 456.031 1949.13 459.499 1946.42 463.753L1679.06 884.847ZM2727.69 959.799L2460.33 1380.9C2457.24 1385.75 2452.93 1389.7 2447.83 1392.36C2442.74 1395.02 2437.03 1396.3 2431.29 1396.07L1932.93 1375.07C1927.19 1374.82 1921.61 1373.07 1916.76 1369.99C1911.9 1366.9 1907.94 1362.6 1905.27 1357.51L1674.28 915.421C1671.63 910.321 1670.36 904.614 1670.6 898.87C1670.84 893.126 1672.58 887.546 1675.66 882.687L1943 461.588C1946.09 456.74 1950.4 452.788 1955.5 450.127C1960.59 447.465 1966.3 446.186 1972.04 446.418L2470.42 467.42C2476.16 467.672 2481.74 469.426 2486.59 472.508C2491.44 475.59 2495.4 479.891 2498.07 484.983L2729.09 927.078C2731.74 932.178 2733 937.885 2732.76 943.628C2732.51 949.37 2730.77 954.948 2727.69 959.804L2727.69 959.799Z" fill="url(#paint11_linear_0_3)" fill-opacity="0.25"/>
<path d="M1652.9 882.759C1650.06 887.232 1648.45 892.372 1648.22 897.664C1648 902.956 1649.16 908.214 1651.61 912.912L1893.97 1377.23C1896.42 1381.92 1900.07 1385.89 1904.54 1388.73C1909.01 1391.57 1914.14 1393.19 1919.44 1393.42L2442.74 1415.72C2448.03 1415.94 2453.29 1414.76 2457.99 1412.31C2462.68 1409.86 2466.65 1406.22 2469.5 1401.75L2750.45 959.701C2753.28 955.226 2754.89 950.087 2755.12 944.796C2755.34 939.505 2754.18 934.247 2751.74 929.547L2509.37 465.228C2506.92 460.534 2503.27 456.568 2498.8 453.727C2494.33 450.885 2489.19 449.268 2483.9 449.037L1960.61 426.747C1955.32 426.528 1950.07 427.702 1945.37 430.153C1940.68 432.603 1936.71 436.244 1933.86 440.711L1652.9 882.759ZM2754.04 962.005L2473.09 1404.06C2469.84 1409.15 2465.32 1413.3 2459.96 1416.09C2454.61 1418.88 2448.62 1420.22 2442.59 1419.98L1919.24 1397.67C1913.21 1397.4 1907.36 1395.56 1902.26 1392.32C1897.17 1389.08 1893.01 1384.56 1890.21 1379.21L1647.87 914.867C1645.08 909.51 1643.75 903.516 1644.01 897.484C1644.27 891.452 1646.1 885.594 1649.33 880.494L1930.28 438.44C1933.53 433.35 1938.05 429.201 1943.4 426.407C1948.75 423.614 1954.75 422.274 1960.78 422.521L2484.09 444.818C2490.12 445.087 2495.97 446.932 2501.07 450.171C2506.16 453.409 2510.32 457.928 2513.12 463.275L2755.47 927.626C2758.26 932.98 2759.6 938.974 2759.34 945.007C2759.09 951.04 2757.26 956.901 2754.04 962.005Z" fill="url(#paint12_linear_0_3)" fill-opacity="0.25"/>
<path d="M1626.73 880.681C1623.76 885.368 1622.07 890.752 1621.83 896.295C1621.6 901.838 1622.82 907.347 1625.37 912.272L1879.07 1398.87C1881.64 1403.79 1885.46 1407.95 1890.14 1410.93C1894.83 1413.91 1900.21 1415.6 1905.76 1415.85L2454.02 1439.45C2459.56 1439.68 2465.07 1438.45 2469.99 1435.89C2474.91 1433.32 2479.07 1429.51 2482.06 1424.83L2776.62 961.825C2779.6 957.139 2781.29 951.755 2781.52 946.211C2781.76 940.668 2780.54 935.158 2777.98 930.234L2524.32 443.639C2521.75 438.722 2517.93 434.566 2513.25 431.587C2508.57 428.607 2503.19 426.909 2497.64 426.662L1949.38 403.063C1943.84 402.833 1938.33 404.062 1933.41 406.626C1928.49 409.19 1924.33 413.001 1921.34 417.677L1626.73 880.681ZM2780.35 964.206L2485.78 1427.2C2482.37 1432.53 2477.63 1436.88 2472.02 1439.8C2466.41 1442.73 2460.14 1444.13 2453.81 1443.87L1905.56 1420.26C1899.24 1419.98 1893.1 1418.05 1887.77 1414.65C1882.43 1411.25 1878.08 1406.52 1875.15 1400.91L1621.45 914.302C1618.54 908.689 1617.15 902.409 1617.42 896.09C1617.7 889.772 1619.62 883.635 1623 878.293L1917.57 415.303C1920.97 409.971 1925.72 405.626 1931.33 402.702C1936.93 399.778 1943.21 398.378 1949.53 398.642L2497.79 422.239C2504.11 422.521 2510.24 424.456 2515.58 427.852C2520.92 431.248 2525.27 435.985 2528.2 441.59L2781.89 928.194C2784.8 933.806 2786.2 940.083 2785.92 946.4C2785.65 952.717 2783.73 958.853 2780.35 964.195L2780.35 964.206Z" fill="url(#paint13_linear_0_3)" fill-opacity="0.25"/>
<path d="M1600.57 878.586C1597.46 883.484 1595.69 889.113 1595.44 894.909C1595.19 900.705 1596.46 906.465 1599.14 911.614L1864.18 1420.48C1866.87 1425.62 1870.86 1429.97 1875.75 1433.09C1880.65 1436.2 1886.27 1437.98 1892.07 1438.24L2465.28 1463.14C2471.08 1463.38 2476.84 1462.1 2481.98 1459.42C2487.13 1456.74 2491.48 1452.76 2494.6 1447.87L2802.74 963.894C2805.85 958.995 2807.62 953.367 2807.87 947.571C2808.12 941.775 2806.85 936.015 2804.18 930.866L2539.14 421.999C2536.45 416.857 2532.46 412.51 2527.57 409.393C2522.67 406.276 2517.04 404.5 2511.25 404.24L1938.07 379.353C1932.28 379.109 1926.52 380.391 1921.37 383.07C1916.23 385.75 1911.87 389.733 1908.75 394.622L1600.57 878.586ZM2806.67 966.386L2498.53 1450.36C2494.97 1455.94 2490 1460.48 2484.14 1463.53C2478.27 1466.59 2471.71 1468.05 2465.1 1467.77L1891.87 1442.86C1885.26 1442.56 1878.84 1440.54 1873.26 1436.99C1867.68 1433.43 1863.13 1428.48 1860.07 1422.62L1595.03 913.746C1591.99 907.877 1590.53 901.311 1590.82 894.705C1591.11 888.099 1593.12 881.683 1596.66 876.099L1904.84 392.133C1908.4 386.561 1913.36 382.02 1919.22 378.965C1925.09 375.911 1931.65 374.448 1938.26 374.725L2511.47 399.628C2518.08 399.925 2524.49 401.951 2530.07 405.504C2535.65 409.057 2540.2 414.012 2543.27 419.875L2808.3 928.741C2811.35 934.61 2812.8 941.176 2812.52 947.782C2812.23 954.388 2810.22 960.804 2806.67 966.388L2806.67 966.386Z" fill="url(#paint14_linear_0_3)" fill-opacity="0.25"/>
<path d="M1574.42 876.501C1571.17 881.611 1569.32 887.483 1569.06 893.531C1568.79 899.578 1570.12 905.59 1572.91 910.964L1849.29 1442.09C1852.1 1447.46 1856.26 1451.99 1861.37 1455.24C1866.48 1458.49 1872.35 1460.34 1878.39 1460.61L2476.56 1486.81C2482.61 1487.07 2488.62 1485.74 2493.99 1482.95C2499.37 1480.15 2503.91 1476 2507.17 1470.89L2828.95 965.972C2832.2 960.863 2834.04 954.99 2834.31 948.942C2834.57 942.894 2833.25 936.883 2830.46 931.509L2554.07 400.381C2551.26 395.018 2547.1 390.485 2541.99 387.235C2536.89 383.985 2531.02 382.131 2524.97 381.86L1926.8 355.655C1920.75 355.396 1914.73 356.731 1909.36 359.525C1903.99 362.319 1899.44 366.475 1896.18 371.576L1574.42 876.501ZM2833 968.583L2511.23 1473.51C2507.5 1479.32 2502.33 1484.04 2496.21 1487.22C2490.09 1490.4 2483.24 1491.93 2476.35 1491.63L1878.18 1465.46C1871.28 1465.15 1864.59 1463.03 1858.77 1459.32C1852.96 1455.61 1848.21 1450.44 1845.01 1444.32L1568.63 913.196C1565.45 907.07 1563.94 900.217 1564.24 893.323C1564.54 886.429 1566.65 879.735 1570.35 873.91L1892.13 368.983C1895.84 363.17 1901.02 358.434 1907.14 355.248C1913.26 352.063 1920.11 350.54 1927.01 350.831L2525.17 377.038C2532.07 377.351 2538.76 379.468 2544.58 383.177C2550.4 386.886 2555.14 392.058 2558.34 398.174L2834.73 929.297C2837.9 935.423 2839.41 942.276 2839.11 949.17C2838.81 956.064 2836.7 962.758 2833 968.583Z" fill="url(#paint15_linear_0_3)" fill-opacity="0.25"/>
<path d="M1548.26 874.413C1544.88 879.737 1542.95 885.854 1542.67 892.155C1542.4 898.456 1543.78 904.719 1546.68 910.32L1834.41 1463.71C1837.33 1469.29 1841.66 1474.01 1846.97 1477.4C1852.28 1480.79 1858.39 1482.73 1864.68 1483.02L2487.83 1510.54C2494.13 1510.8 2500.39 1509.41 2505.98 1506.5C2511.58 1503.59 2516.31 1499.27 2519.71 1493.96L2855.09 968.08C2858.47 962.756 2860.4 956.639 2860.68 950.338C2860.96 944.037 2859.58 937.774 2856.68 932.173L2568.95 378.77C2566.03 373.185 2561.7 368.464 2556.39 365.075C2551.08 361.686 2544.97 359.748 2538.68 359.455L1915.53 331.958C1909.22 331.69 1902.96 333.079 1897.37 335.988C1891.77 338.896 1887.04 343.222 1883.64 348.532L1548.26 874.413ZM2859.33 970.784L2523.95 1496.66C2520.07 1502.72 2514.68 1507.65 2508.3 1510.96C2501.92 1514.28 2494.78 1515.86 2487.6 1515.56L1864.49 1488.05C1857.31 1487.72 1850.34 1485.52 1844.28 1481.65C1838.22 1477.79 1833.27 1472.4 1829.95 1466.03L1542.21 912.637C1538.91 906.253 1537.33 899.113 1537.65 891.931C1537.97 884.749 1540.17 877.776 1544.02 871.709L1879.4 345.834C1883.27 339.778 1888.67 334.846 1895.05 331.529C1901.43 328.213 1908.56 326.628 1915.75 326.934L2538.86 354.437C2546.04 354.767 2553.01 356.975 2559.07 360.841C2565.13 364.706 2570.08 370.094 2573.4 376.467L2861.14 929.854C2864.44 936.238 2866.01 943.378 2865.7 950.56C2865.38 957.742 2863.19 964.716 2859.33 970.784Z" fill="url(#paint16_linear_0_3)" fill-opacity="0.25"/>
<path d="M1522.1 872.332C1518.58 877.864 1516.57 884.223 1516.28 890.775C1515.98 897.326 1517.42 903.839 1520.43 909.664L1819.52 1485.32C1822.56 1491.13 1827.06 1496.05 1832.59 1499.58C1838.12 1503.11 1844.48 1505.12 1851.03 1505.42L2499.12 1534.24C2505.67 1534.52 2512.18 1533.07 2517.99 1530.04C2523.8 1527.02 2528.72 1522.52 2532.26 1517L2881.24 970.158C2884.76 964.626 2886.77 958.266 2887.06 951.715C2887.36 945.164 2885.93 938.65 2882.91 932.825L2583.83 357.177C2580.8 351.361 2576.29 346.444 2570.76 342.916C2565.23 339.387 2558.87 337.372 2552.32 337.07L1904.23 308.253C1897.68 307.973 1891.17 309.417 1885.35 312.441C1879.53 315.465 1874.6 319.962 1871.06 325.485L1522.1 872.332ZM2885.66 972.955L2536.68 1519.81C2532.65 1526.11 2527.03 1531.25 2520.39 1534.7C2513.76 1538.15 2506.33 1539.8 2498.86 1539.48L1850.77 1510.66C1843.31 1510.31 1836.07 1508.01 1829.78 1503.98C1823.49 1499.96 1818.36 1494.36 1814.9 1487.74L1515.8 912.085C1512.36 905.444 1510.73 898.018 1511.06 890.547C1511.39 883.076 1513.68 875.824 1517.69 869.514L1866.68 322.68C1870.71 316.379 1876.32 311.247 1882.95 307.796C1889.59 304.345 1897.02 302.696 1904.49 303.015L2552.58 331.832C2560.04 332.177 2567.29 334.476 2573.59 338.498C2579.9 342.521 2585.03 348.126 2588.49 354.754L2887.58 930.404C2891.01 937.048 2892.64 944.477 2892.3 951.948C2891.97 959.419 2889.67 966.67 2885.66 972.977L2885.66 972.955Z" fill="url(#paint17_linear_0_3)" fill-opacity="0.25"/>
<path d="M1495.94 870.244C1492.28 875.991 1490.2 882.597 1489.9 889.402C1489.59 896.207 1491.08 902.973 1494.21 909.023L1804.64 1506.92C1807.79 1512.96 1812.47 1518.07 1818.21 1521.73C1823.95 1525.4 1830.55 1527.49 1837.36 1527.81L2510.38 1557.91C2517.19 1558.2 2523.95 1556.7 2530 1553.57C2536.04 1550.43 2541.16 1545.76 2544.83 1540.02L2907.42 972.227C2911.07 966.479 2913.15 959.873 2913.46 953.069C2913.76 946.264 2912.28 939.499 2909.15 933.448L2598.72 335.554C2595.57 329.515 2590.89 324.408 2585.15 320.742C2579.4 317.076 2572.8 314.98 2566 314.662L1892.98 284.562C1886.17 284.269 1879.41 285.766 1873.36 288.905C1867.32 292.044 1862.2 296.715 1858.53 302.45L1495.94 870.244ZM2911.99 975.172L2549.4 1542.96C2545.21 1549.49 2539.38 1554.82 2532.49 1558.4C2525.6 1561.98 2517.89 1563.69 2510.13 1563.35L1837.11 1533.25C1829.35 1532.89 1821.83 1530.5 1815.28 1526.32C1808.74 1522.14 1803.41 1516.32 1799.82 1509.43L1489.38 911.537C1485.82 904.637 1484.13 896.922 1484.48 889.164C1484.83 881.406 1487.21 873.875 1491.38 867.324L1853.95 299.525C1858.14 292.987 1863.97 287.662 1870.86 284.083C1877.75 280.504 1885.46 278.795 1893.22 279.128L2566.24 309.247C2574 309.607 2581.52 311.996 2588.07 316.175C2594.61 320.354 2599.94 326.176 2603.53 333.061L2913.97 930.956C2917.54 937.855 2919.23 945.57 2918.88 953.329C2918.54 961.089 2916.16 968.621 2911.99 975.172Z" fill="url(#paint18_linear_0_3)" fill-opacity="0.25"/>
<path d="M1469.78 868.157C1465.99 874.116 1463.83 880.967 1463.51 888.025C1463.19 895.082 1464.73 902.1 1467.97 908.377L1789.74 1528.53C1793 1534.81 1797.86 1540.11 1803.82 1543.92C1809.78 1547.73 1816.64 1549.9 1823.7 1550.22L2521.65 1581.63C2528.7 1581.93 2535.72 1580.38 2541.99 1577.13C2548.26 1573.88 2553.56 1569.04 2557.38 1563.1L2933.57 974.336C2937.36 968.377 2939.53 961.527 2939.84 954.469C2940.16 947.412 2938.62 940.395 2935.37 934.12L2613.61 313.936C2610.35 307.671 2605.5 302.371 2599.55 298.568C2593.6 294.764 2586.75 292.589 2579.69 292.259L1881.71 260.865C1874.65 260.557 1867.64 262.107 1861.37 265.359C1855.1 268.611 1849.79 273.452 1845.98 279.398L1469.78 868.157ZM2938.32 977.368L2562.13 1566.12C2557.78 1572.9 2551.73 1578.42 2544.58 1582.12C2537.43 1585.83 2529.44 1587.6 2521.39 1587.25L1823.42 1555.84C1815.38 1555.47 1807.57 1552.99 1800.79 1548.65C1794 1544.32 1788.47 1538.28 1784.75 1531.13L1462.99 910.948C1459.29 903.795 1457.54 895.796 1457.9 887.752C1458.26 879.708 1460.73 871.899 1465.06 865.107L1841.23 276.372C1845.57 269.594 1851.62 264.075 1858.77 260.368C1865.92 256.66 1873.91 254.894 1881.96 255.244L2579.93 286.656C2587.97 287.031 2595.77 289.51 2602.56 293.846C2609.35 298.182 2614.87 304.223 2618.59 311.364L2940.35 931.548C2944.05 938.697 2945.81 946.69 2945.45 954.73C2945.09 962.77 2942.63 970.576 2938.32 977.368Z" fill="url(#paint19_linear_0_3)" fill-opacity="0.25"/>
<path d="M1443.62 866.073C1439.69 872.244 1437.45 879.339 1437.12 886.649C1436.79 893.958 1438.38 901.226 1441.74 907.727L1774.86 1550.15C1778.24 1556.64 1783.27 1562.13 1789.43 1566.07C1795.6 1570.01 1802.69 1572.27 1810 1572.61L2532.93 1605.32C2540.24 1605.64 2547.51 1604.03 2554.01 1600.67C2560.5 1597.3 2566 1592.28 2569.95 1586.12L2959.73 976.413C2963.66 970.243 2965.91 963.148 2966.24 955.839C2966.57 948.529 2964.97 941.261 2961.61 934.761L2628.48 292.339C2625.11 285.847 2620.08 280.356 2613.92 276.414C2607.75 272.472 2600.66 270.217 2593.35 269.874L1870.42 237.168C1863.11 236.851 1855.84 238.459 1849.35 241.83C1842.85 245.201 1837.36 250.217 1833.41 256.378L1443.62 866.073ZM2964.63 979.557L2574.85 1589.27C2570.34 1596.29 2564.07 1602 2556.67 1605.83C2549.27 1609.67 2540.99 1611.5 2532.66 1611.14L1809.73 1578.43C1801.4 1578.04 1793.31 1575.47 1786.28 1570.97C1779.26 1566.48 1773.53 1560.22 1769.68 1552.82L1436.55 910.4C1432.73 902.989 1430.91 894.703 1431.29 886.371C1431.66 878.039 1434.22 869.951 1438.7 862.915L1828.53 253.226C1833.03 246.211 1839.3 240.501 1846.71 236.666C1854.11 232.83 1862.39 231.003 1870.72 231.367L2593.65 264.074C2601.98 264.465 2610.07 267.036 2617.09 271.528C2624.12 276.021 2629.85 282.278 2633.7 289.675L2966.83 932.097C2970.65 939.509 2972.45 947.793 2972.07 956.121C2971.69 964.45 2969.13 972.533 2964.64 979.563L2964.63 979.557Z" fill="url(#paint20_linear_0_3)" fill-opacity="0.25"/>
<path d="M1417.46 864.002C1413.39 870.386 1411.07 877.726 1410.72 885.288C1410.38 892.85 1412.02 900.37 1415.5 907.097L1759.99 1571.74C1763.48 1578.45 1768.67 1584.13 1775.04 1588.2C1781.41 1592.28 1788.74 1594.62 1796.3 1594.98L2544.19 1629.02C2551.76 1629.36 2559.27 1627.7 2565.99 1624.21C2572.72 1620.73 2578.4 1615.54 2582.49 1609.17L2985.89 978.506C2989.95 972.124 2992.28 964.785 2992.62 957.224C2992.97 949.663 2991.32 942.144 2987.85 935.418L2643.37 270.729C2639.88 264.014 2634.68 258.333 2628.3 254.254C2621.93 250.175 2614.59 247.841 2607.03 247.484L1859.16 213.469C1851.6 213.137 1844.08 214.796 1837.36 218.279C1830.64 221.762 1824.95 226.948 1820.86 233.319L1417.46 864.002ZM2990.96 981.773L2587.57 1612.42C2582.91 1619.69 2576.43 1625.6 2568.76 1629.58C2561.1 1633.55 2552.53 1635.45 2543.91 1635.07L1796.04 1601.04C1787.42 1600.63 1779.06 1597.97 1771.8 1593.32C1764.53 1588.67 1758.61 1582.2 1754.62 1574.54L1410.15 909.855C1406.19 902.188 1404.31 893.617 1404.7 884.997C1405.09 876.377 1407.74 868.011 1412.38 860.735L1815.77 230.091C1820.43 222.828 1826.91 216.916 1834.57 212.944C1842.24 208.973 1850.81 207.082 1859.43 207.461L2607.3 241.481C2615.92 241.885 2624.28 244.545 2631.55 249.195C2638.82 253.844 2644.74 260.321 2648.72 267.977L2993.18 932.63C2997.15 940.297 2999.03 948.868 2998.64 957.489C2998.25 966.11 2995.6 974.478 2990.97 981.756L2990.96 981.773Z" fill="url(#paint21_linear_0_3)" fill-opacity="0.25"/>
<path d="M1391.3 861.898C1387.1 868.493 1384.7 876.077 1384.34 883.891C1383.98 891.706 1385.68 899.477 1389.27 906.428L1745.1 1593.38C1748.71 1600.32 1754.08 1606.19 1760.66 1610.41C1767.25 1614.62 1774.83 1617.04 1782.65 1617.41L2555.46 1652.72C2563.28 1653.07 2571.04 1651.36 2577.99 1647.76C2584.93 1644.17 2590.82 1638.81 2595.04 1632.23L3012.04 980.604C3016.25 974.009 3018.65 966.425 3019.01 958.611C3019.36 950.797 3017.66 943.025 3014.08 936.074L2658.25 249.131C2654.65 242.193 2649.29 236.322 2642.7 232.105C2636.12 227.888 2628.54 225.471 2620.73 225.096L1847.88 189.771C1840.07 189.427 1832.3 191.14 1825.36 194.737C1818.41 198.335 1812.53 203.691 1808.3 210.272L1391.3 861.898ZM3017.3 983.951L2600.3 1635.58C2595.48 1643.08 2588.78 1649.19 2580.86 1653.29C2572.94 1657.39 2564.09 1659.34 2555.18 1658.95L1782.35 1623.63C1773.45 1623.21 1764.81 1620.46 1757.3 1615.65C1749.79 1610.85 1743.67 1604.16 1739.56 1596.25L1383.73 909.301C1379.64 901.377 1377.7 892.519 1378.11 883.611C1378.52 874.704 1381.26 866.059 1386.05 858.542L1803.05 206.913C1807.87 199.411 1814.57 193.304 1822.49 189.202C1830.41 185.101 1839.26 183.149 1848.17 183.541L2621.01 218.865C2629.92 219.288 2638.56 222.041 2646.07 226.848C2653.58 231.655 2659.7 238.349 2663.82 246.26L3019.64 933.203C3023.72 941.127 3025.66 949.984 3025.25 958.889C3024.84 967.795 3022.1 976.437 3017.3 983.951Z" fill="url(#paint22_linear_0_3)" fill-opacity="0.25"/>
<path d="M1365.14 859.816C1360.8 866.624 1358.32 874.452 1357.95 882.519C1357.58 890.585 1359.34 898.607 1363.04 905.784L1730.21 1614.99C1733.93 1622.15 1739.47 1628.22 1746.27 1632.57C1753.07 1636.92 1760.9 1639.42 1768.96 1639.8L2566.74 1676.42C2574.8 1676.77 2582.82 1675.01 2590 1671.3C2597.17 1667.59 2603.24 1662.06 2607.61 1655.26L3038.21 982.677C3042.55 975.869 3045.03 968.041 3045.4 959.975C3045.77 951.908 3044.02 943.886 3040.32 936.709L2673.14 227.503C2669.42 220.337 2663.88 214.274 2657.08 209.92C2650.28 205.566 2642.45 203.073 2634.39 202.691L1836.61 166.068C1828.54 165.709 1820.52 167.474 1813.35 171.188C1806.18 174.901 1800.11 180.432 1795.74 187.228L1365.14 859.816ZM3043.63 986.152L2613.03 1658.73C2608.05 1666.48 2601.13 1672.78 2592.95 1677.01C2584.78 1681.24 2575.64 1683.26 2566.44 1682.85L1768.67 1646.23C1759.47 1645.79 1750.56 1642.95 1742.8 1637.99C1735.05 1633.02 1728.74 1626.11 1724.49 1617.95L1357.32 908.742C1353.1 900.56 1351.1 891.415 1351.52 882.22C1351.95 873.024 1354.77 864.101 1359.73 856.341L1790.33 183.76C1795.3 176.016 1802.22 169.712 1810.4 165.481C1818.57 161.249 1827.71 159.236 1836.91 159.644L2634.68 196.262C2643.87 196.7 2652.79 199.542 2660.54 204.505C2668.29 209.467 2674.61 216.377 2678.86 224.543L3046.03 933.747C3050.25 941.929 3052.25 951.074 3051.82 960.27C3051.4 969.466 3048.58 978.391 3043.63 986.152Z" fill="url(#paint23_linear_0_3)" fill-opacity="0.25"/>
</g>
<g clip-path="url(#clip2_0_3)">
<path d="M-218.932 182.606C-219.592 183.361 -220.043 184.276 -220.239 185.259C-220.436 186.242 -220.371 187.259 -220.052 188.21L-188.218 282.093C-187.894 283.042 -187.327 283.889 -186.573 284.55C-185.819 285.212 -184.905 285.664 -183.922 285.862L-86.6998 305.235C-85.7159 305.427 -84.699 305.359 -83.7497 305.037C-82.8005 304.714 -81.9521 304.15 -81.2885 303.398L-15.9001 228.889C-15.2407 228.134 -14.7911 227.22 -14.5958 226.237C-14.4006 225.254 -14.4667 224.237 -14.7876 223.287L-46.6217 129.404C-46.9434 128.455 -47.5093 127.608 -48.2625 126.946C-49.0157 126.285 -49.9297 125.834 -50.9126 125.638L-148.135 106.265C-149.118 106.069 -150.135 106.134 -151.085 106.456C-152.034 106.778 -152.882 107.344 -153.543 108.097L-218.932 182.606ZM-15.3038 229.414L-80.6872 303.927C-81.4386 304.783 -82.4009 305.428 -83.4787 305.798C-84.5565 306.167 -85.7122 306.248 -86.831 306.033L-184.053 286.659C-185.176 286.435 -186.22 285.92 -187.08 285.165C-187.94 284.41 -188.587 283.442 -188.956 282.359L-220.79 188.476C-221.156 187.393 -221.231 186.232 -221.008 185.111C-220.784 183.99 -220.271 182.947 -219.518 182.087L-154.13 107.577C-153.375 106.72 -152.407 106.076 -151.325 105.71C-150.243 105.344 -149.084 105.268 -147.964 105.491L-50.7432 124.856C-49.6213 125.082 -48.5781 125.598 -47.7179 126.352C-46.8577 127.107 -46.2106 128.074 -45.841 129.157L-14.0069 223.04C-13.6471 224.123 -13.5774 225.282 -13.805 226.4C-14.0326 227.519 -14.5494 228.558 -15.3038 229.414Z" fill="url(#paint24_linear_0_3)" fill-opacity="0.4"/>
<path d="M-244.192 175.495C-245.027 176.431 -245.602 177.569 -245.859 178.796C-246.117 180.024 -246.048 181.297 -245.659 182.489L-206.995 300.417C-206.602 301.604 -205.906 302.669 -204.975 303.504C-204.044 304.339 -202.911 304.917 -201.688 305.179L-80.2336 330.654C-79.005 330.911 -77.7305 330.84 -76.5377 330.45C-75.3449 330.059 -74.2756 329.362 -73.4366 328.429L9.35154 236.015C10.1874 235.079 10.763 233.94 11.0209 232.712C11.2789 231.484 11.21 230.209 10.8214 229.016L-27.8427 111.088C-28.2359 109.901 -28.9328 108.837 -29.8643 108.003C-30.7958 107.168 -31.9293 106.592 -33.1525 106.331L-154.601 80.8459C-155.829 80.5901 -157.103 80.6613 -158.295 81.0524C-159.487 81.4435 -160.555 82.1407 -161.393 83.0744L-244.192 175.495ZM10.1015 236.67L-72.6932 329.106C-73.6494 330.169 -74.8676 330.963 -76.2262 331.408C-77.5848 331.854 -79.0363 331.935 -80.4363 331.645L-201.885 306.16C-203.285 305.864 -204.582 305.206 -205.647 304.252C-206.713 303.297 -207.509 302.08 -207.956 300.721L-246.62 182.794C-247.064 181.434 -247.143 179.982 -246.85 178.582C-246.556 177.182 -245.901 175.884 -244.949 174.816L-162.154 82.3801C-161.196 81.3173 -159.977 80.524 -158.618 80.0791C-157.258 79.6342 -155.806 79.5532 -154.406 79.8442L-32.9569 105.329C-31.558 105.627 -30.2615 106.285 -29.1963 107.239C-28.1311 108.194 -27.3344 109.41 -26.8857 110.768L11.7784 228.695C12.2208 230.055 12.2987 231.507 12.0045 232.907C11.7102 234.306 11.0541 235.604 10.1015 236.67Z" fill="url(#paint25_linear_0_3)" fill-opacity="0.4"/>
<path d="M-269.447 168.373C-270.458 169.49 -271.159 170.853 -271.479 172.326C-271.799 173.799 -271.727 175.33 -271.271 176.766L-225.794 318.721C-225.333 320.157 -224.502 321.445 -223.386 322.459C-222.269 323.472 -220.906 324.174 -219.433 324.495L-73.7581 356.092C-72.2852 356.409 -70.7549 356.335 -69.3199 355.875C-67.8849 355.416 -66.5955 354.589 -65.5805 353.475L34.6205 243.112C35.6314 241.995 36.3311 240.632 36.6499 239.159C36.9687 237.687 36.8953 236.156 36.437 234.721L-9.0319 92.764C-9.49342 91.3286 -10.3239 90.0398 -11.4403 89.0264C-12.5567 88.0131 -13.9198 87.3109 -15.393 86.99L-161.068 55.3932C-162.541 55.0746 -164.072 55.1486 -165.507 55.6079C-166.942 56.0672 -168.231 56.8955 -169.246 58.0099L-269.447 168.373ZM35.5098 243.921L-64.6913 354.284C-65.8489 355.552 -67.3189 356.495 -68.9546 357.019C-70.5903 357.542 -72.3345 357.628 -74.0136 357.267L-219.691 325.675C-221.37 325.308 -222.923 324.507 -224.196 323.352C-225.468 322.197 -226.415 320.728 -226.942 319.092L-272.419 177.137C-272.937 175.504 -273.019 173.763 -272.656 172.088C-272.293 170.413 -271.498 168.862 -270.35 167.59L-170.132 57.1961C-168.975 55.9257 -167.505 54.9812 -165.868 54.4568C-164.232 53.9325 -162.487 53.8467 -160.807 54.208L-15.1317 85.8048C-13.4529 86.1718 -11.8998 86.9728 -10.6275 88.128C-9.35519 89.2831 -8.40829 90.7519 -7.88139 92.3876L37.5905 234.34C38.1134 235.98 38.1962 237.729 37.8305 239.411C37.4649 241.094 36.6635 242.651 35.5069 243.926L35.5098 243.921Z" fill="url(#paint26_linear_0_3)" fill-opacity="0.4"/>
<path d="M-294.712 161.259C-295.899 162.558 -296.724 164.146 -297.105 165.865C-297.485 167.583 -297.408 169.371 -296.881 171.051L-244.592 337.046C-244.06 338.724 -243.097 340.233 -241.799 341.421C-240.502 342.61 -238.914 343.437 -237.197 343.82L-67.3056 381.523C-65.5877 381.903 -63.8 381.825 -62.1218 381.296C-60.4437 380.767 -58.9341 379.806 -57.7444 378.51L59.865 250.228C61.0524 248.929 61.8781 247.341 62.2596 245.624C62.6411 243.906 62.565 242.118 62.0389 240.439L9.75508 74.4458C9.22524 72.7682 8.26397 71.2593 6.96749 70.0701C5.67102 68.8809 4.08488 68.0532 2.36788 67.6699L-167.533 29.9613C-169.252 29.5818 -171.04 29.6601 -172.719 30.1883C-174.397 30.7166 -175.908 31.6763 -177.1 32.9715L-294.712 161.259ZM60.9021 251.176L-56.7123 379.455C-58.0712 380.931 -59.7935 382.026 -61.7074 382.629C-63.6212 383.232 -65.6597 383.323 -67.6197 382.892L-237.518 345.179C-239.476 344.743 -241.285 343.8 -242.764 342.444C-244.242 341.088 -245.338 339.368 -245.942 337.455L-298.234 171.464C-298.835 169.55 -298.922 167.512 -298.488 165.554C-298.054 163.595 -297.113 161.785 -295.759 160.305L-178.15 32.0228C-176.794 30.5446 -175.073 29.4491 -173.16 28.8461C-171.247 28.2431 -169.209 28.1538 -167.25 28.5873L2.65733 66.3197C4.61487 66.7568 6.42333 67.7003 7.90175 69.0558C9.38017 70.4113 10.4767 72.1312 11.0817 74.0436L63.3973 240.028C63.9939 241.942 64.0784 243.979 63.6424 245.936C63.2063 247.893 62.265 249.702 60.9122 251.181L60.9021 251.176Z" fill="url(#paint27_linear_0_3)" fill-opacity="0.4"/>
<path d="M-319.972 154.147C-321.334 155.628 -322.284 157.44 -322.726 159.403C-323.169 161.366 -323.09 163.41 -322.496 165.332L-263.384 355.362C-262.782 357.282 -261.687 359.011 -260.209 360.375C-258.73 361.74 -256.92 362.694 -254.958 363.14L-60.8388 406.976C-58.8753 407.418 -56.83 407.336 -54.9081 406.738C-52.9862 406.14 -51.2553 405.047 -49.8891 403.569L85.1237 257.365C86.4874 255.884 87.4385 254.071 87.8818 252.108C88.3251 250.144 88.2452 248.098 87.6501 246.175L28.5722 56.1452C27.971 54.2248 26.8764 52.4956 25.3978 51.1306C23.9191 49.7656 22.1083 48.8125 20.146 48.3665L-173.981 4.5462C-175.945 4.10702 -177.99 4.19044 -179.911 4.78816C-181.832 5.38588 -183.563 6.477 -184.931 7.95263L-319.972 154.147ZM86.298 258.46L-48.7127 404.671C-50.273 406.354 -52.247 407.597 -54.438 408.278C-56.6289 408.96 -58.9602 409.054 -61.1993 408.553L-255.327 364.733C-257.563 364.219 -259.625 363.127 -261.308 361.566C-262.99 360.006 -264.234 358.031 -264.916 355.84L-324.027 165.811C-324.704 163.619 -324.795 161.288 -324.29 159.05C-323.785 156.813 -322.702 154.747 -321.149 153.058L-186.134 6.84892C-184.575 5.16611 -182.602 3.92166 -180.412 3.23993C-178.221 2.55821 -175.891 2.46307 -173.652 2.96393L20.4725 46.7893C22.7095 47.3022 24.7726 48.3935 26.4555 49.9542C28.1383 51.5149 29.3817 53.4901 30.0614 55.6823L89.1782 245.715C89.8587 247.9 89.954 250.226 89.4547 252.46C88.9554 254.694 87.8789 256.758 86.3327 258.446L86.298 258.46Z" fill="url(#paint28_linear_0_3)" fill-opacity="0.4"/>
<path d="M-345.23 147.031C-346.768 148.692 -347.844 150.729 -348.348 152.937C-348.852 155.145 -348.767 157.447 -348.103 159.612L-282.171 373.68C-281.506 375.846 -280.284 377.801 -278.627 379.347C-276.97 380.892 -274.936 381.976 -272.728 382.488L-54.3748 432.387C-52.167 432.888 -49.8662 432.801 -47.7024 432.135C-45.5386 431.468 -43.5877 430.246 -42.0444 428.589L110.388 264.459C111.927 262.798 113.003 260.762 113.508 258.554C114.013 256.347 113.929 254.046 113.266 251.881L47.334 37.8126C46.6635 35.6493 45.4372 33.6997 43.7777 32.1584C42.1182 30.6171 40.0834 29.5381 37.8765 29.029L-180.477 -20.9031C-182.686 -21.4039 -184.987 -21.317 -187.151 -20.6512C-189.315 -19.9854 -191.268 -18.7638 -192.813 -17.1083L-345.23 147.031ZM111.698 265.678L-40.7243 429.814C-42.4845 431.703 -44.7094 433.097 -47.1767 433.856C-49.644 434.616 -52.2675 434.715 -54.7851 434.144L-273.139 384.212C-275.655 383.632 -277.974 382.402 -279.866 380.645C-281.758 378.888 -283.156 376.666 -283.921 374.2L-349.853 160.132C-350.608 157.663 -350.702 155.04 -350.127 152.524C-349.552 150.008 -348.327 147.686 -346.575 145.791L-194.148 -18.3424C-192.389 -20.2321 -190.166 -21.6268 -187.699 -22.3871C-185.232 -23.1474 -182.609 -23.2466 -180.092 -22.6747L38.2666 27.2602C40.7822 27.8397 43.1015 29.0697 44.9924 30.8271C46.8833 32.5845 48.2795 34.8077 49.0413 37.2743L114.993 251.354C115.745 253.821 115.837 256.443 115.258 258.956C114.68 261.47 113.452 263.788 111.698 265.678Z" fill="url(#paint29_linear_0_3)" fill-opacity="0.4"/>
<path d="M-370.487 139.914C-372.201 141.758 -373.402 144.019 -373.969 146.472C-374.536 148.925 -374.449 151.484 -373.717 153.893L-300.953 392.001C-300.215 394.403 -298.86 396.571 -297.023 398.286C-295.186 400.002 -292.932 401.205 -290.484 401.777L-47.9044 457.821C-45.4543 458.384 -42.8997 458.295 -40.4947 457.563C-38.0898 456.831 -35.9185 455.482 -34.197 453.65L135.633 271.596C137.346 269.75 138.546 267.488 139.112 265.035C139.677 262.581 139.59 260.022 138.859 257.613L66.1093 19.5146C65.37 17.1128 64.0145 14.9464 62.1779 13.2311C60.3413 11.5158 58.0875 10.3115 55.6408 9.73779L-186.944 -46.3089C-189.394 -46.8715 -191.949 -46.7825 -194.354 -46.0507C-196.759 -45.319 -198.93 -43.9699 -200.652 -42.138L-370.487 139.914ZM137.12 272.951L-32.7102 455.006C-34.6696 457.101 -37.1452 458.646 -39.8891 459.484C-42.633 460.322 -45.549 460.425 -48.3451 459.782L-290.929 403.71C-293.724 403.059 -296.3 401.686 -298.399 399.729C-300.498 397.771 -302.046 395.297 -302.89 392.554L-375.637 154.45C-376.473 151.705 -376.573 148.789 -375.927 145.994C-375.282 143.198 -373.913 140.621 -371.958 138.52L-202.13 -43.5423C-200.168 -45.6356 -197.691 -47.1779 -194.947 -48.0155C-192.203 -48.8531 -189.287 -48.9568 -186.49 -48.3161L56.0897 7.72766C58.8838 8.37908 61.4582 9.75171 63.5562 11.7087C65.6542 13.6657 67.2024 16.1385 68.0463 18.8806L140.801 257.016C141.634 259.762 141.733 262.679 141.087 265.475C140.441 268.271 139.073 270.848 137.12 272.951Z" fill="url(#paint30_linear_0_3)" fill-opacity="0.4"/>
<path d="M-395.747 132.802C-397.641 134.828 -398.969 137.315 -399.598 140.016C-400.227 142.716 -400.136 145.534 -399.333 148.188L-319.758 410.315C-318.949 412.964 -317.46 415.355 -315.437 417.248C-313.415 419.141 -310.932 420.471 -308.235 421.103L-41.4441 483.25C-38.7455 483.875 -35.9302 483.779 -33.2799 482.974C-30.6296 482.169 -28.237 480.683 -26.3415 478.663L160.892 278.686C162.785 276.66 164.112 274.173 164.741 271.473C165.371 268.773 165.28 265.955 164.478 263.301L84.8977 1.17055C84.0901 -1.47933 82.6008 -3.87061 80.5786 -5.76394C78.5564 -7.65727 76.0723 -8.98622 73.3751 -9.61776L-193.428 -71.7783C-196.127 -72.4027 -198.942 -72.3076 -201.592 -71.5026C-204.243 -70.6976 -206.635 -69.2108 -208.531 -67.191L-395.747 132.802ZM162.525 280.207L-24.717 480.198C-26.8776 482.501 -29.6052 484.196 -32.6268 485.113C-35.6484 486.031 -38.858 486.138 -41.9341 485.425L-308.732 423.254C-311.806 422.536 -314.639 421.024 -316.945 418.867C-319.251 416.711 -320.951 413.987 -321.873 410.967L-401.479 148.822C-402.395 145.799 -402.5 142.588 -401.784 139.511C-401.068 136.434 -399.556 133.6 -397.399 131.291L-210.166 -68.6854C-208.005 -70.9883 -205.277 -72.6833 -202.256 -73.6005C-199.234 -74.5177 -196.025 -74.625 -192.949 -73.9116L73.8577 -11.7561C76.9324 -11.0385 79.7647 -9.52581 82.071 -7.36947C84.3773 -5.21312 86.0767 -2.4888 86.9992 0.530824L166.605 262.675C167.517 265.699 167.621 268.909 166.905 271.985C166.189 275.062 164.679 277.896 162.525 280.207Z" fill="url(#paint31_linear_0_3)" fill-opacity="0.4"/>
<path d="M-421.005 125.686C-423.071 127.892 -424.521 130.602 -425.212 133.544C-425.902 136.487 -425.808 139.559 -424.939 142.454L-338.561 428.65C-337.683 431.543 -336.06 434.155 -333.857 436.225C-331.653 438.295 -328.945 439.75 -326.003 440.446L-34.9702 508.714C-32.0268 509.4 -28.9549 509.301 -26.0615 508.428C-23.1681 507.555 -20.5546 505.938 -18.482 503.738L186.161 285.83C188.227 283.623 189.678 280.913 190.368 277.971C191.059 275.028 190.965 271.956 190.095 269.061L103.713 -17.138C102.834 -20.0299 101.212 -22.6406 99.0088 -24.7092C96.8053 -26.7779 94.0975 -28.2319 91.156 -28.9262L-199.874 -97.1985C-202.818 -97.8845 -205.891 -97.7855 -208.785 -96.9114C-211.679 -96.0374 -214.292 -94.4189 -216.365 -92.2179L-421.005 125.686ZM187.926 287.459L-16.7144 505.363C-19.0763 507.871 -22.055 509.716 -25.353 510.712C-28.6511 511.709 -32.1528 511.822 -35.5085 511.042L-326.543 442.766C-329.896 441.975 -332.982 440.318 -335.493 437.959C-338.005 435.601 -339.853 432.625 -340.853 429.328L-427.236 143.129C-428.225 139.829 -428.331 136.327 -427.544 132.973C-426.757 129.618 -425.105 126.529 -422.751 124.013L-218.111 -93.8909C-215.747 -96.398 -212.768 -98.2415 -209.469 -99.2374C-206.17 -100.233 -202.668 -100.347 -199.312 -99.5665L91.7175 -31.2942C95.0711 -30.5025 98.1582 -28.8445 100.67 -26.4858C103.182 -24.1271 105.031 -21.1504 106.032 -17.8532L192.41 268.343C193.401 271.643 193.509 275.145 192.722 278.5C191.935 281.855 190.281 284.944 187.926 287.459Z" fill="url(#paint32_linear_0_3)" fill-opacity="0.4"/>
<path d="M-446.262 118.569C-448.505 120.957 -450.081 123.891 -450.835 127.079C-451.588 130.267 -451.491 133.597 -450.554 136.736L-357.337 446.948C-356.39 450.084 -354.637 452.916 -352.252 455.161C-349.868 457.406 -346.936 458.985 -343.749 459.741L-28.5133 534.114C-25.3248 534.86 -21.9963 534.757 -18.8601 533.814C-15.724 532.872 -12.8902 531.123 -10.6415 528.742L211.437 292.937C213.679 290.549 215.255 287.615 216.007 284.427C216.758 281.239 216.66 277.91 215.721 274.772L122.512 -35.4424C121.565 -38.5777 119.812 -41.4096 117.427 -43.6546C115.043 -45.8997 112.111 -47.4793 108.924 -48.2354L-206.344 -122.633C-209.533 -123.38 -212.861 -123.277 -215.997 -122.334C-219.134 -121.392 -221.968 -119.642 -224.216 -117.261L-446.262 118.569ZM213.337 294.705L-8.7095 530.535C-11.2739 533.249 -14.5055 535.243 -18.0815 536.317C-21.6575 537.391 -25.4527 537.507 -29.0879 536.656L-344.352 462.287C-347.985 461.424 -351.327 459.622 -354.045 457.063C-356.762 454.503 -358.76 451.274 -359.838 447.7L-453.051 137.49C-454.12 133.912 -454.231 130.116 -453.373 126.482C-452.516 122.848 -450.719 119.502 -448.163 116.78L-226.112 -119.048C-223.549 -121.76 -220.32 -123.752 -216.746 -124.826C-213.173 -125.9 -209.38 -126.018 -205.746 -125.168L109.509 -50.7844C113.142 -49.9209 116.485 -48.1196 119.203 -45.5603C121.922 -43.001 123.922 -39.7733 125.003 -36.1994L218.21 274.02C219.276 277.593 219.387 281.383 218.532 285.013C217.677 288.642 215.886 291.984 213.337 294.705Z" fill="url(#paint33_linear_0_3)" fill-opacity="0.4"/>
<path d="M-471.522 111.458C-473.941 114.025 -475.643 117.184 -476.457 120.616C-477.271 124.049 -477.169 127.635 -476.161 131.016L-376.158 465.28C-375.144 468.659 -373.26 471.713 -370.696 474.136C-368.132 476.559 -364.976 478.267 -361.545 479.088L-22.0697 559.607C-18.6355 560.414 -15.0496 560.307 -11.67 559.295C-8.29034 558.283 -5.23515 556.403 -2.80933 553.842L236.64 300.089C239.057 297.519 240.758 294.36 241.573 290.927C242.387 287.495 242.287 283.908 241.282 280.526L141.25 -53.7217C140.234 -57.1014 138.35 -60.1555 135.785 -62.579C133.219 -65.0025 130.063 -66.7106 126.631 -67.5326L-212.818 -148.05C-216.252 -148.858 -219.838 -148.751 -223.218 -147.74C-226.598 -146.728 -229.653 -144.847 -232.078 -142.285L-471.522 111.458ZM238.731 301.981L-0.711162 555.731C-3.47049 558.651 -6.94788 560.796 -10.7958 561.951C-14.6436 563.106 -18.7273 563.231 -22.6385 562.313L-362.159 481.802C-366.07 480.868 -369.668 478.923 -372.592 476.162C-375.517 473.402 -377.665 469.922 -378.824 466.071L-478.856 131.823C-480.003 127.968 -480.119 123.88 -479.191 119.967C-478.263 116.054 -476.324 112.453 -473.568 109.524L-234.116 -144.233C-231.35 -147.152 -227.868 -149.294 -224.016 -150.447C-220.164 -151.599 -216.077 -151.721 -212.163 -150.8L127.312 -70.2816C131.223 -69.3455 134.82 -67.4002 137.744 -64.6399C140.668 -61.8796 142.817 -58.4008 143.977 -54.5505L244.009 279.698C245.155 283.549 245.27 287.634 244.344 291.544C243.417 295.454 241.482 299.053 238.731 301.981Z" fill="url(#paint34_linear_0_3)" fill-opacity="0.4"/>
<path d="M-496.785 104.338C-499.377 107.09 -501.203 110.473 -502.078 114.151C-502.954 117.829 -502.85 121.672 -501.776 125.297L-394.924 483.584C-393.836 487.199 -391.82 490.466 -389.078 493.06C-386.335 495.654 -382.961 497.485 -379.291 498.37L-15.5825 584.977C-11.9036 585.848 -8.06072 585.737 -4.43778 584.657C-0.814843 583.578 2.46134 581.566 5.06356 578.824L261.948 307.154C264.541 304.404 266.366 301.021 267.242 297.344C268.117 293.666 268.012 289.824 266.936 286.2L160.086 -72.0916C159 -75.7075 156.985 -78.9754 154.242 -81.5698C151.499 -84.1642 148.124 -85.9943 144.454 -86.8777L-219.275 -173.497C-222.955 -174.367 -226.798 -174.256 -230.422 -173.175C-234.045 -172.095 -237.322 -170.082 -239.924 -167.338L-496.785 104.338ZM264.137 309.224L7.25254 580.893C4.28802 584.019 0.555516 586.312 -3.57239 587.545C-7.70029 588.777 -12.0792 588.905 -16.2721 587.916L-379.965 501.317C-384.156 500.312 -388.01 498.226 -391.141 495.265C-394.273 492.305 -396.573 488.575 -397.812 484.447L-504.646 126.164C-505.871 122.033 -505.99 117.653 -504.992 113.461C-503.994 109.27 -501.914 105.413 -498.959 102.277L-242.075 -169.392C-239.111 -172.519 -235.379 -174.812 -231.251 -176.044C-227.123 -177.275 -222.745 -177.402 -218.553 -176.41L145.163 -89.8047C149.354 -88.7985 153.207 -86.7106 156.338 -83.7494C159.469 -80.7882 161.769 -77.0574 163.007 -72.9296L269.854 285.354C271.073 289.485 271.187 293.864 270.183 298.053C269.18 302.241 267.095 306.093 264.137 309.224Z" fill="url(#paint35_linear_0_3)" fill-opacity="0.4"/>
<path d="M-522.042 97.2214C-524.81 100.155 -526.76 103.763 -527.697 107.686C-528.634 111.609 -528.526 115.709 -527.382 119.577L-413.715 501.899C-412.556 505.762 -410.404 509.252 -407.474 512.023C-404.544 514.794 -400.939 516.748 -397.017 517.689L-9.083 610.409C-5.159 611.341 -1.05902 611.227 2.80695 610.077C6.67292 608.928 10.1694 606.784 12.9466 603.859L287.214 314.256C289.984 311.324 291.935 307.716 292.873 303.794C293.811 299.871 293.703 295.771 292.559 291.903L178.884 -90.4168C177.729 -94.2805 175.581 -97.7734 172.653 -100.546C169.725 -103.32 166.121 -105.276 162.2 -106.219L-225.739 -198.942C-229.663 -199.873 -233.763 -199.758 -237.629 -198.608C-241.494 -197.459 -244.991 -195.315 -247.769 -192.392L-522.042 97.2214ZM289.542 316.48L15.2748 606.083C12.1072 609.417 8.11967 611.861 3.71107 613.171C-0.697527 614.481 -5.37274 614.61 -9.84703 613.546L-397.786 520.824C-402.255 519.747 -406.363 517.518 -409.701 514.357C-413.039 511.197 -415.489 507.216 -416.808 502.813L-530.48 120.487C-531.778 116.083 -531.898 111.414 -530.83 106.948C-529.762 102.482 -527.541 98.3737 -524.391 95.0329L-250.123 -194.57C-246.955 -197.904 -242.968 -200.348 -238.559 -201.658C-234.151 -202.967 -229.476 -203.097 -225.001 -202.034L162.933 -109.314C167.403 -108.238 171.513 -106.007 174.851 -102.845C178.189 -99.6834 180.639 -95.7006 181.956 -91.2952L295.623 291.027C296.923 295.431 297.046 300.099 295.979 304.565C294.912 309.031 292.692 313.139 289.542 316.48Z" fill="url(#paint36_linear_0_3)" fill-opacity="0.4"/>
<path d="M-547.302 90.1098C-550.246 93.2243 -552.321 97.0565 -553.32 101.224C-554.32 105.391 -554.208 109.748 -552.997 113.858L-432.502 520.217C-431.279 524.324 -428.999 528.038 -425.89 530.988C-422.781 533.937 -418.953 536.019 -414.787 537.025L-2.62125 635.858C1.54789 636.851 5.90449 636.732 10.0132 635.513C14.1218 634.294 17.8386 632.018 20.7919 628.912L312.476 321.388C315.42 318.276 317.496 314.444 318.495 310.277C319.494 306.11 319.381 301.754 318.168 297.645L197.681 -108.716C196.457 -112.824 194.176 -116.539 191.066 -119.489C187.957 -122.439 184.127 -124.521 179.96 -125.527L-232.208 -224.368C-236.377 -225.36 -240.734 -225.241 -244.844 -224.023C-248.953 -222.805 -252.671 -220.53 -255.626 -217.425L-547.302 90.1098ZM314.945 323.74L23.2638 631.259C19.8928 634.801 15.6506 637.395 10.9618 638.781C6.27314 640.167 1.30252 640.297 -3.45234 639.159L-415.618 540.325C-420.367 539.179 -424.732 536.807 -428.277 533.446C-431.822 530.084 -434.422 525.851 -435.818 521.169L-556.27 114.829C-557.652 110.144 -557.779 105.178 -556.64 100.427C-555.501 95.6773 -553.135 91.3093 -549.779 87.76L-258.095 -219.764C-254.728 -223.304 -250.491 -225.898 -245.807 -227.287C-241.123 -228.676 -236.157 -228.81 -231.405 -227.678L180.756 -128.847C185.505 -127.701 189.87 -125.329 193.415 -121.968C196.96 -118.606 199.56 -114.373 200.956 -109.692L321.427 296.686C322.807 301.369 322.934 306.331 321.797 311.079C320.659 315.826 318.297 320.192 314.945 323.74Z" fill="url(#paint37_linear_0_3)" fill-opacity="0.4"/>
<path d="M-572.56 82.9932C-575.679 86.289 -577.879 90.3458 -578.94 94.7582C-580.001 99.1706 -579.885 103.784 -578.604 108.138L-451.297 538.537C-450.003 542.887 -447.589 546.822 -444.298 549.947C-441.007 553.072 -436.954 555.279 -432.543 556.348L3.85571 661.27C8.26965 662.324 12.8828 662.201 17.2344 660.914C21.586 659.627 25.5238 657.221 28.6545 653.936L337.74 328.482C340.859 325.186 343.059 321.129 344.12 316.717C345.181 312.304 345.065 307.691 343.784 303.337L216.474 -127.057C215.181 -131.408 212.768 -135.343 209.476 -138.468C206.185 -141.594 202.131 -143.8 197.72 -144.868L-238.684 -249.793C-243.098 -250.847 -247.711 -250.724 -252.063 -249.437C-256.414 -248.15 -260.352 -245.744 -263.483 -242.459L-572.56 82.9932ZM340.34 330.99L31.2577 656.439C27.6893 660.184 23.2008 662.928 18.2405 664.396C13.2802 665.864 8.02161 666.005 2.98969 664.805L-433.414 559.88C-438.441 558.66 -443.061 556.144 -446.812 552.581C-450.563 549.018 -453.314 544.534 -454.79 539.575L-582.1 109.181C-583.56 104.21 -583.688 98.9427 -582.473 93.9065C-581.257 88.8703 -578.74 84.2417 -575.173 80.4841L-266.096 -244.968C-262.527 -248.712 -258.038 -251.455 -253.077 -252.922C-248.116 -254.388 -242.857 -254.528 -237.826 -253.326L198.578 -148.4C203.605 -147.183 208.224 -144.668 211.975 -141.106C215.726 -137.545 218.476 -133.061 219.952 -128.104L347.259 302.295C348.724 307.265 348.857 312.533 347.644 317.57C346.432 322.607 343.916 327.237 340.35 330.996L340.34 330.99Z" fill="url(#paint38_linear_0_3)" fill-opacity="0.4"/>
<path d="M-597.807 75.8824C-601.099 79.3585 -603.421 83.637 -604.542 88.2909C-605.663 92.9448 -605.544 97.8114 -604.198 102.405L-470.089 556.853C-468.724 561.445 -466.178 565.598 -462.706 568.899C-459.233 572.199 -454.956 574.532 -450.301 575.663L10.3173 686.72C14.9738 687.834 19.841 687.708 24.4335 686.354C29.0261 685.001 33.1835 682.466 36.491 679.004L362.974 335.626C366.266 332.149 368.588 327.87 369.708 323.215C370.828 318.561 370.708 313.694 369.36 309.1L235.238 -145.335C233.874 -149.928 231.328 -154.082 227.856 -157.383C224.383 -160.684 220.105 -163.016 215.449 -164.145L-245.149 -275.225C-249.806 -276.342 -254.674 -276.217 -259.267 -274.863C-263.86 -273.509 -268.017 -270.974 -271.323 -267.509L-597.807 75.8824ZM365.76 338.255L39.2667 681.628C35.4965 685.579 30.7552 688.472 25.5167 690.018C20.2783 691.563 14.7259 691.707 9.41445 690.435L-451.199 579.381C-456.5 578.087 -461.371 575.428 -465.324 571.667C-469.278 567.906 -472.178 563.174 -473.734 557.944L-607.864 103.511C-609.401 98.2702 -609.535 92.718 -608.255 87.4088C-606.975 82.0996 -604.324 77.2193 -600.567 73.2551L-274.084 -270.124C-270.314 -274.075 -265.574 -276.967 -260.336 -278.513C-255.099 -280.059 -249.547 -280.205 -244.236 -278.934L216.379 -167.872C221.682 -166.583 226.554 -163.925 230.509 -160.165C234.464 -156.404 237.363 -151.672 238.917 -146.44L373.047 307.993C374.585 313.234 374.72 318.786 373.44 324.095C372.159 329.405 369.508 334.285 365.75 338.249L365.76 338.255Z" fill="url(#paint39_linear_0_3)" fill-opacity="0.4"/>
<path d="M-623.078 68.765C-626.549 72.4246 -628.999 76.932 -630.18 81.836C-631.362 86.74 -631.235 91.8684 -629.811 96.7076L-488.881 575.168C-487.449 580.004 -484.772 584.38 -481.119 587.857C-477.465 591.334 -472.963 593.791 -468.062 594.983L16.7798 712.157C21.6845 713.332 26.8119 713.201 31.6499 711.775C36.4878 710.35 40.8672 707.68 44.3508 704.033L388.245 342.73C391.715 339.069 394.162 334.561 395.344 329.658C396.526 324.755 396.4 319.627 394.979 314.787L254.029 -163.684C252.597 -168.515 249.923 -172.885 246.274 -176.36C242.626 -179.834 238.13 -182.291 233.235 -183.485L-251.615 -300.657C-256.519 -301.835 -261.646 -301.706 -266.484 -300.281C-271.322 -298.856 -275.701 -296.186 -279.183 -292.538L-623.078 68.765ZM391.158 345.499L47.2608 706.807C43.2903 710.965 38.2983 714.008 32.7835 715.632C27.2688 717.256 21.4244 717.404 15.8343 716.062L-469.005 598.896C-474.592 597.536 -479.725 594.734 -483.89 590.77C-488.055 586.805 -491.106 581.817 -492.74 576.304L-633.684 97.8349C-635.301 92.3176 -635.442 86.4725 -634.092 80.8839C-632.742 75.2953 -629.949 70.1588 -625.992 65.9877L-282.113 -295.324C-278.142 -299.48 -273.15 -302.522 -267.635 -304.146C-262.121 -305.77 -256.277 -305.92 -250.686 -304.579L234.173 -187.401C239.759 -186.041 244.89 -183.239 249.054 -179.275C253.218 -175.311 256.269 -170.324 257.903 -164.812L398.867 313.669C400.48 319.186 400.617 325.03 399.263 330.617C397.91 336.203 395.114 341.337 391.155 345.504L391.158 345.499Z" fill="url(#paint40_linear_0_3)" fill-opacity="0.4"/>
<path d="M-648.335 61.6484C-651.985 65.4867 -654.563 70.2166 -655.81 75.3644C-657.057 80.5122 -656.93 85.8973 -655.441 90.9805L-507.654 593.461C-506.155 598.541 -503.347 603.138 -499.512 606.792C-495.677 610.446 -490.95 613.028 -485.803 614.28L23.2597 737.563C28.41 738.802 33.7951 738.667 38.8769 737.172C43.9588 735.678 48.5594 732.876 52.2192 729.046L413.502 349.813C417.149 345.972 419.725 341.243 420.972 336.096C422.219 330.948 422.093 325.564 420.608 320.481L272.816 -182.002C271.317 -187.083 268.509 -191.68 264.674 -195.334C260.839 -198.988 256.112 -201.57 250.965 -202.822L-258.085 -326.091C-263.234 -327.332 -268.619 -327.199 -273.699 -325.704C-278.78 -324.21 -283.38 -321.407 -287.037 -317.576L-648.335 61.6484ZM416.576 352.769L55.2928 732.002C51.1212 736.367 45.8771 739.56 40.0846 741.263C34.2922 742.966 28.1542 743.119 22.2841 741.707L-486.817 618.408C-492.681 616.978 -498.068 614.034 -502.438 609.869C-506.808 605.705 -510.009 600.467 -511.72 594.678L-659.493 92.1727C-661.187 86.3777 -661.33 80.2396 -659.909 74.3719C-658.487 68.5041 -655.551 63.1122 -651.393 58.7349L-290.11 -320.498C-285.939 -324.863 -280.696 -328.056 -274.905 -329.76C-269.113 -331.463 -262.976 -331.617 -257.106 -330.206L251.964 -206.925C257.829 -205.493 263.216 -202.548 267.587 -198.383C271.957 -194.219 275.159 -188.98 276.873 -183.192L424.643 319.319C426.343 325.113 426.493 331.251 425.078 337.121C423.662 342.992 420.73 348.387 416.576 352.769Z" fill="url(#paint41_linear_0_3)" fill-opacity="0.4"/>
<path d="M-673.603 54.539C-677.424 58.5616 -680.124 63.5161 -681.432 68.908C-682.74 74.2999 -682.611 79.9406 -681.058 85.2672L-526.463 611.806C-524.891 617.13 -521.95 621.948 -517.932 625.778C-513.914 629.608 -508.961 632.316 -503.568 633.632L29.7259 763.029C35.1205 764.327 40.7612 764.188 46.0851 762.625C51.4089 761.061 56.2296 758.129 60.066 754.121L438.77 356.969C442.594 352.948 445.295 347.994 446.604 342.601C447.912 337.209 447.782 331.567 446.226 326.241L291.663 -200.285C290.093 -205.608 287.154 -210.425 283.138 -214.255C279.123 -218.085 274.172 -220.793 268.782 -222.11L-264.515 -351.503C-269.909 -352.803 -275.549 -352.665 -280.873 -351.102C-286.197 -349.54 -291.017 -346.608 -294.853 -342.599L-673.603 54.539ZM441.96 360.026L63.2568 757.164C58.8849 761.736 53.3897 765.08 47.3205 766.862C41.2513 768.645 34.8206 768.803 28.6711 767.321L-504.623 637.924C-510.767 636.422 -516.409 633.335 -520.986 628.97C-525.563 624.605 -528.915 619.115 -530.705 613.049L-685.295 86.5003C-687.065 80.4286 -687.212 73.9987 -685.72 67.8526C-684.229 61.7065 -681.151 56.0592 -676.795 51.4741L-298.094 -345.659C-293.723 -350.231 -288.229 -353.575 -282.16 -355.356C-276.091 -357.138 -269.66 -357.295 -263.512 -355.811L269.78 -226.421C275.925 -224.92 281.569 -221.833 286.147 -217.467C290.725 -213.102 294.077 -207.611 295.868 -201.544L450.455 324.997C452.226 331.067 452.374 337.495 450.884 343.639C449.395 349.784 446.32 355.431 441.966 360.016L441.96 360.026Z" fill="url(#paint42_linear_0_3)" fill-opacity="0.4"/>
<path d="M-698.863 47.4144C-702.861 51.6174 -705.687 56.7966 -707.057 62.4339C-708.426 68.0713 -708.292 73.9694 -706.668 79.5387L-545.255 630.121C-543.615 635.686 -540.543 640.723 -536.346 644.729C-532.149 648.734 -526.975 651.567 -521.339 652.946L36.184 788.45C41.8233 789.813 47.7216 789.672 53.289 788.04C58.8565 786.409 63.8982 783.344 67.91 779.153L463.995 364.06C467.994 359.857 470.82 354.678 472.189 349.041C473.559 343.404 473.425 337.505 471.8 331.936L310.393 -218.644C308.753 -224.21 305.68 -229.248 301.482 -233.254C297.285 -237.259 292.108 -240.093 286.472 -241.471L-271.016 -376.955C-276.655 -378.318 -282.554 -378.176 -288.121 -376.545C-293.689 -374.913 -298.73 -371.849 -302.742 -367.658L-698.863 47.4144ZM467.361 367.266L71.2759 782.359C66.7023 787.136 60.9553 790.628 54.6091 792.489C48.2629 794.349 41.5397 794.512 35.111 792.96L-522.429 657.439C-528.855 655.868 -534.756 652.639 -539.542 648.073C-544.329 643.507 -547.833 637.764 -549.704 631.42L-711.109 80.8351C-712.959 74.4868 -713.111 67.7642 -711.55 61.3387C-709.989 54.9131 -706.77 49.0095 -702.214 44.2176L-306.098 -370.858C-301.524 -375.634 -295.777 -379.127 -289.431 -380.988C-283.085 -382.848 -276.362 -383.011 -269.933 -381.459L287.582 -245.952C294.008 -244.381 299.909 -241.15 304.694 -236.583C309.48 -232.016 312.983 -226.273 314.854 -219.928L476.261 330.651C478.112 337 478.264 343.722 476.703 350.148C475.142 356.573 471.923 362.477 467.366 367.269L467.361 367.266Z" fill="url(#paint43_linear_0_3)" fill-opacity="0.4"/>
<path d="M-724.115 40.3007C-728.289 44.685 -731.239 50.0879 -732.671 55.9697C-734.103 61.8514 -733.966 68.0059 -732.274 73.8182L-564.047 648.436C-562.334 654.242 -559.128 659.497 -554.748 663.675C-550.368 667.853 -544.968 670.809 -539.088 672.246L42.6612 813.862C48.5465 815.289 54.7035 815.146 60.516 813.446C66.3284 811.746 71.5924 808.548 75.7808 804.174L489.3 371.177C493.475 366.794 496.427 361.391 497.859 355.509C499.291 349.627 499.153 343.472 497.459 337.66L329.232 -236.959C327.518 -242.764 324.311 -248.018 319.931 -252.196C315.552 -256.374 310.153 -259.329 304.273 -260.768L-277.486 -402.39C-283.372 -403.815 -289.528 -403.671 -295.34 -401.971C-301.153 -400.271 -306.416 -397.075 -310.606 -392.702L-724.115 40.3007ZM492.772 374.525L79.2498 807.527C74.4741 812.502 68.4776 816.137 61.8583 818.072C55.239 820.006 48.2283 820.171 41.5253 818.55L-540.239 676.959C-546.94 675.314 -553.094 671.94 -558.084 667.174C-563.075 662.408 -566.728 656.416 -568.679 649.797L-736.907 75.1787C-738.835 68.5528 -738.99 61.537 -737.358 54.8322C-735.725 48.1274 -732.362 41.9684 -727.604 36.9706L-314.082 -396.032C-309.308 -401.015 -303.31 -404.658 -296.688 -406.597C-290.065 -408.535 -283.05 -408.702 -276.343 -407.08L305.404 -265.459C312.107 -263.816 318.261 -260.442 323.252 -255.676C328.242 -250.91 331.895 -244.917 333.845 -238.297L502.075 336.317C504.003 342.942 504.159 349.958 502.526 356.663C500.894 363.368 497.53 369.527 492.772 374.525Z" fill="url(#paint44_linear_0_3)" fill-opacity="0.4"/>
<path d="M-749.372 33.184C-753.722 37.7512 -756.797 43.3795 -758.29 49.5069C-759.784 55.6343 -759.644 62.0464 -757.884 68.1027L-582.837 666.76C-581.056 672.803 -577.723 678.275 -573.168 682.629C-568.614 686.983 -562.998 690.067 -556.881 691.574L49.1201 839.317C55.2488 840.799 61.6591 840.648 67.7112 838.878C73.7633 837.109 79.2454 833.783 83.6102 829.232L514.54 378.311C518.89 373.744 521.965 368.115 523.458 361.988C524.952 355.861 524.812 349.449 523.052 343.392L348.019 -255.277C346.238 -261.321 342.905 -266.792 338.351 -271.146C333.796 -275.5 328.181 -278.584 322.063 -280.091L-283.952 -427.822C-290.081 -429.305 -296.492 -429.155 -302.545 -427.386C-308.598 -425.617 -314.081 -422.291 -318.447 -417.74L-749.372 33.184ZM518.174 381.785L87.2439 832.707C82.269 837.895 76.0196 841.688 69.1199 843.705C62.2202 845.721 54.912 845.892 47.9256 844.2L-558.05 696.472C-565.031 694.757 -571.439 691.24 -576.636 686.274C-581.833 681.307 -585.636 675.064 -587.665 668.168L-762.712 69.5113C-764.718 62.6078 -764.877 55.2987 -763.174 48.3144C-761.471 41.33 -757.965 34.9149 -753.006 29.7098L-322.084 -421.209C-317.109 -426.399 -310.859 -430.192 -303.959 -432.21C-297.058 -434.228 -289.749 -434.399 -282.762 -432.707L323.213 -284.98C330.195 -283.264 336.604 -279.747 341.802 -274.78C346.999 -269.813 350.803 -263.57 352.833 -256.673L527.875 341.981C529.882 348.884 530.042 356.194 528.34 363.178C526.637 370.163 523.132 376.579 518.174 381.785Z" fill="url(#paint45_linear_0_3)" fill-opacity="0.4"/>
<path d="M-774.633 26.0725C-779.159 30.8175 -782.361 36.6675 -783.918 43.0378C-785.475 49.408 -785.333 56.0754 -783.506 62.3735L-601.629 685.075C-599.78 691.368 -596.313 697.066 -591.572 701.599C-586.831 706.131 -580.983 709.34 -574.613 710.904L55.6055 864.76C61.9768 866.299 68.6404 866.14 74.931 864.298C81.2215 862.457 86.9188 858.997 91.4541 854.265L539.791 385.417C544.317 380.672 547.519 374.822 549.076 368.452C550.633 362.081 550.491 355.414 548.664 349.116L366.802 -273.577C364.952 -279.87 361.483 -285.568 356.741 -290.101C352 -294.634 346.152 -297.843 339.782 -299.409L-290.437 -453.265C-296.812 -454.809 -303.48 -454.655 -309.776 -452.816C-316.071 -450.978 -321.775 -447.519 -326.316 -442.787L-774.633 26.0725ZM543.586 389.018L95.2458 857.884C90.0698 863.284 83.5671 867.231 76.3877 869.33C69.2082 871.429 61.6037 871.608 54.3339 869.847L-575.885 715.991C-583.136 714.2 -589.791 710.539 -595.186 705.373C-600.58 700.208 -604.526 693.718 -606.63 686.551L-788.516 63.852C-790.602 56.6709 -790.766 49.0681 -788.993 41.8034C-787.22 34.5387 -783.571 27.8666 -778.411 22.4541L-330.078 -446.389C-324.903 -451.79 -318.401 -455.737 -311.223 -457.837C-304.044 -459.937 -296.44 -460.115 -289.171 -458.354L341.048 -304.498C348.309 -302.712 354.973 -299.053 360.376 -293.885C365.78 -288.718 369.734 -282.224 371.842 -275.051L553.71 347.645C555.792 354.828 555.951 362.431 554.173 369.696C552.394 376.96 548.739 383.63 543.575 389.038L543.586 389.018Z" fill="url(#paint46_linear_0_3)" fill-opacity="0.4"/>
<path d="M-799.89 18.9558C-804.592 23.885 -807.917 29.9618 -809.535 36.5789C-811.152 43.196 -811.004 50.1217 -809.106 56.6638L-620.415 703.38C-618.498 709.916 -614.898 715.834 -609.976 720.543C-605.055 725.252 -598.983 728.587 -592.369 730.214L62.0674 890.163C68.6868 891.77 75.6119 891.611 82.1508 889.703C88.6897 887.795 94.6132 884.204 99.3296 879.289L565.07 392.519C569.768 387.588 573.092 381.511 574.709 374.895C576.326 368.278 576.18 361.354 574.286 354.811L385.595 -291.905C383.673 -298.44 380.072 -304.358 375.15 -309.067C370.228 -313.776 364.157 -317.112 357.543 -318.742L-296.888 -478.688C-303.507 -480.295 -310.432 -480.136 -316.971 -478.228C-323.51 -476.32 -329.434 -472.729 -334.15 -467.814L-799.89 18.9558ZM568.98 396.294L103.245 883.054C97.8695 888.658 91.1165 892.753 83.6618 894.929C76.2071 897.105 68.3117 897.286 60.7651 895.454L-593.663 735.502C-601.203 733.647 -608.124 729.845 -613.735 724.476C-619.345 719.108 -623.449 712.362 -625.636 704.911L-814.327 58.1947C-816.487 50.7348 -816.651 42.8388 -814.804 35.2955C-812.957 27.7521 -809.164 20.8253 -803.802 15.207L-338.077 -471.572C-332.7 -477.174 -325.947 -481.268 -318.492 -483.444C-311.038 -485.62 -303.143 -485.802 -295.596 -483.971L358.831 -324.007C366.37 -322.151 373.289 -318.349 378.899 -312.981C384.509 -307.614 388.612 -300.868 390.799 -293.419L579.495 353.3C581.659 360.76 581.826 368.657 579.981 376.202C578.136 383.747 574.342 390.675 568.98 396.294Z" fill="url(#paint47_linear_0_3)" fill-opacity="0.4"/>
<path d="M-825.147 11.8393C-830.025 16.9505 -833.476 23.252 -835.155 30.1142C-836.835 36.9764 -836.685 44.1593 -834.721 50.9454L-639.223 721.699C-637.236 728.486 -633.501 734.632 -628.392 739.522C-623.282 744.411 -616.978 747.872 -610.11 749.559L68.5212 915.615C75.3845 917.283 82.5655 917.122 89.3468 915.146C96.1282 913.171 102.273 909.451 107.166 904.358L590.316 399.656C595.193 394.545 598.643 388.244 600.322 381.382C602.001 374.519 601.849 367.337 599.881 360.552L404.397 -310.227C402.41 -317.006 398.679 -323.144 393.576 -328.03C388.474 -332.915 382.179 -336.376 375.32 -338.066L-303.353 -504.12C-310.216 -505.789 -317.398 -505.628 -324.179 -503.653C-330.961 -501.677 -337.105 -497.957 -341.998 -492.862L-825.147 11.8393ZM594.385 403.55L111.239 908.246C105.66 914.053 98.6562 918.294 90.9257 920.546C83.1951 922.799 75.009 922.983 67.185 921.081L-611.469 755.018C-619.289 753.092 -626.467 749.147 -632.284 743.578C-638.102 738.009 -642.356 731.011 -644.622 723.282L-840.105 52.5031C-842.345 44.7687 -842.517 36.5817 -840.603 28.7602C-838.688 20.9387 -834.755 13.7565 -829.195 7.9312L-346.071 -496.751C-340.493 -502.558 -333.489 -506.8 -325.758 -509.052C-318.027 -511.304 -309.841 -511.488 -302.017 -509.585L376.634 -343.517C384.453 -341.591 391.629 -337.646 397.446 -332.078C403.262 -326.509 407.516 -319.512 409.782 -311.785L605.265 358.994C607.507 366.724 607.682 374.906 605.773 382.724C603.864 390.543 599.937 397.723 594.385 403.55Z" fill="url(#paint48_linear_0_3)" fill-opacity="0.4"/>
<path d="M-850.413 4.72478C-855.465 10.0177 -859.039 16.5437 -860.779 23.6507C-862.519 30.7577 -862.363 38.1969 -860.328 45.2249L-658.008 740.025C-655.949 747.047 -652.084 753.406 -646.8 758.467C-641.515 763.528 -634.995 767.114 -627.891 768.867L75.0025 941.043C82.1123 942.774 89.5519 942.608 96.5777 940.563C103.604 938.517 109.969 934.664 115.039 929.387L615.579 406.762C620.632 401.471 624.209 394.946 625.949 387.839C627.69 380.732 627.535 373.293 625.499 366.265L423.171 -328.533C421.115 -335.556 417.251 -341.917 411.967 -346.979C406.682 -352.041 400.162 -355.627 393.057 -357.38L-309.837 -529.555C-316.947 -531.282 -324.385 -531.113 -331.41 -529.064C-338.434 -527.016 -344.797 -523.159 -349.864 -517.881L-850.413 4.72478ZM619.775 410.797L119.233 933.426C113.452 939.434 106.198 943.821 98.1926 946.15C90.1874 948.478 81.7115 948.667 73.6106 946.698L-629.283 774.522C-637.382 772.523 -644.814 768.434 -650.838 762.663C-656.862 756.893 -661.266 749.643 -663.611 741.638L-865.934 46.8421C-868.252 38.8299 -868.428 30.3498 -866.444 22.2484C-864.46 14.147 -860.385 6.70786 -854.627 0.673854L-354.045 -521.919C-348.264 -527.927 -341.008 -532.315 -333.002 -534.643C-324.996 -536.971 -316.519 -537.159 -308.417 -535.188L394.476 -363.012C402.573 -361.014 410.005 -356.926 416.028 -351.157C422.052 -345.388 426.456 -338.139 428.802 -330.136L631.13 364.663C633.44 372.674 633.608 381.151 631.618 389.247C629.628 397.344 625.55 404.777 619.79 410.805L619.775 410.797Z" fill="url(#paint49_linear_0_3)" fill-opacity="0.4"/>
<path d="M-875.679 -2.37669C-880.907 3.09767 -884.608 9.84826 -886.41 17.2006C-888.213 24.553 -888.055 32.2497 -885.951 39.5217L-676.783 758.323C-674.657 765.582 -670.665 772.156 -665.205 777.39C-659.745 782.625 -653.007 786.335 -645.665 788.152L81.457 966.481C88.812 968.273 96.5082 968.103 103.777 965.988C111.045 963.873 117.631 959.887 122.877 954.43L640.833 413.884C646.062 408.412 649.763 401.663 651.566 394.311C653.369 386.96 653.211 379.265 651.108 371.994L441.963 -346.848C439.836 -354.113 435.84 -360.693 430.374 -365.931C424.908 -371.168 418.164 -374.88 410.815 -376.695L-316.289 -554.986C-323.644 -556.778 -331.34 -556.608 -338.609 -554.493C-345.877 -552.378 -352.463 -548.392 -357.709 -542.934L-875.679 -2.37669ZM645.182 418.073L127.225 958.598C121.247 964.823 113.741 969.371 105.456 971.786C97.1702 974.201 88.396 974.399 80.0101 972.36L-647.09 794.05C-655.466 791.981 -663.152 787.75 -669.382 781.781C-675.611 775.812 -680.166 768.313 -682.59 760.033L-891.735 41.1907C-894.133 32.9021 -894.314 24.1292 -892.26 15.7488C-890.205 7.3684 -885.987 -0.326134 -880.028 -6.56595L-362.078 -547.088C-356.099 -553.31 -348.591 -557.854 -340.306 -560.265C-332.02 -562.677 -323.247 -562.871 -314.862 -560.83L412.239 -382.533C420.617 -380.466 428.305 -376.236 434.536 -370.266C440.767 -364.296 445.321 -356.795 447.744 -348.512L656.883 370.293C659.285 378.581 659.469 387.355 657.417 395.737C655.365 404.119 651.149 411.816 645.191 418.058L645.182 418.073Z" fill="url(#paint50_linear_0_3)" fill-opacity="0.4"/>
<path d="M-900.928 -9.50844C-906.332 -3.85347 -910.158 3.121 -912.023 10.718C-913.888 18.3149 -913.726 26.2683 -911.554 33.7832L-695.582 776.662C-693.386 784.17 -689.259 790.971 -683.612 796.385C-677.966 801.799 -670.997 805.636 -663.403 807.513L87.9225 991.913C95.5205 993.766 103.472 993.593 110.982 991.412C118.492 989.231 125.299 985.118 130.722 979.483L666.085 421.011C671.49 415.356 675.316 408.381 677.18 400.784C679.045 393.187 678.884 385.234 676.712 377.719L460.749 -365.154C458.556 -372.659 454.432 -379.457 448.79 -384.87C443.148 -390.284 436.185 -394.122 428.596 -396.003L-322.759 -580.421C-330.359 -582.272 -338.311 -582.097 -345.821 -579.914C-353.332 -577.73 -360.138 -573.615 -365.56 -567.978L-900.928 -9.50844ZM670.596 425.314L135.229 983.783C129.048 990.211 121.289 994.904 112.726 997.393C104.163 999.883 95.0971 1000.08 86.4337 997.969L-664.897 813.566C-673.552 811.426 -681.495 807.053 -687.931 800.883C-694.368 794.713 -699.073 786.962 -701.576 778.404L-917.544 35.5284C-920.019 26.9621 -920.203 17.8963 -918.076 9.23672C-915.95 0.577177 -911.589 -7.37278 -905.428 -13.8188L-370.066 -572.291C-363.884 -578.718 -356.125 -583.41 -347.562 -585.899C-339 -588.389 -329.934 -588.588 -321.271 -586.477L430.08 -402.062C438.736 -399.921 446.679 -395.546 453.116 -389.375C459.553 -383.203 464.258 -375.451 466.761 -366.892L682.724 375.98C685.196 384.546 685.377 393.61 683.249 402.267C681.121 410.924 676.758 418.871 670.596 425.314Z" fill="url(#paint51_linear_0_3)" fill-opacity="0.4"/>
<path d="M-926.188 -16.6201C-931.766 -10.7824 -935.716 -3.58326 -937.642 4.25836C-939.568 12.1 -939.403 20.3097 -937.164 28.0676L-714.381 794.979C-712.116 802.73 -707.856 809.75 -702.028 815.34C-696.2 820.929 -689.007 824.891 -681.168 826.83L94.388 1017.35C102.233 1019.26 110.444 1019.08 118.199 1016.83C125.954 1014.58 132.982 1010.33 138.582 1004.51L691.356 428.115C696.936 422.278 700.887 415.079 702.813 407.237C704.739 399.395 704.574 391.185 702.332 383.427L479.545 -383.487C477.281 -391.238 473.022 -398.26 467.193 -403.849C461.365 -409.439 454.171 -413.4 446.332 -415.338L-329.222 -605.858C-337.068 -607.774 -345.28 -607.596 -353.036 -605.343C-360.792 -603.09 -367.82 -598.841 -373.419 -593.019L-926.188 -16.6201ZM695.999 432.575L143.228 1008.97C136.846 1015.6 128.834 1020.44 119.995 1023.01C111.155 1025.58 101.796 1025.78 92.8536 1023.6L-682.703 833.081C-691.638 830.871 -699.837 826.355 -706.48 819.984C-713.124 813.613 -717.979 805.61 -720.561 796.775L-943.349 29.8611C-945.901 21.0171 -946.088 11.6581 -943.892 2.71915C-941.695 -6.21984 -937.191 -14.426 -930.83 -21.0796L-378.06 -597.471C-371.679 -604.105 -363.668 -608.947 -354.829 -611.515C-345.99 -614.083 -336.632 -614.286 -327.69 -612.104L447.866 -421.589C456.801 -419.378 464.999 -414.861 471.642 -408.49C478.285 -402.12 483.141 -394.117 485.725 -385.283L708.507 381.628C711.062 390.472 711.251 399.832 709.056 408.772C706.861 417.712 702.359 425.92 695.999 432.575Z" fill="url(#paint52_linear_0_3)" fill-opacity="0.4"/>
</g>
</g>
<defs>
<linearGradient id="paint0_linear_0_3" x1="1985.12" y1="847.411" x2="2418.19" y2="995.067" gradientUnits="userSpaceOnUse">
<stop stop-color="#4F5AFE" stop-opacity="0.6"/>
<stop offset="1" stop-color="#FF8BFF"/>
</linearGradient>
<linearGradient id="paint1_linear_0_3" x1="1960.83" y1="839.106" x2="2442.52" y2="1003.34" gradientUnits="userSpaceOnUse">
<stop stop-color="#4F5AFE" stop-opacity="0.6"/>
<stop offset="1" stop-color="#FF8BFF"/>
</linearGradient>
<linearGradient id="paint2_linear_0_3" x1="1936.49" y1="830.846" x2="2466.81" y2="1011.66" gradientUnits="userSpaceOnUse">
<stop stop-color="#4F5AFE" stop-opacity="0.6"/>
<stop offset="1" stop-color="#FF8BFF"/>
</linearGradient>
<linearGradient id="paint3_linear_0_3" x1="1912.23" y1="822.55" x2="2491.12" y2="1019.92" gradientUnits="userSpaceOnUse">
<stop stop-color="#4F5AFE" stop-opacity="0.6"/>
<stop offset="1" stop-color="#FF8BFF"/>
</linearGradient>
<linearGradient id="paint4_linear_0_3" x1="1887.93" y1="814.281" x2="2515.42" y2="1028.22" gradientUnits="userSpaceOnUse">
<stop stop-color="#4F5AFE" stop-opacity="0.6"/>
<stop offset="1" stop-color="#FF8BFF"/>
</linearGradient>
<linearGradient id="paint5_linear_0_3" x1="1863.62" y1="806.003" x2="2539.72" y2="1036.52" gradientUnits="userSpaceOnUse">
<stop stop-color="#4F5AFE" stop-opacity="0.6"/>
<stop offset="1" stop-color="#FF8BFF"/>
</linearGradient>
<linearGradient id="paint6_linear_0_3" x1="1839.34" y1="797.709" x2="2564.03" y2="1044.79" gradientUnits="userSpaceOnUse">
<stop stop-color="#4F5AFE" stop-opacity="0.6"/>
<stop offset="1" stop-color="#FF8BFF"/>
</linearGradient>
<linearGradient id="paint7_linear_0_3" x1="1815.01" y1="789.427" x2="2588.33" y2="1053.09" gradientUnits="userSpaceOnUse">
<stop stop-color="#4F5AFE" stop-opacity="0.6"/>
<stop offset="1" stop-color="#FF8BFF"/>
</linearGradient>
<linearGradient id="paint8_linear_0_3" x1="1790.71" y1="781.131" x2="2612.63" y2="1061.36" gradientUnits="userSpaceOnUse">
<stop stop-color="#4F5AFE" stop-opacity="0.6"/>
<stop offset="1" stop-color="#FF8BFF"/>
</linearGradient>
<linearGradient id="paint9_linear_0_3" x1="1766.4" y1="772.834" x2="2636.95" y2="1069.65" gradientUnits="userSpaceOnUse">
<stop stop-color="#4F5AFE" stop-opacity="0.6"/>
<stop offset="1" stop-color="#FF8BFF"/>
</linearGradient>
<linearGradient id="paint10_linear_0_3" x1="1742.13" y1="764.565" x2="2661.24" y2="1077.93" gradientUnits="userSpaceOnUse">
<stop stop-color="#4F5AFE" stop-opacity="0.6"/>
<stop offset="1" stop-color="#FF8BFF"/>
</linearGradient>
<linearGradient id="paint11_linear_0_3" x1="1717.8" y1="756.271" x2="2685.55" y2="1086.22" gradientUnits="userSpaceOnUse">
<stop stop-color="#4F5AFE" stop-opacity="0.6"/>
<stop offset="1" stop-color="#FF8BFF"/>
</linearGradient>
<linearGradient id="paint12_linear_0_3" x1="1693.5" y1="747.986" x2="2709.86" y2="1094.51" gradientUnits="userSpaceOnUse">
<stop stop-color="#4F5AFE" stop-opacity="0.6"/>
<stop offset="1" stop-color="#FF8BFF"/>
</linearGradient>
<linearGradient id="paint13_linear_0_3" x1="1669.2" y1="739.705" x2="2734.15" y2="1102.8" gradientUnits="userSpaceOnUse">
<stop stop-color="#4F5AFE" stop-opacity="0.6"/>
<stop offset="1" stop-color="#FF8BFF"/>
</linearGradient>
<linearGradient id="paint14_linear_0_3" x1="1644.88" y1="731.41" x2="2758.45" y2="1111.08" gradientUnits="userSpaceOnUse">
<stop stop-color="#4F5AFE" stop-opacity="0.6"/>
<stop offset="1" stop-color="#FF8BFF"/>
</linearGradient>
<linearGradient id="paint15_linear_0_3" x1="1620.59" y1="723.129" x2="2782.76" y2="1119.37" gradientUnits="userSpaceOnUse">
<stop stop-color="#4F5AFE" stop-opacity="0.6"/>
<stop offset="1" stop-color="#FF8BFF"/>
</linearGradient>
<linearGradient id="paint16_linear_0_3" x1="1596.29" y1="714.841" x2="2807.06" y2="1127.65" gradientUnits="userSpaceOnUse">
<stop stop-color="#4F5AFE" stop-opacity="0.6"/>
<stop offset="1" stop-color="#FF8BFF"/>
</linearGradient>
<linearGradient id="paint17_linear_0_3" x1="1571.98" y1="706.549" x2="2831.38" y2="1135.93" gradientUnits="userSpaceOnUse">
<stop stop-color="#4F5AFE" stop-opacity="0.6"/>
<stop offset="1" stop-color="#FF8BFF"/>
</linearGradient>
<linearGradient id="paint18_linear_0_3" x1="1547.69" y1="698.273" x2="2855.67" y2="1144.23" gradientUnits="userSpaceOnUse">
<stop stop-color="#4F5AFE" stop-opacity="0.6"/>
<stop offset="1" stop-color="#FF8BFF"/>
</linearGradient>
<linearGradient id="paint19_linear_0_3" x1="1523.39" y1="689.99" x2="2879.97" y2="1152.51" gradientUnits="userSpaceOnUse">
<stop stop-color="#4F5AFE" stop-opacity="0.6"/>
<stop offset="1" stop-color="#FF8BFF"/>
</linearGradient>
<linearGradient id="paint20_linear_0_3" x1="1499.06" y1="681.693" x2="2904.29" y2="1160.8" gradientUnits="userSpaceOnUse">
<stop stop-color="#4F5AFE" stop-opacity="0.6"/>
<stop offset="1" stop-color="#FF8BFF"/>
</linearGradient>
<linearGradient id="paint21_linear_0_3" x1="1474.76" y1="673.421" x2="2928.57" y2="1169.09" gradientUnits="userSpaceOnUse">
<stop stop-color="#4F5AFE" stop-opacity="0.6"/>
<stop offset="1" stop-color="#FF8BFF"/>
</linearGradient>
<linearGradient id="paint22_linear_0_3" x1="1450.47" y1="665.125" x2="2952.89" y2="1177.37" gradientUnits="userSpaceOnUse">
<stop stop-color="#4F5AFE" stop-opacity="0.6"/>
<stop offset="1" stop-color="#FF8BFF"/>
</linearGradient>
<linearGradient id="paint23_linear_0_3" x1="1426.16" y1="656.838" x2="2977.19" y2="1185.66" gradientUnits="userSpaceOnUse">
<stop stop-color="#4F5AFE" stop-opacity="0.6"/>
<stop offset="1" stop-color="#FF8BFF"/>
</linearGradient>
<linearGradient id="paint24_linear_0_3" x1="-204.346" y1="155.56" x2="-30.4731" y2="255.945" gradientUnits="userSpaceOnUse">
<stop stop-color="#EC6548"/>
<stop offset="1" stop-color="#EC6548" stop-opacity="0.6"/>
</linearGradient>
<linearGradient id="paint25_linear_0_3" x1="-226.608" y1="142.707" x2="-8.23973" y2="268.782" gradientUnits="userSpaceOnUse">
<stop stop-color="#EC6548"/>
<stop offset="1" stop-color="#EC6548" stop-opacity="0.6"/>
</linearGradient>
<linearGradient id="paint26_linear_0_3" x1="-248.823" y1="129.87" x2="14.0046" y2="281.613" gradientUnits="userSpaceOnUse">
<stop stop-color="#EC6548"/>
<stop offset="1" stop-color="#EC6548" stop-opacity="0.6"/>
</linearGradient>
<linearGradient id="paint27_linear_0_3" x1="-271.088" y1="117.036" x2="36.2319" y2="294.467" gradientUnits="userSpaceOnUse">
<stop stop-color="#EC6548"/>
<stop offset="1" stop-color="#EC6548" stop-opacity="0.6"/>
</linearGradient>
<linearGradient id="paint28_linear_0_3" x1="-293.313" y1="104.212" x2="58.4747" y2="307.317" gradientUnits="userSpaceOnUse">
<stop stop-color="#EC6548"/>
<stop offset="1" stop-color="#EC6548" stop-opacity="0.6"/>
</linearGradient>
<linearGradient id="paint29_linear_0_3" x1="-315.563" y1="91.3476" x2="80.6905" y2="320.124" gradientUnits="userSpaceOnUse">
<stop stop-color="#EC6548"/>
<stop offset="1" stop-color="#EC6548" stop-opacity="0.6"/>
</linearGradient>
<linearGradient id="paint30_linear_0_3" x1="-337.782" y1="78.4931" x2="102.955" y2="332.953" gradientUnits="userSpaceOnUse">
<stop stop-color="#EC6548"/>
<stop offset="1" stop-color="#EC6548" stop-opacity="0.6"/>
</linearGradient>
<linearGradient id="paint31_linear_0_3" x1="-360.053" y1="65.6744" x2="125.176" y2="345.822" gradientUnits="userSpaceOnUse">
<stop stop-color="#EC6548"/>
<stop offset="1" stop-color="#EC6548" stop-opacity="0.6"/>
</linearGradient>
<linearGradient id="paint32_linear_0_3" x1="-382.247" y1="52.834" x2="147.424" y2="358.639" gradientUnits="userSpaceOnUse">
<stop stop-color="#EC6548"/>
<stop offset="1" stop-color="#EC6548" stop-opacity="0.6"/>
</linearGradient>
<linearGradient id="paint33_linear_0_3" x1="-404.491" y1="40.0115" x2="169.648" y2="371.491" gradientUnits="userSpaceOnUse">
<stop stop-color="#EC6548"/>
<stop offset="1" stop-color="#EC6548" stop-opacity="0.6"/>
</linearGradient>
<linearGradient id="paint34_linear_0_3" x1="-426.734" y1="27.1805" x2="191.883" y2="384.34" gradientUnits="userSpaceOnUse">
<stop stop-color="#EC6548"/>
<stop offset="1" stop-color="#EC6548" stop-opacity="0.6"/>
</linearGradient>
<linearGradient id="paint35_linear_0_3" x1="-448.95" y1="14.3378" x2="214.133" y2="397.169" gradientUnits="userSpaceOnUse">
<stop stop-color="#EC6548"/>
<stop offset="1" stop-color="#EC6548" stop-opacity="0.6"/>
</linearGradient>
<linearGradient id="paint36_linear_0_3" x1="-471.206" y1="1.49987" x2="236.357" y2="410.012" gradientUnits="userSpaceOnUse">
<stop stop-color="#EC6548"/>
<stop offset="1" stop-color="#EC6548" stop-opacity="0.6"/>
</linearGradient>
<linearGradient id="paint37_linear_0_3" x1="-493.436" y1="-11.348" x2="258.602" y2="422.841" gradientUnits="userSpaceOnUse">
<stop stop-color="#EC6548"/>
<stop offset="1" stop-color="#EC6548" stop-opacity="0.6"/>
</linearGradient>
<linearGradient id="paint38_linear_0_3" x1="-515.68" y1="-24.198" x2="280.853" y2="435.68" gradientUnits="userSpaceOnUse">
<stop stop-color="#EC6548"/>
<stop offset="1" stop-color="#EC6548" stop-opacity="0.6"/>
</linearGradient>
<linearGradient id="paint39_linear_0_3" x1="-537.893" y1="-37.0147" x2="303.077" y2="448.519" gradientUnits="userSpaceOnUse">
<stop stop-color="#EC6548"/>
<stop offset="1" stop-color="#EC6548" stop-opacity="0.6"/>
</linearGradient>
<linearGradient id="paint40_linear_0_3" x1="-560.151" y1="-49.865" x2="325.318" y2="461.361" gradientUnits="userSpaceOnUse">
<stop stop-color="#EC6548"/>
<stop offset="1" stop-color="#EC6548" stop-opacity="0.6"/>
</linearGradient>
<linearGradient id="paint41_linear_0_3" x1="-582.386" y1="-62.7022" x2="347.562" y2="474.204" gradientUnits="userSpaceOnUse">
<stop stop-color="#EC6548"/>
<stop offset="1" stop-color="#EC6548" stop-opacity="0.6"/>
</linearGradient>
<linearGradient id="paint42_linear_0_3" x1="-604.625" y1="-75.5367" x2="369.786" y2="487.039" gradientUnits="userSpaceOnUse">
<stop stop-color="#EC6548"/>
<stop offset="1" stop-color="#EC6548" stop-opacity="0.6"/>
</linearGradient>
<linearGradient id="paint43_linear_0_3" x1="-626.871" y1="-88.3856" x2="392.023" y2="499.873" gradientUnits="userSpaceOnUse">
<stop stop-color="#EC6548"/>
<stop offset="1" stop-color="#EC6548" stop-opacity="0.6"/>
</linearGradient>
<linearGradient id="paint44_linear_0_3" x1="-649.097" y1="-101.216" x2="414.263" y2="512.715" gradientUnits="userSpaceOnUse">
<stop stop-color="#EC6548"/>
<stop offset="1" stop-color="#EC6548" stop-opacity="0.6"/>
</linearGradient>
<linearGradient id="paint45_linear_0_3" x1="-671.334" y1="-114.057" x2="436.501" y2="525.552" gradientUnits="userSpaceOnUse">
<stop stop-color="#EC6548"/>
<stop offset="1" stop-color="#EC6548" stop-opacity="0.6"/>
</linearGradient>
<linearGradient id="paint46_linear_0_3" x1="-693.57" y1="-126.902" x2="458.747" y2="538.388" gradientUnits="userSpaceOnUse">
<stop stop-color="#EC6548"/>
<stop offset="1" stop-color="#EC6548" stop-opacity="0.6"/>
</linearGradient>
<linearGradient id="paint47_linear_0_3" x1="-715.8" y1="-139.729" x2="480.977" y2="551.231" gradientUnits="userSpaceOnUse">
<stop stop-color="#EC6548"/>
<stop offset="1" stop-color="#EC6548" stop-opacity="0.6"/>
</linearGradient>
<linearGradient id="paint48_linear_0_3" x1="-738.037" y1="-152.564" x2="503.204" y2="564.067" gradientUnits="userSpaceOnUse">
<stop stop-color="#EC6548"/>
<stop offset="1" stop-color="#EC6548" stop-opacity="0.6"/>
</linearGradient>
<linearGradient id="paint49_linear_0_3" x1="-760.292" y1="-165.417" x2="525.455" y2="576.91" gradientUnits="userSpaceOnUse">
<stop stop-color="#EC6548"/>
<stop offset="1" stop-color="#EC6548" stop-opacity="0.6"/>
</linearGradient>
<linearGradient id="paint50_linear_0_3" x1="-782.528" y1="-178.24" x2="547.675" y2="589.753" gradientUnits="userSpaceOnUse">
<stop stop-color="#EC6548"/>
<stop offset="1" stop-color="#EC6548" stop-opacity="0.6"/>
</linearGradient>
<linearGradient id="paint51_linear_0_3" x1="-804.757" y1="-191.088" x2="569.927" y2="602.586" gradientUnits="userSpaceOnUse">
<stop stop-color="#EC6548"/>
<stop offset="1" stop-color="#EC6548" stop-opacity="0.6"/>
</linearGradient>
<linearGradient id="paint52_linear_0_3" x1="-826.994" y1="-203.927" x2="592.16" y2="615.422" gradientUnits="userSpaceOnUse">
<stop stop-color="#EC6548"/>
<stop offset="1" stop-color="#EC6548" stop-opacity="0.6"/>
</linearGradient>
<clipPath id="clip0_0_3">
<rect width="1920" height="2389" fill="white"/>
</clipPath>
<clipPath id="clip1_0_3">
<rect width="1656" height="1638.71" fill="white" transform="translate(1158.95 1440.54) rotate(-71.1734)"/>
</clipPath>
<clipPath id="clip2_0_3">
<rect width="1656" height="1638.71" fill="white" transform="translate(-1241 513.138) rotate(-60)"/>
</clipPath>
</defs>
</svg>
