<svg width="166" height="47" viewBox="0 0 166 47" fill="none" xmlns="http://www.w3.org/2000/svg">
<path d="M47.1273 45.965H1L1 0.999969H47.1273H51.5L81.3712 0.999969L144.234 1.85867L159 23.7947L144.234 45.9648H81.3712L79 45.9647H65L49 45.9647L47.1273 45.965Z" fill="white" stroke="#E0E0E0"/>
<path d="M116.216 21.3515L116.201 22.9994H108.906L108.919 21.5932L112.402 17.8947C112.752 17.5089 113.029 17.1696 113.232 16.8766C113.434 16.5788 113.581 16.3127 113.671 16.0783C113.766 15.8391 113.814 15.612 113.816 15.3972C113.819 15.0749 113.768 14.7991 113.663 14.5696C113.557 14.3352 113.4 14.1546 113.191 14.0276C112.987 13.9007 112.734 13.8372 112.431 13.8372C112.109 13.8372 111.83 13.9153 111.594 14.0716C111.363 14.2278 111.186 14.4451 111.061 14.7234C110.941 15.0017 110.88 15.3166 110.877 15.6682H108.76C108.766 15.0334 108.922 14.4524 109.23 13.9251C109.537 13.3929 109.969 12.9705 110.523 12.6581C111.078 12.3407 111.733 12.182 112.49 12.182C113.237 12.182 113.866 12.3041 114.377 12.5482C114.892 12.7874 115.28 13.1341 115.539 13.5882C115.804 14.0374 115.933 14.5745 115.927 15.1995C115.924 15.551 115.865 15.8952 115.75 16.2321C115.634 16.5641 115.47 16.8962 115.257 17.2282C115.049 17.5553 114.797 17.8873 114.501 18.2242C114.205 18.5611 113.877 18.9102 113.518 19.2716L111.646 21.3515H116.216ZM124.754 16.7302L124.737 18.5758C124.73 19.3765 124.638 20.0674 124.462 20.6484C124.286 21.2246 124.035 21.6982 123.71 22.0693C123.389 22.4355 123.008 22.7065 122.567 22.8822C122.126 23.058 121.637 23.1459 121.1 23.1459C120.67 23.1459 120.27 23.0922 119.9 22.9848C119.53 22.8725 119.197 22.6991 118.901 22.4648C118.61 22.2304 118.359 21.935 118.148 21.5786C117.941 21.2173 117.784 20.7876 117.676 20.2896C117.568 19.7916 117.517 19.2203 117.523 18.5758L117.54 16.7302C117.547 15.9294 117.638 15.2434 117.814 14.6721C117.995 14.096 118.246 13.6248 118.567 13.2586C118.893 12.8924 119.276 12.6239 119.717 12.453C120.158 12.2772 120.647 12.1893 121.184 12.1893C121.614 12.1893 122.011 12.2455 122.376 12.3578C122.747 12.4652 123.08 12.6336 123.375 12.8631C123.671 13.0926 123.922 13.388 124.129 13.7493C124.336 14.1057 124.493 14.533 124.601 15.031C124.709 15.5241 124.76 16.0905 124.754 16.7302ZM122.618 18.8541L122.64 16.4445C122.643 16.0588 122.624 15.7219 122.583 15.4338C122.547 15.1457 122.488 14.9016 122.407 14.7014C122.325 14.4964 122.224 14.3303 122.103 14.2034C121.982 14.0765 121.844 13.9837 121.688 13.9251C121.533 13.8665 121.36 13.8372 121.169 13.8372C120.93 13.8372 120.717 13.8836 120.531 13.9764C120.349 14.0691 120.194 14.218 120.065 14.4231C119.937 14.6233 119.836 14.8918 119.765 15.2287C119.699 15.5608 119.663 15.966 119.659 16.4445L119.637 18.8541C119.634 19.2398 119.65 19.5792 119.686 19.8721C119.728 20.1651 119.789 20.4165 119.87 20.6265C119.956 20.8315 120.057 21 120.173 21.1318C120.294 21.2588 120.432 21.3515 120.588 21.4101C120.749 21.4687 120.924 21.498 121.115 21.498C121.349 21.498 121.557 21.4516 121.738 21.3589C121.925 21.2612 122.082 21.1099 122.211 20.9048C122.345 20.6948 122.445 20.4214 122.512 20.0845C122.578 19.7476 122.614 19.3375 122.618 18.8541ZM133.443 21.3515L133.428 22.9994H126.133L126.145 21.5932L129.629 17.8947C129.979 17.5089 130.255 17.1696 130.458 16.8766C130.661 16.5788 130.807 16.3127 130.897 16.0783C130.992 15.8391 131.041 15.612 131.043 15.3972C131.046 15.0749 130.994 14.7991 130.889 14.5696C130.784 14.3352 130.627 14.1546 130.418 14.0276C130.214 13.9007 129.961 13.8372 129.658 13.8372C129.336 13.8372 129.057 13.9153 128.821 14.0716C128.59 14.2278 128.412 14.4451 128.288 14.7234C128.168 15.0017 128.107 15.3166 128.103 15.6682H125.987C125.992 15.0334 126.149 14.4524 126.456 13.9251C126.764 13.3929 127.195 12.9705 127.75 12.6581C128.304 12.3407 128.96 12.182 129.717 12.182C130.464 12.182 131.093 12.3041 131.603 12.5482C132.119 12.7874 132.506 13.1341 132.766 13.5882C133.03 14.0374 133.16 14.5745 133.154 15.1995C133.151 15.551 133.092 15.8952 132.976 16.2321C132.861 16.5641 132.697 16.8962 132.484 17.2282C132.276 17.5553 132.024 17.8873 131.728 18.2242C131.432 18.5611 131.104 18.9102 130.744 19.2716L128.872 21.3515H133.443ZM142.253 19.0152L142.238 20.6704H134.555L134.464 19.3887L138.973 12.3358H140.651L138.807 15.3752L136.562 19.0152H142.253ZM141.105 12.3358L141.008 22.9994H138.899L138.995 12.3358H141.105Z" fill="#1C1D3C"/>
<path d="M109.769 31.1689C109.769 31.0225 109.746 30.8923 109.7 30.7783C109.658 30.6644 109.581 30.5602 109.471 30.4658C109.36 30.3714 109.204 30.2803 109.002 30.1924C108.803 30.1012 108.549 30.0085 108.24 29.9141C107.902 29.8099 107.589 29.6943 107.303 29.5674C107.02 29.4372 106.772 29.2874 106.561 29.1182C106.349 28.9456 106.185 28.7487 106.067 28.5273C105.95 28.3027 105.892 28.0439 105.892 27.751C105.892 27.4613 105.952 27.1976 106.072 26.96C106.196 26.7223 106.37 26.5173 106.595 26.3447C106.823 26.1689 107.091 26.0339 107.4 25.9395C107.71 25.8418 108.051 25.793 108.426 25.793C108.953 25.793 109.407 25.8906 109.788 26.0859C110.172 26.2812 110.467 26.5433 110.672 26.8721C110.88 27.2008 110.984 27.5638 110.984 27.9609H109.769C109.769 27.7266 109.718 27.5199 109.617 27.3408C109.52 27.1585 109.37 27.0153 109.168 26.9111C108.969 26.807 108.717 26.7549 108.411 26.7549C108.121 26.7549 107.881 26.7988 107.688 26.8867C107.496 26.9746 107.353 27.0934 107.259 27.2432C107.164 27.3929 107.117 27.5622 107.117 27.751C107.117 27.8844 107.148 28.0065 107.21 28.1172C107.272 28.2246 107.366 28.3255 107.493 28.4199C107.62 28.5111 107.78 28.5973 107.972 28.6787C108.164 28.7601 108.39 28.8382 108.65 28.9131C109.044 29.0303 109.388 29.1605 109.681 29.3037C109.974 29.4437 110.218 29.6032 110.413 29.7822C110.608 29.9613 110.755 30.1647 110.853 30.3926C110.95 30.6172 110.999 30.8727 110.999 31.1592C110.999 31.4587 110.939 31.7288 110.818 31.9697C110.698 32.2074 110.525 32.4108 110.301 32.5801C110.079 32.7461 109.812 32.8747 109.5 32.9658C109.191 33.0537 108.846 33.0977 108.465 33.0977C108.123 33.0977 107.786 33.0521 107.454 32.9609C107.125 32.8698 106.826 32.7314 106.556 32.5459C106.285 32.3571 106.071 32.1227 105.911 31.8428C105.752 31.5596 105.672 31.2292 105.672 30.8516H106.897C106.897 31.0827 106.937 31.2796 107.015 31.4424C107.096 31.6051 107.208 31.7386 107.352 31.8428C107.495 31.9437 107.661 32.0186 107.85 32.0674C108.042 32.1162 108.247 32.1406 108.465 32.1406C108.751 32.1406 108.991 32.0999 109.183 32.0186C109.378 31.9372 109.524 31.8232 109.622 31.6768C109.72 31.5303 109.769 31.361 109.769 31.1689ZM116.736 32.0283V33H112.962V32.0283H116.736ZM113.309 25.8906V33H112.083V25.8906H113.309ZM116.243 28.8594V29.8164H112.962V28.8594H116.243ZM116.712 25.8906V26.8672H112.962V25.8906H116.712ZM120.506 26.8379L118.382 33H117.098L119.773 25.8906H120.594L120.506 26.8379ZM122.283 33L120.154 26.8379L120.062 25.8906H120.887L123.572 33H122.283ZM122.181 30.3633V31.335H118.313V30.3633H122.181ZM128.108 31.1689C128.108 31.0225 128.086 30.8923 128.04 30.7783C127.998 30.6644 127.921 30.5602 127.811 30.4658C127.7 30.3714 127.544 30.2803 127.342 30.1924C127.143 30.1012 126.889 30.0085 126.58 29.9141C126.242 29.8099 125.929 29.6943 125.643 29.5674C125.359 29.4372 125.112 29.2874 124.9 29.1182C124.689 28.9456 124.524 28.7487 124.407 28.5273C124.29 28.3027 124.231 28.0439 124.231 27.751C124.231 27.4613 124.292 27.1976 124.412 26.96C124.536 26.7223 124.71 26.5173 124.935 26.3447C125.162 26.1689 125.431 26.0339 125.74 25.9395C126.049 25.8418 126.391 25.793 126.766 25.793C127.293 25.793 127.747 25.8906 128.128 26.0859C128.512 26.2812 128.807 26.5433 129.012 26.8721C129.22 27.2008 129.324 27.5638 129.324 27.9609H128.108C128.108 27.7266 128.058 27.5199 127.957 27.3408C127.859 27.1585 127.71 27.0153 127.508 26.9111C127.309 26.807 127.057 26.7549 126.751 26.7549C126.461 26.7549 126.22 26.7988 126.028 26.8867C125.836 26.9746 125.693 27.0934 125.599 27.2432C125.504 27.3929 125.457 27.5622 125.457 27.751C125.457 27.8844 125.488 28.0065 125.55 28.1172C125.612 28.2246 125.706 28.3255 125.833 28.4199C125.96 28.5111 126.119 28.5973 126.312 28.6787C126.504 28.7601 126.73 28.8382 126.99 28.9131C127.384 29.0303 127.728 29.1605 128.021 29.3037C128.313 29.4437 128.558 29.6032 128.753 29.7822C128.948 29.9613 129.095 30.1647 129.192 30.3926C129.29 30.6172 129.339 30.8727 129.339 31.1592C129.339 31.4587 129.279 31.7288 129.158 31.9697C129.038 32.2074 128.865 32.4108 128.641 32.5801C128.419 32.7461 128.152 32.8747 127.84 32.9658C127.531 33.0537 127.186 33.0977 126.805 33.0977C126.463 33.0977 126.126 33.0521 125.794 32.9609C125.465 32.8698 125.166 32.7314 124.896 32.5459C124.625 32.3571 124.41 32.1227 124.251 31.8428C124.091 31.5596 124.012 31.2292 124.012 30.8516H125.237C125.237 31.0827 125.276 31.2796 125.354 31.4424C125.436 31.6051 125.548 31.7386 125.691 31.8428C125.835 31.9437 126.001 32.0186 126.189 32.0674C126.382 32.1162 126.587 32.1406 126.805 32.1406C127.091 32.1406 127.33 32.0999 127.522 32.0186C127.718 31.9372 127.864 31.8232 127.962 31.6768C128.06 31.5303 128.108 31.361 128.108 31.1689ZM136.092 29.25V29.6406C136.092 30.1777 136.022 30.6595 135.882 31.0859C135.742 31.5124 135.542 31.8753 135.281 32.1748C135.024 32.4743 134.715 32.7038 134.354 32.8633C133.992 33.0195 133.592 33.0977 133.152 33.0977C132.716 33.0977 132.317 33.0195 131.956 32.8633C131.598 32.7038 131.287 32.4743 131.023 32.1748C130.76 31.8753 130.555 31.5124 130.408 31.0859C130.265 30.6595 130.193 30.1777 130.193 29.6406V29.25C130.193 28.7129 130.265 28.2327 130.408 27.8096C130.551 27.3831 130.753 27.0202 131.014 26.7207C131.277 26.418 131.588 26.1885 131.946 26.0322C132.308 25.8727 132.706 25.793 133.143 25.793C133.582 25.793 133.982 25.8727 134.344 26.0322C134.705 26.1885 135.016 26.418 135.276 26.7207C135.537 27.0202 135.737 27.3831 135.877 27.8096C136.02 28.2327 136.092 28.7129 136.092 29.25ZM134.866 29.6406V29.2402C134.866 28.8431 134.827 28.4932 134.749 28.1904C134.674 27.8844 134.562 27.6289 134.412 27.4238C134.266 27.2155 134.085 27.0592 133.87 26.9551C133.655 26.8477 133.413 26.7939 133.143 26.7939C132.872 26.7939 132.632 26.8477 132.42 26.9551C132.208 27.0592 132.028 27.2155 131.878 27.4238C131.731 27.6289 131.619 27.8844 131.541 28.1904C131.463 28.4932 131.424 28.8431 131.424 29.2402V29.6406C131.424 30.0378 131.463 30.3893 131.541 30.6953C131.619 31.0013 131.733 31.2601 131.883 31.4717C132.036 31.68 132.218 31.8379 132.43 31.9453C132.641 32.0495 132.882 32.1016 133.152 32.1016C133.426 32.1016 133.668 32.0495 133.88 31.9453C134.091 31.8379 134.271 31.68 134.417 31.4717C134.563 31.2601 134.674 31.0013 134.749 30.6953C134.827 30.3893 134.866 30.0378 134.866 29.6406ZM142.957 25.8906V33H141.731L138.543 27.9072V33H137.317V25.8906H138.543L141.741 30.9932V25.8906H142.957Z" fill="#1C1D3C"/>
<g clip-path="url(#clip0_2054_2827)">
<path d="M12.9302 35.9013C13.0536 35.9551 13.159 36.0434 13.2339 36.1557C13.3087 36.268 13.3497 36.3996 13.3521 36.5347V39.8705C13.3515 39.9002 13.3393 39.9284 13.3182 39.9492C13.297 39.9699 13.2687 39.9816 13.2391 39.9816H12.4204C12.4064 39.9822 12.3925 39.9798 12.3795 39.9746C12.3665 39.9694 12.3548 39.9614 12.3451 39.9513C12.3253 39.9291 12.3146 39.9003 12.315 39.8705V36.8425H11.6545V39.8705C11.6547 39.8995 11.6439 39.9275 11.6243 39.9487C11.6155 39.9601 11.604 39.9691 11.5908 39.9748C11.5777 39.9806 11.5633 39.9829 11.549 39.9816H10.7956C10.7663 39.9816 10.7382 39.9699 10.7174 39.949C10.6967 39.9282 10.6851 39.9 10.6851 39.8705V36.8425H10.0372V39.8705C10.0407 39.8963 10.034 39.9224 10.0185 39.9432C10.003 39.964 9.97989 39.9778 9.95428 39.9816H9.11298C9.08778 39.9853 9.06209 39.9794 9.04111 39.9648C9.02013 39.9503 9.00542 39.9283 8.99997 39.9033V35.9569C8.99638 35.9311 9.00308 35.905 9.01861 35.8842C9.03414 35.8634 9.05723 35.8496 9.08284 35.8458H12.659C12.7524 35.844 12.845 35.863 12.9302 35.9013Z" fill="#242425"/>
<path d="M17.0359 35.846C17.1724 35.8452 17.3061 35.885 17.4201 35.9605C17.534 36.0359 17.6232 36.1436 17.6763 36.27C17.7144 36.354 17.7341 36.4452 17.7341 36.5374V39.8733C17.7348 39.8876 17.7325 39.9019 17.7275 39.9154C17.7225 39.9288 17.7149 39.9411 17.705 39.9515C17.6952 39.9619 17.6833 39.9701 17.6702 39.9758C17.657 39.9814 17.6429 39.9843 17.6286 39.9843H16.8049C16.7753 39.9843 16.747 39.9727 16.7258 39.9519C16.7047 39.9312 16.6925 39.9029 16.6919 39.8733V38.8135C16.6931 38.7848 16.6832 38.7568 16.6642 38.7352C16.6546 38.7241 16.6426 38.7154 16.6291 38.7097C16.6156 38.704 16.601 38.7015 16.5864 38.7024H15.4211C15.3916 38.7024 15.3632 38.7141 15.3421 38.7348C15.321 38.7556 15.3088 38.7838 15.3081 38.8135V39.8733C15.3103 39.8859 15.3099 39.8988 15.307 39.9112C15.3041 39.9237 15.2987 39.9355 15.2912 39.9458C15.2837 39.9561 15.2743 39.9649 15.2634 39.9715C15.2525 39.9781 15.2404 39.9825 15.2278 39.9843H14.3865C14.3737 39.9868 14.3606 39.9867 14.3479 39.984C14.3352 39.9812 14.3232 39.9759 14.3126 39.9684C14.3021 39.9608 14.2931 39.9512 14.2864 39.94C14.2796 39.9289 14.2752 39.9165 14.2734 39.9035V36.5374C14.2732 36.4457 14.2912 36.3547 14.3262 36.27C14.359 36.1838 14.4094 36.1056 14.4743 36.0403C14.5406 35.9768 14.6181 35.9263 14.7029 35.8915C14.7867 35.8543 14.8774 35.8353 14.9691 35.836L17.0359 35.846ZM16.6818 37.8168V36.7746H15.3006V37.8142L16.6818 37.8168Z" fill="#242425"/>
<path d="M21.4363 35.8788C21.4475 35.8883 21.4563 35.9003 21.462 35.9139C21.4677 35.9275 21.4701 35.9423 21.469 35.957V39.2979C21.4696 39.3899 21.4508 39.4811 21.4137 39.5653C21.3786 39.6503 21.3284 39.7281 21.2656 39.795C21.202 39.8607 21.1249 39.9115 21.0395 39.9438C20.9543 39.979 20.863 39.997 20.7708 39.9968H19.0129C18.9207 39.997 18.8294 39.979 18.7442 39.9438C18.6178 39.8906 18.5102 39.8007 18.435 39.6856C18.3599 39.5705 18.3206 39.4355 18.3223 39.2979V38.0362C18.3186 38.0102 18.3253 37.9837 18.3407 37.9625C18.3562 37.9413 18.3793 37.927 18.4051 37.9227H19.2464C19.2723 37.9196 19.2983 37.9265 19.3192 37.942C19.3402 37.9574 19.3546 37.9803 19.3594 38.0059V38.8815C19.3588 38.8959 19.3611 38.9104 19.3663 38.9238C19.3715 38.9373 19.3794 38.9495 19.3896 38.9597C19.4119 38.9789 19.4406 38.9888 19.4699 38.9875H20.3238C20.3524 38.9887 20.3803 38.9788 20.4017 38.9597C20.4127 38.9501 20.4214 38.938 20.4271 38.9245C20.4327 38.9109 20.4352 38.8962 20.4343 38.8815V35.957C20.434 35.928 20.4448 35.9 20.4644 35.8788C20.4739 35.8675 20.4859 35.8587 20.4994 35.853C20.513 35.8473 20.5277 35.8449 20.5423 35.846H21.361C21.3752 35.8456 21.3892 35.8484 21.4023 35.854C21.4153 35.8597 21.4269 35.8681 21.4363 35.8788Z" fill="#242425"/>
<path d="M25.1606 35.8457C25.2523 35.8451 25.343 35.864 25.4268 35.9012C25.509 35.935 25.5836 35.985 25.6461 36.0483C25.7087 36.1116 25.7579 36.1869 25.791 36.2696C25.829 36.3536 25.8487 36.4448 25.8488 36.5371V39.285C25.8485 39.3781 25.8288 39.47 25.791 39.555C25.7575 39.6395 25.7081 39.7166 25.6453 39.7821C25.5809 39.8479 25.5029 39.8987 25.4168 39.931C25.3329 39.9676 25.2421 39.9857 25.1506 39.984H23.0762C22.9855 39.984 22.8957 39.9651 22.8125 39.9285C22.688 39.877 22.5814 39.7896 22.5063 39.6774C22.4312 39.5651 22.391 39.4329 22.3906 39.2976V36.5497C22.3904 36.4571 22.4083 36.3654 22.4434 36.2797C22.4747 36.1942 22.5244 36.1166 22.589 36.0526C22.6552 35.9891 22.7328 35.9386 22.8176 35.9038C22.9013 35.8663 22.9921 35.8474 23.0838 35.8482L25.1606 35.8457ZM24.8065 36.855H23.4253V38.9847H24.8216L24.8065 36.855Z" fill="#242425"/>
<path d="M30.3611 39.8906C30.3687 39.9003 30.3728 39.9123 30.3728 39.9247C30.3728 39.937 30.3687 39.949 30.3611 39.9587C30.3541 39.9685 30.3445 39.9763 30.3335 39.9812C30.3225 39.986 30.3103 39.9879 30.2984 39.9865H29.3641C29.3312 39.9862 29.299 39.9765 29.2712 39.9587C29.2413 39.943 29.2161 39.9195 29.1984 39.8906L28.5881 38.7677C28.5841 38.76 28.5779 38.7538 28.5703 38.7497C28.5627 38.7457 28.554 38.744 28.5454 38.745H27.8347C27.8314 38.7443 27.828 38.7442 27.8247 38.7448C27.8214 38.7455 27.8182 38.7468 27.8154 38.7486C27.8126 38.7505 27.8102 38.753 27.8083 38.7558C27.8064 38.7587 27.8052 38.7618 27.8046 38.7652V39.8654C27.8063 39.8782 27.8055 39.8912 27.8021 39.9036C27.7987 39.9161 27.7929 39.9278 27.7849 39.9379C27.7769 39.948 27.767 39.9564 27.7557 39.9626C27.7444 39.9688 27.732 39.9726 27.7192 39.9739H26.8829C26.8577 39.9775 26.832 39.9711 26.8113 39.956C26.7907 39.941 26.7767 39.9184 26.7724 39.8931C26.7699 39.8832 26.7699 39.8728 26.7724 39.8628V35.9567C26.7703 35.9441 26.7707 35.9312 26.7736 35.9188C26.7765 35.9063 26.7818 35.8945 26.7893 35.8842C26.7968 35.8739 26.8063 35.8651 26.8172 35.8585C26.8281 35.8519 26.8402 35.8475 26.8528 35.8457H29.545C29.6366 35.8454 29.7272 35.8643 29.8112 35.9012C29.975 35.9727 30.1053 36.1045 30.1753 36.2696C30.2123 36.3539 30.2312 36.445 30.2306 36.5371V38.0915C30.2315 38.2378 30.1847 38.3805 30.0974 38.4977C30.0156 38.6175 29.8963 38.7063 29.7584 38.7501H29.7408C29.7132 38.7501 29.7057 38.7702 29.7207 38.7854L30.3611 39.8906ZM29.1909 36.8096H27.7719V37.8189H29.1909V36.8096Z" fill="#242425"/>
<path d="M35.9015 38.9796C35.9159 38.9786 35.9304 38.9808 35.9438 38.986C35.9573 38.9913 35.9694 38.9994 35.9794 39.0099C35.9992 39.0321 36.0099 39.0609 36.0095 39.0907V39.8729C36.0098 39.9019 35.999 39.9299 35.9794 39.9511C35.9699 39.9624 35.9579 39.9712 35.9444 39.9769C35.9309 39.9826 35.9162 39.985 35.9015 39.9839H33.3601C33.3345 39.9876 33.3085 39.9813 33.2875 39.9663C33.2664 39.9513 33.2519 39.9287 33.247 39.9032V35.9567C33.2435 35.931 33.2502 35.9048 33.2657 35.884C33.2812 35.8632 33.3043 35.8494 33.3299 35.8457H34.1712C34.1968 35.8421 34.2229 35.8488 34.2436 35.8644C34.2643 35.88 34.278 35.9032 34.2817 35.9289C34.2843 35.938 34.2843 35.9476 34.2817 35.9567V38.8737C34.2812 38.8883 34.2838 38.9029 34.2895 38.9164C34.2951 38.9299 34.3036 38.942 34.3144 38.9519C34.3364 38.9718 34.3651 38.9826 34.3947 38.9822L35.9015 38.9796Z" fill="#242425"/>
<path d="M39.7084 35.8785C39.7191 35.8884 39.7276 35.9005 39.7333 35.914C39.7389 35.9275 39.7416 35.9421 39.741 35.9567V36.7011C39.7421 36.7158 39.7397 36.7306 39.7341 36.7442C39.7284 36.7578 39.7196 36.7698 39.7084 36.7793C39.6872 36.799 39.6594 36.8099 39.6305 36.8096H37.6566C37.6535 36.8089 37.6502 36.8088 37.647 36.8095C37.6438 36.8101 37.6408 36.8115 37.6382 36.8134C37.6356 36.8153 37.6334 36.8177 37.6318 36.8206C37.6302 36.8234 37.6293 36.8266 37.629 36.8298V37.4732C37.629 37.4884 37.629 37.496 37.6566 37.496H39.3392C39.3534 37.4953 39.3676 37.4979 39.3807 37.5035C39.3937 37.5092 39.4053 37.5179 39.4146 37.5288C39.4342 37.55 39.4449 37.578 39.4447 37.607V38.2C39.4449 38.2289 39.4342 38.2569 39.4146 38.2782C39.4053 38.2891 39.3937 38.2977 39.3807 38.3034C39.3676 38.3091 39.3534 38.3117 39.3392 38.311H37.6566C37.6503 38.3102 37.644 38.3119 37.6389 38.3156C37.6337 38.3194 37.6302 38.3249 37.629 38.3312V38.9696C37.6278 38.9727 37.6274 38.9761 37.6277 38.9794C37.628 38.9828 37.629 38.986 37.6307 38.9889C37.6323 38.9918 37.6346 38.9943 37.6374 38.9962C37.6401 38.9981 37.6433 38.9993 37.6466 38.9999H39.6381C39.6669 38.9998 39.6947 39.0112 39.7153 39.0315C39.736 39.0518 39.7479 39.0794 39.7486 39.1084V39.8654C39.7489 39.8798 39.7464 39.8942 39.7411 39.9077C39.7358 39.9211 39.7279 39.9334 39.7178 39.9437C39.7078 39.9541 39.6958 39.9623 39.6825 39.9679C39.6692 39.9735 39.655 39.9764 39.6406 39.9764H36.7048C36.6793 39.9801 36.6533 39.9738 36.6322 39.9587C36.6112 39.9437 36.5967 39.9211 36.5918 39.8956V35.9567C36.5925 35.9271 36.6046 35.8988 36.6258 35.8781C36.6469 35.8573 36.6753 35.8457 36.7048 35.8457H39.6381C39.6648 35.8473 39.6899 35.859 39.7084 35.8785Z" fill="#242425"/>
<path d="M43.4435 35.8461C43.536 35.8452 43.6276 35.8642 43.7122 35.9016C43.8779 35.9699 44.0098 36.1015 44.0789 36.2675C44.1162 36.3516 44.135 36.4428 44.1341 36.5349V39.8708C44.1348 39.8851 44.1326 39.8994 44.1276 39.9129C44.1226 39.9263 44.115 39.9386 44.1051 39.949C44.0952 39.9594 44.0834 39.9676 44.0702 39.9733C44.0571 39.9789 44.043 39.9818 44.0287 39.9818H43.1974C43.1681 39.9818 43.14 39.9701 43.1193 39.9493C43.0986 39.9284 43.0869 39.9002 43.0869 39.8708V38.811C43.0872 38.782 43.0764 38.754 43.0568 38.7327C43.0473 38.7215 43.0353 38.7126 43.0218 38.7069C43.0082 38.7012 42.9936 38.6988 42.9789 38.6999H41.8312C41.8017 38.6999 41.7733 38.7115 41.7522 38.7323C41.7311 38.753 41.7189 38.7813 41.7182 38.811V39.8708C41.7218 39.8965 41.7151 39.9226 41.6996 39.9434C41.6841 39.9643 41.661 39.978 41.6354 39.9818H40.7941C40.7815 39.9839 40.7686 39.9835 40.7563 39.9806C40.7439 39.9777 40.7322 39.9723 40.7219 39.9648C40.7116 39.9573 40.7029 39.9478 40.6963 39.9368C40.6897 39.9259 40.6854 39.9137 40.6836 39.901C40.681 39.8911 40.681 39.8807 40.6836 39.8708V36.5374C40.6834 36.4457 40.7013 36.3548 40.7363 36.27C40.7691 36.1838 40.8196 36.1056 40.8845 36.0404C40.9507 35.9768 41.0282 35.9263 41.113 35.8915C41.1968 35.854 41.2875 35.8351 41.3792 35.836L43.4435 35.8461ZM43.0919 37.8168V36.7746H41.7082V37.8143L43.0919 37.8168Z" fill="#242425"/>
<path d="M48.4781 37.7586C48.4886 37.7691 48.4967 37.7818 48.5019 37.7957C48.5071 37.8096 48.5093 37.8245 48.5082 37.8394V39.2979C48.5088 39.3899 48.49 39.4811 48.453 39.5653C48.4177 39.6496 48.3684 39.7272 48.3073 39.7949C48.2424 39.8602 48.1645 39.9109 48.0788 39.9438C47.9943 39.9788 47.9039 39.9968 47.8126 39.9968H45.7282C45.6377 39.9971 45.5481 39.9795 45.4644 39.9449C45.3808 39.9102 45.3048 39.8593 45.2408 39.795C45.1769 39.7308 45.1262 39.6544 45.0917 39.5704C45.0573 39.4864 45.0397 39.3963 45.04 39.3054V36.555C45.04 36.4632 45.058 36.3724 45.0928 36.2875C45.1237 36.201 45.1734 36.1226 45.2384 36.0579C45.3042 35.995 45.3808 35.9446 45.4645 35.909C45.5496 35.873 45.6409 35.8542 45.7332 35.8535H48.1767C48.2067 35.8535 48.2354 35.8655 48.2566 35.8868C48.2778 35.9081 48.2897 35.937 48.2897 35.9671V36.7468C48.2897 36.7769 48.2778 36.8058 48.2566 36.8271C48.2354 36.8484 48.2067 36.8603 48.1767 36.8603H46.2053C46.1757 36.8599 46.147 36.8707 46.1249 36.8906C46.1042 36.9113 46.0924 36.9394 46.0923 36.9688V38.884C46.0924 38.8982 46.0954 38.9122 46.101 38.9252C46.1066 38.9382 46.1147 38.9499 46.1249 38.9597C46.1356 38.97 46.1482 38.978 46.162 38.9832C46.1758 38.9884 46.1906 38.9907 46.2053 38.99H47.3706C47.3838 38.9907 47.397 38.9887 47.4094 38.9843C47.4219 38.9798 47.4333 38.973 47.4431 38.964C47.4529 38.9551 47.4609 38.9444 47.4665 38.9324C47.4722 38.9204 47.4754 38.9074 47.4761 38.8941V37.8495C47.4754 37.8351 47.4776 37.8208 47.4826 37.8074C47.4876 37.7939 47.4953 37.7816 47.5051 37.7712C47.515 37.7609 47.5268 37.7526 47.54 37.747C47.5531 37.7413 47.5672 37.7384 47.5815 37.7384H48.4053C48.4312 37.7361 48.457 37.7433 48.4781 37.7586Z" fill="#242425"/>
<path d="M52.8204 35.8789C52.8412 35.8996 52.8529 35.9277 52.853 35.9571V39.298C52.8528 39.3902 52.8331 39.4814 52.7953 39.5655C52.7609 39.6502 52.7116 39.728 52.6496 39.7951C52.5847 39.8603 52.5068 39.911 52.4211 39.944C52.3358 39.9791 52.2445 39.9972 52.1524 39.997H50.068C49.9766 39.997 49.8862 39.9789 49.8018 39.944C49.6356 39.8742 49.5031 39.742 49.4326 39.5756C49.3976 39.4899 49.3797 39.3982 49.3799 39.3056V35.9571C49.3763 35.9314 49.383 35.9052 49.3985 35.8844C49.414 35.8636 49.4371 35.8498 49.4627 35.8461H50.304C50.3297 35.8425 50.3557 35.8492 50.3764 35.8648C50.3971 35.8804 50.4108 35.9036 50.4145 35.9294C50.4171 35.9384 50.4171 35.948 50.4145 35.9571V38.8741C50.414 38.8887 50.4166 38.9033 50.4223 38.9168C50.4279 38.9303 50.4364 38.9424 50.4472 38.9523C50.4692 38.9722 50.4979 38.983 50.5275 38.9826H51.6928C51.7067 38.9828 51.7206 38.9802 51.7335 38.975C51.7464 38.9698 51.7582 38.9621 51.7681 38.9523C51.7789 38.9425 51.7872 38.9304 51.7925 38.9168C51.7977 38.9032 51.7997 38.8886 51.7983 38.8741V35.9571C51.7989 35.9274 51.8111 35.8992 51.8323 35.8784C51.8534 35.8577 51.8818 35.8461 51.9113 35.8461H52.73C52.7466 35.8433 52.7636 35.8448 52.7795 35.8506C52.7953 35.8563 52.8094 35.8661 52.8204 35.8789Z" fill="#242425"/>
<path d="M56.8988 35.8786C56.9195 35.8993 56.9313 35.9274 56.9314 35.9568V36.7012C56.932 36.7158 56.9293 36.7304 56.9237 36.7439C56.918 36.7574 56.9095 36.7695 56.8988 36.7794C56.8767 36.7993 56.848 36.8101 56.8184 36.8097H54.847C54.8437 36.809 54.8403 36.8089 54.837 36.8095C54.8336 36.8102 54.8305 36.8114 54.8276 36.8133C54.8248 36.8152 54.8224 36.8177 54.8206 36.8205C54.8187 36.8233 54.8175 36.8265 54.8169 36.8299V37.4834C54.8169 37.4986 54.8169 37.5061 54.847 37.5061H56.5296C56.5438 37.5058 56.5579 37.5085 56.5709 37.5142C56.5839 37.5199 56.5955 37.5283 56.6049 37.5389C56.6246 37.5602 56.6353 37.5882 56.6351 37.6172V38.2101C56.6353 38.2391 56.6246 38.2671 56.6049 38.2884C56.5955 38.299 56.5839 38.3074 56.5709 38.3131C56.5579 38.3187 56.5438 38.3215 56.5296 38.3212H54.847C54.8404 38.3203 54.8337 38.3219 54.8282 38.3256C54.8226 38.3293 54.8186 38.3349 54.8169 38.3413V38.9898C54.8161 38.9932 54.8161 38.9966 54.8167 38.9999C54.8173 39.0033 54.8186 39.0065 54.8205 39.0093C54.8224 39.0121 54.8248 39.0145 54.8276 39.0164C54.8304 39.0182 54.8336 39.0195 54.837 39.0201H56.8184C56.8475 39.0201 56.8755 39.0314 56.8966 39.0516C56.9176 39.0718 56.9301 39.0994 56.9314 39.1286V39.8856C56.9314 39.9146 56.9201 39.9425 56.8999 39.9632C56.8798 39.984 56.8523 39.996 56.8234 39.9966H53.8952C53.8825 39.9988 53.8695 39.9984 53.8569 39.9956C53.8444 39.9927 53.8325 39.9873 53.822 39.9798C53.8115 39.9723 53.8026 39.9628 53.7958 39.9518C53.7889 39.9409 53.7843 39.9287 53.7822 39.9159C53.7796 39.906 53.7796 39.8955 53.7822 39.8856V35.9568C53.7828 35.9271 53.795 35.8989 53.8162 35.8781C53.8373 35.8574 53.8657 35.8458 53.8952 35.8458H56.8184C56.8334 35.8452 56.8482 35.8478 56.8621 35.8535C56.876 35.8592 56.8885 35.8677 56.8988 35.8786Z" fill="#242425"/>
<path d="M63.2152 35.8463C63.2295 35.8456 63.2437 35.8478 63.2571 35.8528C63.2705 35.8579 63.2827 35.8656 63.2931 35.8755C63.3034 35.8854 63.3116 35.8973 63.3172 35.9105C63.3228 35.9237 63.3257 35.9379 63.3257 35.9523V39.8735C63.3261 39.888 63.3235 39.9023 63.3182 39.9158C63.313 39.9293 63.3051 39.9415 63.295 39.9519C63.2849 39.9622 63.2729 39.9704 63.2596 39.976C63.2464 39.9816 63.2321 39.9845 63.2177 39.9845H62.3965C62.367 39.9845 62.3386 39.9729 62.3175 39.9522C62.2964 39.9314 62.2842 39.9032 62.2835 39.8735V38.4983C62.2842 38.485 62.2822 38.4718 62.2778 38.4593C62.2734 38.4468 62.2665 38.4352 62.2577 38.4254C62.2488 38.4156 62.2381 38.4076 62.2262 38.4019C62.2142 38.3962 62.2013 38.393 62.1881 38.3923H61.0153C60.9856 38.3914 60.9567 38.4023 60.9349 38.4226C60.9237 38.4321 60.9149 38.4442 60.9092 38.4578C60.9036 38.4714 60.9012 38.4861 60.9023 38.5008V39.876C60.9059 39.9018 60.8992 39.9279 60.8836 39.9487C60.8681 39.9695 60.845 39.9833 60.8194 39.987C60.8103 39.9895 60.8008 39.9895 60.7918 39.987H59.9806C59.955 39.9906 59.929 39.9839 59.9083 39.9683C59.8876 39.9527 59.8738 39.9295 59.8701 39.9038C59.8675 39.8947 59.8675 39.8851 59.8701 39.876V35.9573C59.8665 35.9315 59.8732 35.9054 59.8887 35.8846C59.9043 35.8638 59.9274 35.85 59.953 35.8463H60.7943C60.8199 35.8427 60.8459 35.8494 60.8666 35.865C60.8873 35.8806 60.901 35.9038 60.9048 35.9295C60.9074 35.9386 60.9074 35.9482 60.9048 35.9573V37.2795C60.9012 37.3053 60.9079 37.3314 60.9234 37.3522C60.9389 37.373 60.962 37.3868 60.9877 37.3905H62.1805C62.1949 37.3916 62.2094 37.3894 62.2228 37.3842C62.2363 37.3789 62.2484 37.3708 62.2584 37.3603C62.2782 37.3381 62.2889 37.3093 62.2885 37.2795V35.9548C62.2892 35.9251 62.3014 35.8969 62.3225 35.8761C62.3436 35.8554 62.372 35.8437 62.4015 35.8438H63.2177L63.2152 35.8463Z" fill="#242425"/>
<path d="M67.0274 35.846C67.1199 35.8452 67.2115 35.8641 67.2961 35.9015C67.4618 35.9699 67.5937 36.1015 67.6628 36.2674C67.7 36.3516 67.7189 36.4428 67.718 36.5349V39.8707C67.7187 39.8851 67.7165 39.8994 67.7115 39.9128C67.7065 39.9263 67.6988 39.9386 67.689 39.949C67.6791 39.9593 67.6673 39.9676 67.6541 39.9732C67.641 39.9789 67.6268 39.9818 67.6126 39.9818H66.7888C66.7595 39.9818 66.7314 39.9701 66.7107 39.9492C66.69 39.9284 66.6783 39.9002 66.6783 39.8707V38.8109C66.6786 38.782 66.6678 38.754 66.6482 38.7327C66.6387 38.7215 66.6267 38.7126 66.6132 38.7069C66.5997 38.7012 66.585 38.6988 66.5703 38.6999H65.4026C65.3733 38.6999 65.3452 38.7116 65.3244 38.7324C65.3037 38.7533 65.2921 38.7815 65.2921 38.8109V39.8707C65.2957 39.8965 65.289 39.9226 65.2734 39.9434C65.2579 39.9642 65.2348 39.978 65.2092 39.9818H64.3679C64.3552 39.9839 64.3422 39.9836 64.3296 39.9807C64.3171 39.9778 64.3052 39.9724 64.2947 39.9649C64.2842 39.9574 64.2753 39.9479 64.2685 39.937C64.2616 39.926 64.257 39.9138 64.2549 39.901V36.5374C64.2547 36.4456 64.2726 36.3547 64.3076 36.27C64.3404 36.1838 64.3909 36.1056 64.4558 36.0403C64.5223 35.9772 64.5998 35.9267 64.6843 35.8915C64.7682 35.8545 64.8589 35.8356 64.9505 35.8359L67.0274 35.846ZM66.6758 37.8167V36.7746H65.2921V37.8142L66.6758 37.8167Z" fill="#242425"/>
<path d="M69.6939 36.881C69.6834 36.891 69.6753 36.9032 69.6701 36.9168C69.6649 36.9303 69.6627 36.9448 69.6637 36.9593V38.8745C69.6627 38.8889 69.6649 38.9034 69.6701 38.9169C69.6753 38.9305 69.6834 38.9427 69.6939 38.9527C69.7159 38.9725 69.7446 38.9834 69.7742 38.983H71.6653C71.6795 38.9823 71.6938 38.9845 71.7072 38.9895C71.7206 38.9945 71.7328 39.0022 71.7431 39.0122C71.7535 39.0221 71.7617 39.034 71.7673 39.0472C71.7729 39.0604 71.7758 39.0746 71.7758 39.0889V39.8762C71.7765 39.8905 71.7742 39.9049 71.7692 39.9183C71.7642 39.9318 71.7566 39.9441 71.7467 39.9544C71.7369 39.9648 71.725 39.9731 71.7119 39.9787C71.6987 39.9844 71.6846 39.9873 71.6703 39.9872H69.3172C69.2258 39.9877 69.1353 39.9697 69.051 39.9342C68.9652 39.9013 68.8873 39.8506 68.8224 39.7854C68.6948 39.6486 68.6239 39.4682 68.624 39.2807V36.5404C68.6236 36.4486 68.6415 36.3576 68.6768 36.2729C68.7077 36.1864 68.7574 36.1079 68.8224 36.0433C68.8887 35.9797 68.9662 35.9292 69.051 35.8944C69.1347 35.857 69.2255 35.838 69.3172 35.8389H71.6653C71.6942 35.8389 71.7219 35.8502 71.7425 35.8705C71.7632 35.8908 71.7751 35.9184 71.7758 35.9474V36.7322C71.7765 36.7612 71.7658 36.7893 71.7461 36.8105C71.7264 36.8318 71.6992 36.8444 71.6703 36.8457H69.7742C69.7592 36.8459 69.7443 36.8491 69.7305 36.8552C69.7167 36.8613 69.7042 36.8701 69.6939 36.881Z" fill="#242425"/>
<path d="M75.0481 37.5893C75.0432 37.5948 75.0405 37.602 75.0405 37.6095C75.0405 37.6169 75.0432 37.6241 75.0481 37.6297L76.4143 39.9007C76.4218 39.9104 76.4259 39.9224 76.4259 39.9347C76.4259 39.9471 76.4218 39.959 76.4143 39.9688C76.4072 39.9786 76.3977 39.9864 76.3867 39.9912C76.3756 39.9961 76.3635 39.9979 76.3515 39.9965H75.3721C75.3391 39.9962 75.3069 39.9866 75.2792 39.9688C75.2495 39.9537 75.225 39.9299 75.2089 39.9007L74.3274 38.2883C74.3274 38.2655 74.3048 38.2655 74.2972 38.2883L73.81 38.8257C73.7872 38.8502 73.77 38.8795 73.7598 38.9115C73.7469 38.9436 73.7401 38.9778 73.7397 39.0124V39.888C73.7427 39.914 73.7358 39.9401 73.7205 39.9612C73.7051 39.9822 73.6824 39.9967 73.6568 40.0016H72.8331C72.8075 40.0052 72.7815 39.9985 72.7608 39.9829C72.7401 39.9673 72.7263 39.9441 72.7226 39.9183C72.7201 39.9084 72.7201 39.898 72.7226 39.888V35.9567C72.719 35.931 72.7257 35.9048 72.7413 35.884C72.7568 35.8632 72.7799 35.8494 72.8055 35.8457H73.6468C73.6724 35.8421 73.6984 35.8488 73.7191 35.8644C73.7398 35.88 73.7536 35.9032 73.7573 35.9289C73.7599 35.938 73.7599 35.9476 73.7573 35.9567V37.723L75.2767 35.9365C75.294 35.9099 75.3161 35.8868 75.342 35.8684C75.3733 35.8534 75.4077 35.8456 75.4424 35.8457H76.4193C76.452 35.8457 76.4695 35.8457 76.4771 35.8684C76.4846 35.8911 76.4771 35.9062 76.457 35.9289L75.0481 37.5893Z" fill="#242425"/>
<path d="M78.2249 39.8729C78.2271 39.8855 78.2267 39.8984 78.2238 39.9109C78.2209 39.9233 78.2155 39.9351 78.208 39.9454C78.2006 39.9558 78.1911 39.9645 78.1802 39.9711C78.1693 39.9777 78.1572 39.9821 78.1446 39.9839H77.3083C77.2956 39.9861 77.2826 39.9857 77.27 39.9828C77.2575 39.98 77.2456 39.9746 77.2351 39.9671C77.2246 39.9596 77.2157 39.9501 77.2089 39.9391C77.202 39.9282 77.1974 39.9159 77.1953 39.9032V35.9567C77.1917 35.931 77.1984 35.9048 77.2139 35.884C77.2295 35.8632 77.2526 35.8494 77.2782 35.8457H78.1195C78.1451 35.8421 78.1711 35.8488 78.1918 35.8644C78.2125 35.88 78.2262 35.9032 78.23 35.9289C78.2325 35.938 78.2325 35.9476 78.23 35.9567L78.2249 39.8729Z" fill="#242425"/>
<path d="M82.1806 35.9012C82.3452 35.9711 82.4765 36.1022 82.5472 36.2671C82.5835 36.3515 82.6015 36.4427 82.6 36.5346V39.8704C82.6007 39.8848 82.5984 39.8991 82.5934 39.9125C82.5884 39.926 82.5808 39.9383 82.5709 39.9486C82.561 39.959 82.5492 39.9673 82.5361 39.9729C82.5229 39.9786 82.5088 39.9815 82.4945 39.9814H81.6808C81.6664 39.9825 81.652 39.9803 81.6385 39.975C81.6251 39.9698 81.6129 39.9617 81.603 39.9512C81.5832 39.929 81.5724 39.9002 81.5728 39.8704V36.956C81.5739 36.9413 81.5715 36.9265 81.5659 36.9129C81.5602 36.8993 81.5514 36.8873 81.5402 36.8778C81.519 36.858 81.4912 36.8472 81.4623 36.8475H80.2971C80.2674 36.8471 80.2388 36.8579 80.2167 36.8778C80.2059 36.8876 80.1974 36.8997 80.1918 36.9133C80.1862 36.9268 80.1835 36.9413 80.1841 36.956V39.8729C80.1876 39.8987 80.1809 39.9248 80.1654 39.9456C80.1499 39.9664 80.1268 39.9802 80.1012 39.984H79.2599C79.2346 39.9876 79.2089 39.9812 79.1883 39.9661C79.1677 39.9511 79.1537 39.9285 79.1494 39.9032C79.1468 39.8933 79.1468 39.8829 79.1494 39.8729V35.9567C79.1458 35.931 79.1525 35.9049 79.168 35.8841C79.1836 35.8632 79.2066 35.8495 79.2323 35.8457H81.9219C82.0111 35.8452 82.0994 35.8641 82.1806 35.9012Z" fill="#242425"/>
<path d="M86.9545 37.7591C86.9653 37.7695 86.9738 37.7821 86.9794 37.796C86.9851 37.8099 86.9877 37.8249 86.9871 37.8399V39.2984C86.9869 39.3906 86.9672 39.4818 86.9294 39.5658C86.896 39.6511 86.8465 39.7291 86.7837 39.7955C86.7192 39.8612 86.6412 39.912 86.5552 39.9443C86.4709 39.9798 86.3803 39.9978 86.289 39.9973H84.2045C84.1132 39.9973 84.0228 39.9793 83.9383 39.9443C83.8139 39.8896 83.7084 39.799 83.6351 39.684C83.5618 39.5691 83.524 39.4349 83.5265 39.2984V36.5505C83.5273 36.454 83.5478 36.3586 83.5868 36.2704C83.618 36.1848 83.6678 36.1073 83.7324 36.0433C83.7986 35.9797 83.8762 35.9292 83.9609 35.8944C84.0447 35.857 84.1355 35.838 84.2271 35.8389H86.6581C86.6874 35.8389 86.7155 35.8506 86.7363 35.8714C86.757 35.8922 86.7686 35.9205 86.7686 35.9499V36.7322C86.7686 36.7616 86.757 36.7898 86.7363 36.8107C86.7155 36.8315 86.6874 36.8432 86.6581 36.8432H84.6842C84.6554 36.8429 84.6275 36.8537 84.6064 36.8735C84.5952 36.883 84.5864 36.895 84.5807 36.9086C84.575 36.9222 84.5726 36.937 84.5737 36.9517V38.8669C84.5726 38.8816 84.575 38.8963 84.5807 38.9099C84.5864 38.9235 84.5952 38.9356 84.6064 38.9451C84.6166 38.955 84.6289 38.9626 84.6423 38.9674C84.6557 38.9722 84.67 38.974 84.6842 38.9729H85.8369C85.8501 38.9735 85.8633 38.9716 85.8758 38.9671C85.8882 38.9627 85.8997 38.9558 85.9095 38.9469C85.9193 38.938 85.9272 38.9272 85.9329 38.9152C85.9385 38.9032 85.9418 38.8902 85.9424 38.877V37.8323C85.9417 37.818 85.9439 37.8037 85.9489 37.7902C85.9539 37.7768 85.9616 37.7645 85.9715 37.7541C85.9813 37.7437 85.9932 37.7355 86.0063 37.7298C86.0195 37.7242 86.0336 37.7213 86.0479 37.7213H86.8716C86.8873 37.7212 86.9029 37.7245 86.9172 37.731C86.9315 37.7376 86.9442 37.7472 86.9545 37.7591Z" fill="#242425"/>
<path d="M33.8249 7.35534C34.8594 7.79835 35.683 8.62675 36.1228 9.6667C36.3564 10.1976 36.477 10.7718 36.4769 11.3523V33.068C36.4782 33.2536 36.4063 33.4322 36.2768 33.5646C36.1474 33.697 35.971 33.7725 35.7862 33.7745H30.5978C30.5072 33.7782 30.4169 33.7615 30.3335 33.7257C30.25 33.6899 30.1756 33.6359 30.1156 33.5676C29.9903 33.4303 29.9236 33.2491 29.9298 33.0629V13.3381H25.7735V33.0756C25.7783 33.2615 25.7118 33.4422 25.5876 33.5802C25.5264 33.6476 25.4514 33.701 25.3677 33.7367C25.2841 33.7724 25.1938 33.7896 25.103 33.7871H20.4193C20.3276 33.7885 20.2366 33.7716 20.1513 33.7376C20.0661 33.7036 19.9884 33.653 19.9227 33.5888C19.8569 33.5246 19.8044 33.448 19.7681 33.3634C19.7318 33.2788 19.7124 33.1879 19.7111 33.0957V13.3381H15.5473V33.0756C15.5607 33.172 15.5516 33.2704 15.5208 33.3627C15.4899 33.4551 15.4381 33.539 15.3694 33.6078C15.3007 33.6765 15.217 33.7283 15.125 33.759C15.0329 33.7897 14.9351 33.7985 14.8391 33.7846H9.70838C9.6124 33.7985 9.51452 33.7897 9.42248 33.759C9.33044 33.7283 9.24677 33.6765 9.17808 33.6078C9.10939 33.539 9.05756 33.4551 9.02668 33.3627C8.99581 33.2704 8.98673 33.172 9.00018 33.0756V7.7086C8.98673 7.61211 8.99581 7.51379 9.02668 7.42143C9.05756 7.32906 9.10939 7.24518 9.17808 7.1764C9.24677 7.10763 9.33044 7.05585 9.42248 7.02515C9.51452 6.99446 9.6124 6.98569 9.70838 6.99955H32.1322C32.7151 6.99691 33.2919 7.11816 33.8249 7.35534Z" fill="#E73427"/>
<path d="M59.0238 27.2825C59.1174 27.2805 59.2104 27.2981 59.2969 27.3342C59.3833 27.3702 59.4614 27.4239 59.5261 27.4919C59.6565 27.6318 59.7269 27.8176 59.722 28.0092V33.0558C59.7252 33.2434 59.6548 33.4246 59.5261 33.5605C59.4618 33.6292 59.3839 33.6835 59.2974 33.72C59.2108 33.7565 59.1177 33.7744 59.0238 33.7724H41.3188C40.8166 33.7724 40.5654 33.5201 40.5654 33.0457V7.72672C40.5654 7.24224 40.8166 7 41.3188 7H46.7534C47.2557 7 47.5068 7.25233 47.5068 7.72672V26.5936C47.5039 26.6897 47.523 26.7851 47.5627 26.8726C47.6023 26.9601 47.6614 27.0373 47.7353 27.0983C47.8815 27.2275 48.0706 27.2969 48.2652 27.2926L59.0238 27.2825Z" fill="#1D539F"/>
<path d="M86.2343 6.99931C86.3334 6.99655 86.4321 7.0139 86.5244 7.05032C86.6168 7.08673 86.7009 7.14147 86.7717 7.21127C86.8437 7.27661 86.9012 7.35642 86.9406 7.44553C86.98 7.53464 87.0003 7.63106 87.0002 7.72855V33.1333C87.0003 33.2308 86.98 33.3273 86.9406 33.4164C86.9012 33.5055 86.8437 33.5853 86.7717 33.6506C86.7009 33.7204 86.6168 33.7752 86.5244 33.8116C86.4321 33.848 86.3334 33.8653 86.2343 33.8626H80.7294C80.6306 33.8651 80.5324 33.8477 80.4405 33.8113C80.3485 33.7749 80.2649 33.7202 80.1945 33.6506C80.1216 33.586 80.0634 33.5063 80.024 33.4171C79.9845 33.3278 79.9647 33.231 79.9659 33.1333V24.2689C79.9701 24.1755 79.9546 24.0823 79.9204 23.9953C79.8862 23.9083 79.8341 23.8296 79.7675 23.7643C79.6987 23.6995 79.6178 23.6491 79.5294 23.6162C79.441 23.5833 79.3469 23.5684 79.2527 23.5725H71.5328C71.3368 23.5662 71.1457 23.6347 70.9979 23.7643C70.9241 23.8253 70.8651 23.9025 70.8255 23.99C70.7859 24.0775 70.7667 24.1729 70.7694 24.2689V33.1333C70.7694 33.6178 70.5182 33.8626 70.016 33.8626H64.5513C64.049 33.8626 63.7979 33.6103 63.7979 33.1333V7.72855C63.7979 7.24155 64.049 6.99931 64.5513 6.99931H70.026C70.5283 6.99931 70.7794 7.25164 70.7794 7.72855V16.3356C70.7794 16.8201 71.0305 17.0623 71.5328 17.0623H79.2703C79.3663 17.0656 79.4619 17.0487 79.551 17.0126C79.6401 16.9766 79.7207 16.9221 79.7876 16.8529C79.915 16.716 79.9859 16.5356 79.986 16.3482V7.72855C79.9848 7.63112 80.0044 7.53457 80.0434 7.44536C80.0824 7.35615 80.1399 7.27633 80.212 7.21127C80.3499 7.07479 80.5358 6.9986 80.7294 6.99931H86.2343Z" fill="#F8B92A"/>
</g>
<defs>
<clipPath id="clip0_2054_2827">
<rect width="78" height="33" fill="white" transform="translate(9 7)"/>
</clipPath>
</defs>
</svg>
