<svg width="131" height="57" viewBox="0 0 131 57" fill="none" xmlns="http://www.w3.org/2000/svg">
<path d="M102.367 0.5L102.366 0.500001L95.8628 0.500001C95.5781 0.500001 95.3051 0.613087 95.1038 0.81438C94.9025 1.01567 94.7894 1.28868 94.7894 1.57336V21.9224C94.7894 22.4723 94.571 22.9997 94.1822 23.3885C93.7933 23.7774 93.266 23.9958 92.7161 23.9958H83.6952C83.1453 23.9958 82.618 23.7774 82.2291 23.3885C81.8403 22.9997 81.6219 22.4723 81.6219 21.9224V1.57336C81.6219 1.43241 81.5941 1.29284 81.5402 1.1626C81.4862 1.03238 81.4072 0.91405 81.3075 0.81438C81.2078 0.714711 81.0895 0.635647 80.9593 0.581705C80.829 0.527763 80.6895 0.500001 80.5485 0.500001H74.4649C74.1802 0.500001 73.9071 0.61309 73.7058 0.814398C73.5044 1.01568 73.3913 1.28867 73.3912 1.57336L102.367 0.5ZM102.367 0.5C102.508 0.499873 102.647 0.527543 102.778 0.581426C102.908 0.635308 103.026 0.714349 103.126 0.814036C103.226 0.913722 103.305 1.03209 103.359 1.16238C103.413 1.29268 103.441 1.43234 103.441 1.57336V54.8588C103.441 55.1434 103.328 55.4164 103.126 55.6177C102.925 55.819 102.652 55.9321 102.367 55.9321H95.8642C95.5795 55.9321 95.3065 55.819 95.1052 55.6177C94.9039 55.4164 94.7909 55.1434 94.7909 54.8588V33.6703C94.7907 33.1204 94.5723 32.5932 94.1835 32.2044C93.7947 31.8156 93.2674 31.5971 92.7176 31.597H83.6967H83.6965C83.1467 31.5971 82.6195 31.8156 82.2307 32.2044C81.8419 32.5932 81.6234 33.1204 81.6233 33.6702V33.6703V54.8943C81.6233 55.1747 81.5136 55.444 81.3176 55.6445C81.1217 55.8451 80.855 55.961 80.5747 55.9675L64.5901 56.3348L64.5899 56.3348C64.434 56.3385 64.2792 56.3081 64.1363 56.2458C63.9934 56.1834 63.8658 56.0907 63.7624 55.974L63.7622 55.9738L46.6741 36.7006C46.6741 36.7006 46.674 36.7005 46.674 36.7005C46.4795 36.481 46.2406 36.3053 45.9731 36.185C45.7056 36.0648 45.4156 36.0026 45.1224 36.0027C45.1223 36.0027 45.1222 36.0027 45.1222 36.0027H38.1731C37.9009 36.0027 37.6312 36.0563 37.3797 36.1605C37.1281 36.2647 36.8996 36.4174 36.707 36.61C36.5145 36.8025 36.3618 37.031 36.2576 37.2826C36.1534 37.5341 36.0998 37.8038 36.0998 38.076V55.2784C36.0998 55.5631 35.9867 55.8361 35.7854 56.0374C35.5841 56.2387 35.3111 56.3518 35.0264 56.3518H28.7316C28.4469 56.3518 28.1739 56.2387 27.9726 56.0374C27.7713 55.8361 27.6582 55.5631 27.6582 55.2784V1.7833C27.6582 1.78326 27.6582 1.78322 27.6582 1.78319C27.6583 1.49854 27.7714 1.22559 27.9727 1.02431C28.174 0.823038 28.4469 0.709923 28.7316 0.709829C28.7316 0.709829 28.7316 0.709829 28.7317 0.709829H45.829C56.6735 0.709829 64.1826 9.11533 64.1826 18.0666C64.1826 22.6131 63.2233 25.3537 61.8459 27.3993C60.8332 28.9033 59.6031 30.0334 58.2765 31.2523C57.7609 31.726 57.2306 32.2132 56.6929 32.7409L56.6928 32.741C55.9163 33.5035 55.9246 34.7196 56.6232 35.5087L56.6236 35.5091L66.987 47.1848L66.9871 47.1849C67.1913 47.4148 67.444 47.5965 67.7271 47.7167C68.0101 47.8369 68.3164 47.8927 68.6236 47.8799L68.6237 47.8799M102.367 0.5L68.6237 47.8799M68.6237 47.8799L71.4044 47.764C71.939 47.7417 72.4442 47.5136 72.8145 47.1275C73.1847 46.7413 73.3914 46.227 73.3912 45.6921C73.3912 45.692 73.3912 45.692 73.3912 45.6919M68.6237 47.8799L73.3912 45.6919M73.3912 45.6919V1.57347V45.6919ZM38.1721 8.94015H38.1719C37.622 8.94027 37.0947 9.15881 36.7059 9.54769C36.3171 9.93657 36.0987 10.464 36.0987 11.0139V25.6986C36.0987 26.2485 36.3171 26.7759 36.706 27.1647C37.0948 27.5536 37.6222 27.772 38.1721 27.772H45.829C47.8489 27.772 50.3204 27.0499 52.2961 25.4804C54.2875 23.8984 55.7695 21.4574 55.7695 18.0677C55.7695 14.6765 54.3115 12.371 52.3173 10.9296C50.3448 9.50376 47.875 8.94015 45.829 8.94015H38.1721Z" fill="#0CCA4A" stroke="white"/>
<path d="M16.6898 26.9677L16.6898 26.9677C16.392 26.6701 15.9888 26.502 15.5678 26.5C15.1469 26.498 14.7421 26.6621 14.4415 26.9567L16.6898 26.9677ZM16.6898 26.9677L17.6061 27.8829C17.7552 28.0321 17.8734 28.2094 17.9537 28.4045C18.034 28.5996 18.0749 28.8087 18.074 29.0197C18.0731 29.2307 18.0304 29.4394 17.9484 29.6338C17.8664 29.8282 17.7468 30.0045 17.5963 30.1524L8.13165 39.4581L8.13154 39.4582C7.88706 39.6987 7.69262 39.9853 7.55942 40.3013C7.42622 40.6174 7.35691 40.9566 7.35548 41.2996C7.35404 41.6425 7.42052 41.9824 7.55107 42.2995C7.68162 42.6167 7.87367 42.9048 8.11613 43.1474L8.11619 43.1474L17.5986 52.6298C17.5986 52.6299 17.5986 52.6299 17.5987 52.6299C17.7483 52.7796 17.8668 52.9576 17.9471 53.1534C18.0274 53.3493 18.068 53.5592 18.0666 53.7709C18.0651 53.9826 18.0216 54.1919 17.9386 54.3867C17.8555 54.5814 17.7346 54.7577 17.5829 54.9054L16.6999 55.7646C16.4001 56.0563 15.9978 56.2188 15.5795 56.2173C15.1613 56.2157 14.7602 56.0503 14.4625 55.7564L0.975261 42.4399C0.975252 42.4399 0.975243 42.4399 0.975234 42.4398C0.8244 42.2909 0.704705 42.1134 0.623118 41.9178C0.541525 41.7221 0.499674 41.5122 0.500002 41.3002C0.50033 41.0882 0.54283 40.8783 0.625027 40.6829C0.707207 40.4876 0.827425 40.3105 0.978686 40.162C0.978718 40.162 0.978751 40.1619 0.978783 40.1619L14.4414 26.9568L16.6898 26.9677Z" fill="#0CCA4A" stroke="white"/>
<path d="M130.025 16.7182L130.352 17.0501L130.025 16.7182L116.537 30.0344C116.239 30.3281 115.838 30.4935 115.42 30.4951C115.002 30.4966 114.6 30.3342 114.3 30.0426C114.3 30.0426 114.3 30.0425 114.3 30.0425L113.417 29.183L113.417 29.183C113.265 29.0353 113.144 28.859 113.061 28.6643C112.978 28.4695 112.935 28.2602 112.933 28.0485C112.932 27.8368 112.972 27.6269 113.053 27.431C113.133 27.2352 113.251 27.0572 113.401 26.9075C113.401 26.9075 113.401 26.9075 113.401 26.9075L122.884 17.4254L122.884 17.4253C123.127 17.1827 123.319 16.8944 123.449 16.5772C123.58 16.26 123.646 15.9201 123.644 15.5771C123.643 15.2341 123.574 14.8948 123.44 14.5787C123.307 14.2627 123.112 13.9762 122.868 13.7357L113.403 4.43075C113.403 4.43074 113.403 4.43074 113.403 4.43073C113.253 4.28281 113.133 4.10659 113.051 3.91223C112.969 3.71785 112.927 3.50916 112.926 3.2982C112.925 3.08724 112.966 2.87818 113.046 2.68308C113.126 2.48802 113.244 2.31078 113.393 2.16157C113.393 2.16153 113.393 2.1615 113.393 2.16146L114.309 1.24598C114.309 1.24596 114.309 1.24594 114.309 1.24592C114.309 1.24592 114.309 1.24591 114.309 1.2459C114.607 0.948387 115.01 0.780368 115.431 0.778339C115.852 0.77631 116.257 0.940464 116.558 1.23515L130.021 14.4399C130.021 14.4399 130.021 14.44 130.021 14.44C130.172 14.5885 130.293 14.7656 130.375 14.961C130.457 15.1564 130.5 15.3663 130.5 15.5783C130.5 15.7903 130.458 16.0003 130.377 16.196C130.295 16.3917 130.175 16.5692 130.025 16.7182Z" fill="#0CCA4A" stroke="white"/>
</svg>
