<svg width="715" height="522" viewBox="0 0 715 522" fill="none" xmlns="http://www.w3.org/2000/svg">
<path d="M394.125 149.201H651.406C672.119 149.201 682.476 149.201 690.548 152.846C699.677 156.968 706.989 164.28 711.111 173.41C714.756 181.481 714.756 191.838 714.756 212.551V458.65C714.756 479.363 714.756 489.72 711.111 497.791C706.989 506.921 699.677 514.233 690.548 518.355C682.476 522 672.119 522 651.406 522H63.3615C42.6481 522 32.2914 522 24.2197 518.355C15.0901 514.233 7.77826 506.921 3.65607 497.791C0.0115356 489.72 0.0115356 479.363 0.0115356 458.65V63.432C0.0115356 42.7187 0.0115356 32.362 3.65607 24.2902C7.77826 15.1606 15.0901 7.84876 24.2197 3.72658C32.2914 0.0820312 42.6481 0.0820312 63.3615 0.0820312H207.517C217.499 0.0820312 222.49 0.0820312 227.155 1.18434C232.448 2.43479 237.439 4.72216 241.842 7.91416C245.723 10.7279 248.982 14.5079 255.499 22.0678L255.499 22.0683L346.143 127.215L346.143 127.215C352.661 134.775 355.919 138.555 359.8 141.369C364.203 144.561 369.195 146.849 374.487 148.099C379.152 149.201 384.143 149.201 394.125 149.201Z" fill="#C0C0C0"/>
<path d="M126.875 286.374L111.449 282.598L117.797 223.786H180.867V240.176H133.865L130.652 268.859C132.473 267.788 134.99 266.744 138.204 265.726C141.418 264.655 145.087 264.119 149.211 264.119C154.728 264.119 159.656 265.03 163.995 266.851C168.387 268.618 172.109 271.216 175.163 274.644C178.216 278.019 180.546 282.143 182.152 287.017C183.759 291.838 184.563 297.274 184.563 303.327C184.563 308.737 183.759 313.799 182.152 318.512C180.599 323.226 178.242 327.377 175.082 330.966C171.922 334.554 167.932 337.366 163.111 339.402C158.344 341.384 152.693 342.374 146.158 342.374C141.284 342.374 136.597 341.678 132.098 340.286C127.652 338.839 123.662 336.724 120.127 333.938C116.591 331.099 113.753 327.618 111.61 323.494C109.468 319.316 108.236 314.522 107.914 309.112H126.875C127.358 312.915 128.402 316.155 130.009 318.834C131.669 321.458 133.865 323.467 136.597 324.859C139.329 326.252 142.489 326.948 146.078 326.948C149.345 326.948 152.157 326.386 154.514 325.261C156.871 324.083 158.826 322.422 160.379 320.28C161.986 318.084 163.164 315.513 163.914 312.567C164.718 309.621 165.119 306.353 165.119 302.765C165.119 299.337 164.664 296.203 163.754 293.364C162.897 290.526 161.584 288.062 159.817 285.973C158.103 283.884 155.933 282.277 153.309 281.152C150.684 279.974 147.658 279.384 144.23 279.384C139.623 279.384 136.088 280.054 133.624 281.393C131.214 282.732 128.964 284.393 126.875 286.374ZM219.352 322.128L219.272 335.947C219.272 341.41 217.906 347.034 215.174 352.819C212.442 358.604 208.827 363.371 204.328 367.121L193.963 361.095C195.463 358.684 196.829 356.247 198.061 353.783C199.293 351.319 200.284 348.695 201.033 345.91C201.783 343.124 202.158 340.044 202.158 336.67V322.128H219.352ZM313.114 272.475V291.597C313.114 300.756 312.203 308.576 310.382 315.057C308.615 321.485 306.044 326.707 302.669 330.725C299.295 334.742 295.251 337.688 290.537 339.562C285.877 341.437 280.655 342.374 274.87 342.374C270.264 342.374 265.979 341.785 262.015 340.607C258.105 339.429 254.57 337.581 251.409 335.063C248.249 332.546 245.544 329.305 243.295 325.341C241.099 321.324 239.385 316.53 238.153 310.96C236.974 305.389 236.385 298.935 236.385 291.597V272.475C236.385 263.262 237.296 255.495 239.117 249.175C240.938 242.801 243.536 237.632 246.91 233.668C250.285 229.651 254.302 226.732 258.962 224.911C263.675 223.09 268.924 222.179 274.709 222.179C279.369 222.179 283.654 222.768 287.564 223.947C291.528 225.072 295.063 226.866 298.17 229.33C301.33 231.794 304.008 235.007 306.204 238.971C308.454 242.881 310.168 247.622 311.346 253.192C312.525 258.709 313.114 265.137 313.114 272.475ZM293.751 294.328V269.582C293.751 264.922 293.483 260.825 292.947 257.29C292.412 253.701 291.608 250.675 290.537 248.211C289.519 245.693 288.234 243.658 286.681 242.105C285.127 240.498 283.36 239.346 281.378 238.65C279.396 237.9 277.173 237.525 274.709 237.525C271.71 237.525 269.032 238.114 266.675 239.293C264.318 240.417 262.336 242.238 260.729 244.756C259.122 247.273 257.891 250.594 257.034 254.719C256.23 258.789 255.828 263.744 255.828 269.582V294.328C255.828 299.042 256.096 303.193 256.632 306.782C257.167 310.371 257.971 313.45 259.042 316.021C260.113 318.539 261.399 320.628 262.899 322.288C264.452 323.895 266.22 325.074 268.201 325.824C270.237 326.573 272.46 326.948 274.87 326.948C277.923 326.948 280.628 326.359 282.985 325.181C285.342 324.002 287.323 322.128 288.93 319.557C290.537 316.932 291.742 313.531 292.546 309.353C293.349 305.175 293.751 300.167 293.751 294.328ZM406.635 272.475V291.597C406.635 300.756 405.724 308.576 403.903 315.057C402.136 321.485 399.565 326.707 396.19 330.725C392.816 334.742 388.772 337.688 384.058 339.562C379.398 341.437 374.176 342.374 368.391 342.374C363.785 342.374 359.499 341.785 355.536 340.607C351.626 339.429 348.091 337.581 344.93 335.063C341.77 332.546 339.065 329.305 336.816 325.341C334.619 321.324 332.905 316.53 331.674 310.96C330.495 305.389 329.906 298.935 329.906 291.597V272.475C329.906 263.262 330.817 255.495 332.638 249.175C334.459 242.801 337.057 237.632 340.431 233.668C343.806 229.651 347.823 226.732 352.483 224.911C357.196 223.09 362.445 222.179 368.23 222.179C372.89 222.179 377.175 222.768 381.085 223.947C385.049 225.072 388.584 226.866 391.691 229.33C394.851 231.794 397.529 235.007 399.725 238.971C401.975 242.881 403.689 247.622 404.867 253.192C406.046 258.709 406.635 265.137 406.635 272.475ZM387.272 294.328V269.582C387.272 264.922 387.004 260.825 386.468 257.29C385.933 253.701 385.129 250.675 384.058 248.211C383.04 245.693 381.755 243.658 380.202 242.105C378.648 240.498 376.881 239.346 374.899 238.65C372.917 237.9 370.694 237.525 368.23 237.525C365.231 237.525 362.553 238.114 360.196 239.293C357.839 240.417 355.857 242.238 354.25 244.756C352.643 247.273 351.411 250.594 350.554 254.719C349.751 258.789 349.349 263.744 349.349 269.582V294.328C349.349 299.042 349.617 303.193 350.153 306.782C350.688 310.371 351.492 313.45 352.563 316.021C353.634 318.539 354.92 320.628 356.42 322.288C357.973 323.895 359.741 325.074 361.722 325.824C363.758 326.573 365.981 326.948 368.391 326.948C371.444 326.948 374.149 326.359 376.506 325.181C378.862 324.002 380.844 322.128 382.451 319.557C384.058 316.932 385.263 313.531 386.067 309.353C386.87 305.175 387.272 300.167 387.272 294.328ZM500.156 272.475V291.597C500.156 300.756 499.245 308.576 497.424 315.057C495.657 321.485 493.086 326.707 489.711 330.725C486.337 334.742 482.293 337.688 477.579 339.562C472.919 341.437 467.697 342.374 461.912 342.374C457.305 342.374 453.02 341.785 449.057 340.607C445.147 339.429 441.612 337.581 438.451 335.063C435.291 332.546 432.586 329.305 430.337 325.341C428.14 321.324 426.426 316.53 425.194 310.96C424.016 305.389 423.427 298.935 423.427 291.597V272.475C423.427 263.262 424.337 255.495 426.159 249.175C427.98 242.801 430.578 237.632 433.952 233.668C437.326 229.651 441.344 226.732 446.004 224.911C450.717 223.09 455.966 222.179 461.751 222.179C466.411 222.179 470.696 222.768 474.606 223.947C478.57 225.072 482.105 226.866 485.212 229.33C488.372 231.794 491.05 235.007 493.246 238.971C495.496 242.881 497.21 247.622 498.388 253.192C499.567 258.709 500.156 265.137 500.156 272.475ZM480.793 294.328V269.582C480.793 264.922 480.525 260.825 479.989 257.29C479.454 253.701 478.65 250.675 477.579 248.211C476.561 245.693 475.276 243.658 473.723 242.105C472.169 240.498 470.402 239.346 468.42 238.65C466.438 237.9 464.215 237.525 461.751 237.525C458.752 237.525 456.074 238.114 453.717 239.293C451.36 240.417 449.378 242.238 447.771 244.756C446.164 247.273 444.932 250.594 444.075 254.719C443.272 258.789 442.87 263.744 442.87 269.582V294.328C442.87 299.042 443.138 303.193 443.674 306.782C444.209 310.371 445.013 313.45 446.084 316.021C447.155 318.539 448.441 320.628 449.941 322.288C451.494 323.895 453.261 325.074 455.243 325.824C457.279 326.573 459.502 326.948 461.912 326.948C464.965 326.948 467.67 326.359 470.027 325.181C472.383 324.002 474.365 322.128 475.972 319.557C477.579 316.932 478.784 313.531 479.588 309.353C480.391 305.175 480.793 300.167 480.793 294.328ZM569.413 223.786L523.857 350.811H508.672L554.308 223.786H569.413ZM621.797 283.08V298.506H579.295V283.08H621.797Z" fill="white"/>
<path d="M119.747 428.455H110.699V383.928C110.699 380.899 111.262 378.359 112.388 376.306C113.54 374.229 115.179 372.664 117.307 371.613C119.434 370.537 121.95 369.999 124.853 369.999C125.754 369.999 126.643 370.061 127.519 370.187C128.395 370.287 129.246 370.449 130.072 370.675L129.846 377.658C129.346 377.533 128.795 377.445 128.194 377.395C127.619 377.345 126.993 377.32 126.317 377.32C124.941 377.32 123.752 377.583 122.75 378.108C121.774 378.609 121.023 379.347 120.498 380.323C119.997 381.3 119.747 382.501 119.747 383.928V428.455ZM128.119 387.832V394.44H104.466V387.832H128.119ZM132.962 408.594V407.731C132.962 404.802 133.388 402.087 134.239 399.584C135.09 397.056 136.316 394.866 137.918 393.013C139.545 391.136 141.523 389.684 143.85 388.658C146.203 387.607 148.856 387.081 151.81 387.081C154.788 387.081 157.441 387.607 159.769 388.658C162.122 389.684 164.112 391.136 165.738 393.013C167.365 394.866 168.604 397.056 169.455 399.584C170.306 402.087 170.732 404.802 170.732 407.731V408.594C170.732 411.523 170.306 414.238 169.455 416.741C168.604 419.244 167.365 421.434 165.738 423.312C164.112 425.164 162.134 426.615 159.807 427.667C157.479 428.693 154.838 429.206 151.885 429.206C148.906 429.206 146.241 428.693 143.888 427.667C141.56 426.615 139.583 425.164 137.956 423.312C136.329 421.434 135.09 419.244 134.239 416.741C133.388 414.238 132.962 411.523 132.962 408.594ZM142.011 407.731V408.594C142.011 410.421 142.198 412.148 142.574 413.775C142.949 415.402 143.537 416.829 144.338 418.055C145.139 419.282 146.165 420.245 147.417 420.946C148.668 421.647 150.158 421.997 151.885 421.997C153.562 421.997 155.013 421.647 156.24 420.946C157.491 420.245 158.517 419.282 159.318 418.055C160.119 416.829 160.708 415.402 161.083 413.775C161.483 412.148 161.684 410.421 161.684 408.594V407.731C161.684 405.929 161.483 404.227 161.083 402.625C160.708 400.998 160.107 399.559 159.281 398.307C158.48 397.056 157.454 396.08 156.202 395.379C154.976 394.653 153.512 394.29 151.81 394.29C150.108 394.29 148.631 394.653 147.379 395.379C146.153 396.08 145.139 397.056 144.338 398.307C143.537 399.559 142.949 400.998 142.574 402.625C142.198 404.227 142.011 405.929 142.011 407.731ZM187.401 395.566V428.455H178.353V387.832H186.988L187.401 395.566ZM199.829 387.57L199.753 395.979C199.203 395.879 198.602 395.804 197.951 395.754C197.326 395.704 196.7 395.679 196.074 395.679C194.522 395.679 193.158 395.904 191.982 396.355C190.805 396.78 189.817 397.406 189.016 398.232C188.24 399.033 187.639 400.009 187.214 401.16C186.788 402.312 186.538 403.601 186.463 405.028L184.398 405.178C184.398 402.625 184.648 400.259 185.149 398.082C185.649 395.904 186.4 393.99 187.401 392.338C188.428 390.686 189.704 389.397 191.231 388.471C192.783 387.544 194.572 387.081 196.6 387.081C197.15 387.081 197.739 387.131 198.364 387.232C199.015 387.332 199.503 387.444 199.829 387.57ZM242.554 429.206C239.55 429.206 236.835 428.718 234.407 427.742C232.004 426.741 229.951 425.351 228.249 423.574C226.573 421.797 225.283 419.707 224.382 417.304C223.481 414.902 223.031 412.311 223.031 409.533V408.031C223.031 404.852 223.494 401.974 224.42 399.396C225.346 396.818 226.635 394.615 228.287 392.788C229.939 390.936 231.891 389.522 234.144 388.546C236.397 387.57 238.837 387.081 241.465 387.081C244.368 387.081 246.909 387.57 249.086 388.546C251.264 389.522 253.066 390.898 254.493 392.676C255.945 394.428 257.021 396.518 257.722 398.945C258.447 401.373 258.81 404.051 258.81 406.98V410.847H227.424V404.352H249.875V403.638C249.825 402.011 249.499 400.485 248.899 399.058C248.323 397.631 247.435 396.48 246.233 395.604C245.032 394.728 243.43 394.29 241.427 394.29C239.926 394.29 238.587 394.615 237.41 395.266C236.259 395.892 235.295 396.805 234.519 398.007C233.743 399.208 233.143 400.66 232.717 402.362C232.317 404.039 232.117 405.929 232.117 408.031V409.533C232.117 411.31 232.354 412.962 232.83 414.489C233.33 415.99 234.056 417.304 235.007 418.431C235.959 419.557 237.11 420.446 238.461 421.096C239.813 421.722 241.352 422.035 243.079 422.035C245.257 422.035 247.197 421.597 248.899 420.721C250.601 419.845 252.077 418.606 253.329 417.004L258.097 421.622C257.221 422.899 256.082 424.125 254.681 425.301C253.279 426.453 251.564 427.391 249.537 428.117C247.535 428.843 245.207 429.206 242.554 429.206ZM288.771 420.308V400.935C288.771 399.484 288.508 398.232 287.982 397.181C287.457 396.13 286.656 395.316 285.579 394.74C284.528 394.165 283.202 393.877 281.6 393.877C280.123 393.877 278.846 394.127 277.77 394.628C276.694 395.128 275.855 395.804 275.255 396.655C274.654 397.506 274.354 398.47 274.354 399.546H265.343C265.343 397.944 265.731 396.392 266.507 394.891C267.283 393.389 268.409 392.05 269.886 390.873C271.363 389.697 273.127 388.771 275.18 388.095C277.232 387.419 279.535 387.081 282.088 387.081C285.141 387.081 287.845 387.595 290.197 388.621C292.575 389.647 294.44 391.199 295.791 393.276C297.168 395.329 297.856 397.907 297.856 401.01V419.069C297.856 420.921 297.981 422.586 298.232 424.062C298.507 425.514 298.895 426.778 299.396 427.854V428.455H290.122C289.697 427.479 289.359 426.24 289.109 424.738C288.883 423.211 288.771 421.735 288.771 420.308ZM290.085 403.751L290.16 409.345H283.665C281.988 409.345 280.511 409.508 279.234 409.833C277.958 410.134 276.894 410.584 276.043 411.185C275.192 411.785 274.554 412.511 274.128 413.362C273.703 414.213 273.49 415.177 273.49 416.253C273.49 417.329 273.74 418.318 274.241 419.219C274.742 420.095 275.467 420.784 276.419 421.284C277.395 421.785 278.571 422.035 279.948 422.035C281.8 422.035 283.414 421.66 284.791 420.909C286.193 420.133 287.294 419.194 288.095 418.093C288.896 416.967 289.321 415.903 289.371 414.902L292.3 418.919C291.999 419.945 291.486 421.046 290.76 422.223C290.035 423.399 289.083 424.525 287.907 425.602C286.756 426.653 285.367 427.516 283.74 428.192C282.138 428.868 280.286 429.206 278.183 429.206C275.53 429.206 273.165 428.68 271.087 427.629C269.01 426.553 267.383 425.114 266.207 423.312C265.03 421.484 264.442 419.419 264.442 417.117C264.442 414.964 264.842 413.062 265.643 411.41C266.469 409.733 267.671 408.331 269.248 407.205C270.85 406.079 272.802 405.228 275.105 404.652C277.407 404.051 280.035 403.751 282.989 403.751H290.085ZM323.912 421.997C325.389 421.997 326.715 421.71 327.892 421.134C329.093 420.533 330.057 419.707 330.783 418.656C331.533 417.605 331.946 416.391 332.021 415.014H340.544C340.494 417.642 339.718 420.033 338.216 422.185C336.714 424.338 334.725 426.052 332.247 427.329C329.769 428.58 327.028 429.206 324.025 429.206C320.921 429.206 318.218 428.68 315.915 427.629C313.612 426.553 311.698 425.076 310.171 423.199C308.644 421.322 307.493 419.157 306.717 416.704C305.966 414.251 305.59 411.623 305.59 408.819V407.505C305.59 404.702 305.966 402.074 306.717 399.621C307.493 397.143 308.644 394.966 310.171 393.088C311.698 391.211 313.612 389.747 315.915 388.696C318.218 387.62 320.908 387.081 323.987 387.081C327.241 387.081 330.094 387.732 332.547 389.034C335 390.31 336.927 392.1 338.329 394.403C339.756 396.68 340.494 399.333 340.544 402.362H332.021C331.946 400.86 331.571 399.509 330.895 398.307C330.244 397.081 329.318 396.105 328.117 395.379C326.94 394.653 325.526 394.29 323.874 394.29C322.047 394.29 320.533 394.665 319.332 395.416C318.13 396.142 317.192 397.143 316.516 398.42C315.84 399.671 315.352 401.085 315.052 402.662C314.776 404.214 314.639 405.828 314.639 407.505V408.819C314.639 410.496 314.776 412.123 315.052 413.7C315.327 415.277 315.802 416.691 316.478 417.943C317.179 419.169 318.13 420.158 319.332 420.909C320.533 421.635 322.06 421.997 323.912 421.997ZM356.425 370.787V428.455H347.415V370.787H356.425ZM354.848 406.642L351.92 406.604C351.945 403.801 352.333 401.211 353.084 398.833C353.86 396.455 354.936 394.39 356.313 392.638C357.714 390.861 359.391 389.497 361.343 388.546C363.296 387.57 365.461 387.081 367.839 387.081C369.841 387.081 371.643 387.357 373.245 387.907C374.872 388.458 376.274 389.347 377.45 390.573C378.626 391.774 379.515 393.351 380.116 395.304C380.741 397.231 381.054 399.584 381.054 402.362V428.455H371.968V402.287C371.968 400.335 371.681 398.783 371.105 397.631C370.554 396.48 369.741 395.654 368.665 395.153C367.588 394.628 366.274 394.365 364.722 394.365C363.096 394.365 361.656 394.69 360.405 395.341C359.178 395.992 358.152 396.88 357.326 398.007C356.5 399.133 355.875 400.435 355.449 401.911C355.049 403.388 354.848 404.965 354.848 406.642ZM430.95 373.791V428.455H421.602V373.791H430.95ZM448.108 373.791V381.3H404.594V373.791H448.108ZM460.798 395.566V428.455H451.75V387.832H460.385L460.798 395.566ZM473.225 387.57L473.15 395.979C472.599 395.879 471.999 395.804 471.348 395.754C470.722 395.704 470.096 395.679 469.471 395.679C467.919 395.679 466.555 395.904 465.378 396.355C464.202 396.78 463.213 397.406 462.412 398.232C461.636 399.033 461.036 400.009 460.61 401.16C460.185 402.312 459.934 403.601 459.859 405.028L457.794 405.178C457.794 402.625 458.045 400.259 458.545 398.082C459.046 395.904 459.797 393.99 460.798 392.338C461.824 390.686 463.101 389.397 464.627 388.471C466.179 387.544 467.969 387.081 469.996 387.081C470.547 387.081 471.135 387.131 471.761 387.232C472.412 387.332 472.9 387.444 473.225 387.57ZM500.444 420.308V400.935C500.444 399.484 500.182 398.232 499.656 397.181C499.13 396.13 498.329 395.316 497.253 394.74C496.202 394.165 494.875 393.877 493.274 393.877C491.797 393.877 490.52 394.127 489.444 394.628C488.368 395.128 487.529 395.804 486.929 396.655C486.328 397.506 486.028 398.47 486.028 399.546H477.017C477.017 397.944 477.405 396.392 478.181 394.891C478.957 393.389 480.083 392.05 481.56 390.873C483.037 389.697 484.801 388.771 486.854 388.095C488.906 387.419 491.209 387.081 493.762 387.081C496.815 387.081 499.518 387.595 501.871 388.621C504.249 389.647 506.114 391.199 507.465 393.276C508.842 395.329 509.53 397.907 509.53 401.01V419.069C509.53 420.921 509.655 422.586 509.906 424.062C510.181 425.514 510.569 426.778 511.069 427.854V428.455H501.796C501.371 427.479 501.033 426.24 500.782 424.738C500.557 423.211 500.444 421.735 500.444 420.308ZM501.759 403.751L501.834 409.345H495.338C493.662 409.345 492.185 409.508 490.908 409.833C489.632 410.134 488.568 410.584 487.717 411.185C486.866 411.785 486.228 412.511 485.802 413.362C485.377 414.213 485.164 415.177 485.164 416.253C485.164 417.329 485.414 418.318 485.915 419.219C486.415 420.095 487.141 420.784 488.092 421.284C489.069 421.785 490.245 422.035 491.622 422.035C493.474 422.035 495.088 421.66 496.465 420.909C497.866 420.133 498.968 419.194 499.769 418.093C500.57 416.967 500.995 415.903 501.045 414.902L503.974 418.919C503.673 419.945 503.16 421.046 502.434 422.223C501.708 423.399 500.757 424.525 499.581 425.602C498.43 426.653 497.04 427.516 495.414 428.192C493.812 428.868 491.96 429.206 489.857 429.206C487.204 429.206 484.839 428.68 482.761 427.629C480.684 426.553 479.057 425.114 477.88 423.312C476.704 421.484 476.116 419.419 476.116 417.117C476.116 414.964 476.516 413.062 477.317 411.41C478.143 409.733 479.345 408.331 480.922 407.205C482.523 406.079 484.476 405.228 486.778 404.652C489.081 404.051 491.709 403.751 494.663 403.751H501.759ZM535.586 421.997C537.063 421.997 538.389 421.71 539.565 421.134C540.767 420.533 541.731 419.707 542.456 418.656C543.207 417.605 543.62 416.391 543.695 415.014H552.218C552.168 417.642 551.392 420.033 549.89 422.185C548.388 424.338 546.399 426.052 543.921 427.329C541.443 428.58 538.702 429.206 535.698 429.206C532.595 429.206 529.892 428.68 527.589 427.629C525.286 426.553 523.371 425.076 521.845 423.199C520.318 421.322 519.166 419.157 518.391 416.704C517.64 414.251 517.264 411.623 517.264 408.819V407.505C517.264 404.702 517.64 402.074 518.391 399.621C519.166 397.143 520.318 394.966 521.845 393.088C523.371 391.211 525.286 389.747 527.589 388.696C529.892 387.62 532.582 387.081 535.661 387.081C538.915 387.081 541.768 387.732 544.221 389.034C546.674 390.31 548.601 392.1 550.003 394.403C551.429 396.68 552.168 399.333 552.218 402.362H543.695C543.62 400.86 543.245 399.509 542.569 398.307C541.918 397.081 540.992 396.105 539.791 395.379C538.614 394.653 537.2 394.29 535.548 394.29C533.721 394.29 532.207 394.665 531.005 395.416C529.804 396.142 528.865 397.143 528.19 398.42C527.514 399.671 527.026 401.085 526.725 402.662C526.45 404.214 526.312 405.828 526.312 407.505V408.819C526.312 410.496 526.45 412.123 526.725 413.7C527.001 415.277 527.476 416.691 528.152 417.943C528.853 419.169 529.804 420.158 531.005 420.909C532.207 421.635 533.734 421.997 535.586 421.997ZM568.287 370.787V428.455H559.201V370.787H568.287ZM593.516 387.832L575.833 407.43L566.147 417.342L563.781 409.683L571.103 400.635L582.591 387.832H593.516ZM584.543 428.455L571.365 409.383L577.072 403.038L595.018 428.455H584.543Z" fill="white"/>
</svg>
