<svg width="43" height="19" viewBox="0 0 43 19" fill="none" xmlns="http://www.w3.org/2000/svg">
<path d="M33.7421 1.10858e-07L31.6395 1.19253e-07C31.5046 1.19791e-07 31.3752 0.053593 31.2798 0.148989C31.1844 0.244385 31.1308 0.373769 31.1308 0.50868L31.1308 7.08771C31.1308 7.22262 31.0772 7.352 30.9819 7.4474C30.8865 7.5428 30.7571 7.59639 30.6222 7.59639L27.7056 7.59639C27.5707 7.59639 27.4414 7.5428 27.346 7.4474C27.2506 7.352 27.197 7.22262 27.197 7.08771L27.197 0.50868C27.197 0.441879 27.1838 0.375732 27.1582 0.314016C27.1327 0.252301 27.0952 0.196224 27.048 0.148989C27.0007 0.101754 26.9447 0.0642846 26.883 0.0387211C26.8212 0.0131575 26.7551 1.38755e-07 26.6883 1.39022e-07L24.7214 1.46875e-07C24.5865 1.43968e-07 24.4571 0.0535894 24.3617 0.148982C24.2663 0.244375 24.2126 0.373759 24.2126 0.50868L24.2126 14.7726C24.2127 14.9039 24.162 15.0301 24.0711 15.1248C23.9803 15.2196 23.8563 15.2755 23.7252 15.281L22.8262 15.3185C22.7508 15.3216 22.6756 15.3079 22.6062 15.2784C22.5368 15.2489 22.4747 15.2044 22.4246 15.1479L19.0741 11.3731C18.9016 11.1783 18.903 10.8833 19.0888 10.7008C20.2939 9.51808 21.5587 8.83118 21.5587 5.84108C21.5587 2.85718 19.058 0.0678394 15.4632 0.0678395L9.93544 0.0678395C9.80054 0.06787 9.67117 0.121473 9.57578 0.216862C9.48039 0.312251 9.42679 0.441618 9.42676 0.576519L9.42676 17.872C9.42676 18.0069 9.48035 18.1363 9.57575 18.2317C9.67114 18.3271 9.80053 18.3806 9.93544 18.3806L11.9706 18.3806C12.1055 18.3806 12.2349 18.3271 12.3303 18.2317C12.4257 18.1363 12.4793 18.0069 12.4793 17.872L12.4793 12.3103C12.4793 12.2435 12.4925 12.1774 12.518 12.1156C12.5436 12.0539 12.581 11.9978 12.6283 11.9506C12.6755 11.9034 12.7316 11.8659 12.7933 11.8403C12.855 11.8148 12.9212 11.8016 12.988 11.8016L15.2347 11.8016C15.3067 11.8016 15.3778 11.8168 15.4435 11.8464C15.5091 11.8759 15.5677 11.919 15.6154 11.9728L21.1402 18.204C21.1892 18.2594 21.2497 18.3033 21.3175 18.3329C21.3852 18.3624 21.4586 18.3769 21.5325 18.3751L26.7005 18.2564C26.8333 18.2533 26.9597 18.1984 27.0526 18.1033C27.1454 18.0083 27.1974 17.8807 27.1974 17.7478L27.1974 10.8859C27.1975 10.751 27.2511 10.6216 27.3465 10.5262C27.4418 10.4309 27.5712 10.3773 27.7061 10.3772L30.6226 10.3772C30.7575 10.3773 30.8869 10.4309 30.9823 10.5262C31.0777 10.6216 31.1313 10.751 31.1313 10.8859L31.1313 17.7363C31.1313 17.8712 31.1849 18.0006 31.2803 18.096C31.3757 18.1914 31.5051 18.245 31.64 18.245L33.7425 18.245C33.8774 18.245 34.0068 18.1914 34.1022 18.096C34.1976 18.0006 34.2512 17.8712 34.2512 17.7363L34.2512 0.50868C34.2512 0.44184 34.238 0.375656 34.2125 0.31391C34.1869 0.252164 34.1493 0.196067 34.1021 0.148826C34.0548 0.101585 33.9987 0.0641254 33.9369 0.038589C33.8751 0.0130525 33.8089 -6.03229e-05 33.7421 1.10858e-07ZM15.4632 8.81727L12.9876 8.81727C12.8527 8.81727 12.7233 8.76367 12.6279 8.66828C12.5325 8.57288 12.4789 8.4435 12.4789 8.30859L12.4789 3.56087C12.4789 3.42595 12.5325 3.29656 12.6279 3.20114C12.7233 3.10573 12.8527 3.05211 12.9876 3.05208L15.4632 3.05208C16.735 3.05208 18.5154 3.75577 18.5154 5.84142C18.5154 7.92708 16.7011 8.81727 15.4632 8.81727Z" fill="#0CCA4A"/>
<path d="M5.8041 17.2844C5.86763 17.348 5.91791 17.4235 5.952 17.5066C5.9861 17.5898 6.00334 17.6789 6.00272 17.7687C6.0021 17.8586 5.98363 17.9474 5.94839 18.0301C5.91315 18.1128 5.86183 18.1876 5.79743 18.2503L5.51193 18.5281C5.38467 18.6519 5.21395 18.7209 5.03641 18.7202C4.85886 18.7196 4.68865 18.6493 4.56229 18.5246L0.201725 14.2192C0.137698 14.156 0.0868897 14.0807 0.0522575 13.9976C0.0176254 13.9146 -0.000138279 13.8255 8.30504e-07 13.7355C0.00013994 13.6455 0.0181791 13.5564 0.0530678 13.4735C0.0879566 13.3906 0.138998 13.3154 0.20322 13.2524L4.55586 8.98296C4.68347 8.85788 4.85529 8.78821 5.03398 8.78907C5.21267 8.78993 5.3838 8.86126 5.51021 8.98756L5.80651 9.28352C5.86983 9.34686 5.91997 9.42211 5.95406 9.50493C5.98815 9.58774 6.0055 9.67649 6.00511 9.76605C6.00473 9.8556 5.98662 9.9442 5.95182 10.0267C5.91702 10.1092 5.86623 10.1841 5.80237 10.2468L2.74236 13.2555C2.67853 13.3183 2.62776 13.3931 2.59299 13.4756C2.55821 13.5581 2.54011 13.6467 2.53974 13.7362C2.53936 13.8258 2.55672 13.9145 2.59081 13.9973C2.62489 14.0801 2.67503 14.1553 2.73834 14.2187L5.8041 17.2844Z" fill="#0CCA4A"/>
<path d="M42.7985 5.52002L38.4378 9.82528C38.3115 9.94997 38.1413 10.0202 37.9638 10.0208C37.7863 10.0215 37.6156 9.9525 37.4883 9.82873L37.2028 9.55082C37.1384 9.48815 37.0871 9.41331 37.0518 9.33065C37.0166 9.24799 36.9981 9.15915 36.9975 9.06929C36.9969 8.97943 37.0141 8.89034 37.0482 8.8072C37.0823 8.72406 37.1326 8.64852 37.1961 8.58497L40.262 5.51933C40.3253 5.45598 40.3755 5.38073 40.4095 5.29791C40.4436 5.21509 40.461 5.12634 40.4606 5.03678C40.4602 4.94722 40.442 4.85863 40.4072 4.77612C40.3724 4.6936 40.3216 4.61879 40.2578 4.55601L37.1979 1.54762C37.134 1.48484 37.0832 1.41004 37.0484 1.32753C37.0136 1.24503 36.9955 1.15645 36.9951 1.06691C36.9947 0.977366 37.0121 0.888631 37.0461 0.805821C37.0802 0.723011 37.1303 0.647765 37.1936 0.584421L37.4898 0.288343C37.6162 0.162041 37.7873 0.0907128 37.966 0.0898516C38.1447 0.0889905 38.3165 0.158666 38.4442 0.283743L42.797 4.55302C42.8613 4.61605 42.9123 4.69123 42.9472 4.77418C42.9821 4.85714 43.0002 4.94621 43.0003 5.0362C43.0004 5.1262 42.9827 5.21533 42.948 5.29839C42.9134 5.38145 42.8626 5.45679 42.7985 5.52002Z" fill="#0CCA4A"/>
</svg>
