<svg width="131" height="57" viewBox="0 0 131 57" fill="none" xmlns="http://www.w3.org/2000/svg">
<path d="M102.366 6.43172e-07H95.8628C95.4455 6.43172e-07 95.0453 0.165765 94.7503 0.460826C94.4552 0.755888 94.2894 1.15608 94.2894 1.57336V21.9224C94.2894 22.3397 94.1237 22.7399 93.8286 23.035C93.5336 23.33 93.1334 23.4958 92.7161 23.4958H83.6952C83.278 23.4958 82.8778 23.33 82.5827 23.035C82.2876 22.7399 82.1219 22.3397 82.1219 21.9224V1.57336C82.1219 1.36674 82.0812 1.16215 82.0021 0.97126C81.923 0.780372 81.8071 0.606926 81.661 0.460826C81.5149 0.314727 81.3415 0.198834 81.1506 0.119765C80.9597 0.0406967 80.7551 6.43172e-07 80.5485 6.43172e-07H74.4649C74.0476 6.32515e-07 73.6474 0.165753 73.3523 0.460805C73.0571 0.755856 72.8913 1.15605 72.8912 1.57336V45.6921C72.8914 46.0981 72.7346 46.4884 72.4536 46.7814C72.1726 47.0744 71.7893 47.2475 71.3836 47.2644L68.6029 47.3803C68.3697 47.39 68.1373 47.3477 67.9225 47.2565C67.7077 47.1653 67.5159 47.0274 67.361 46.8529L56.9976 35.1772C56.4641 34.5747 56.4684 33.6622 57.0431 33.0978C60.7706 29.4396 64.6826 27.315 64.6826 18.0666C64.6826 8.83733 56.9478 0.209829 45.829 0.209829H28.7316C28.3143 0.209923 27.9142 0.375718 27.6191 0.670759C27.3241 0.9658 27.1583 1.36594 27.1582 1.78319V55.2784C27.1582 55.6957 27.324 56.0959 27.619 56.3909C27.9141 56.686 28.3143 56.8518 28.7316 56.8518H35.0264C35.4437 56.8518 35.8439 56.686 36.1389 56.3909C36.434 56.0959 36.5998 55.6957 36.5998 55.2784V38.076C36.5998 37.8694 36.6405 37.6648 36.7195 37.4739C36.7986 37.2831 36.9145 37.1096 37.0606 36.9635C37.2067 36.8174 37.3801 36.7015 37.571 36.6224C37.7619 36.5434 37.9665 36.5027 38.1731 36.5027H45.1224C45.3449 36.5026 45.565 36.5498 45.768 36.641C45.971 36.7323 46.1523 36.8657 46.2999 37.0322L63.3881 56.3055C63.5397 56.4767 63.7268 56.6127 63.9364 56.7041C64.146 56.7955 64.373 56.84 64.6016 56.8347L80.5862 56.4673C80.9971 56.4578 81.388 56.288 81.6752 55.994C81.9625 55.7 82.1233 55.3053 82.1233 54.8943V33.6704C82.1234 33.2531 82.2892 32.853 82.5842 32.5579C82.8793 32.2629 83.2794 32.0971 83.6967 32.097H92.7175C93.1348 32.0971 93.5349 32.2629 93.8299 32.5579C94.125 32.853 94.2908 33.2531 94.2909 33.6704V54.8588C94.2909 55.276 94.4566 55.6762 94.7517 55.9713C95.0467 56.2663 95.4469 56.4321 95.8642 56.4321H102.367C102.785 56.4321 103.185 56.2663 103.48 55.9713C103.775 55.6762 103.941 55.276 103.941 54.8588V1.57336C103.941 1.36662 103.9 1.16191 103.821 0.970932C103.742 0.77995 103.626 0.606442 103.479 0.460323C103.333 0.314205 103.16 0.198342 102.969 0.119357C102.778 0.0403719 102.573 -0.000186279 102.366 6.43172e-07ZM45.829 27.272H38.1721C37.7548 27.272 37.3546 27.1062 37.0595 26.8112C36.7645 26.5161 36.5987 26.1159 36.5987 25.6986V11.0139C36.5987 10.5965 36.7645 10.1963 37.0595 9.9012C37.3546 9.60608 37.7547 9.44024 38.1721 9.44015H45.829C49.7628 9.44015 55.2695 11.6167 55.2695 18.0677C55.2695 24.5186 49.6579 27.272 45.829 27.272Z" fill="#0CCA4A"/>
<path d="M17.9522 52.2763C18.1487 52.4729 18.3042 52.7065 18.4097 52.9637C18.5151 53.2209 18.5685 53.4964 18.5665 53.7743C18.5646 54.0523 18.5075 54.3271 18.3985 54.5827C18.2895 54.8384 18.1308 55.0699 17.9316 55.2637L17.0485 56.123C16.6549 56.5059 16.1269 56.7193 15.5777 56.7173C15.0286 56.7153 14.5021 56.4981 14.1113 56.1123L0.62394 42.7956C0.425904 42.6001 0.268752 42.3671 0.161634 42.1102C0.0545157 41.8533 -0.000427762 41.5777 2.50768e-06 41.2994C0.000432778 41.0211 0.0562282 40.7456 0.16414 40.4891C0.272052 40.2325 0.429923 40 0.628563 39.8051L14.0914 26.5997C14.4861 26.2129 15.0175 25.9974 15.5702 26C16.1229 26.0027 16.6522 26.2233 17.0432 26.614L17.9597 27.5294C18.1555 27.7253 18.3106 27.958 18.4161 28.2142C18.5215 28.4703 18.5751 28.7448 18.574 29.0218C18.5728 29.2988 18.5167 29.5729 18.4091 29.8281C18.3015 30.0833 18.1444 30.3147 17.9469 30.5089L8.48219 39.8147C8.28476 40.0089 8.12773 40.2403 8.02017 40.4955C7.9126 40.7507 7.85663 41.0247 7.85547 41.3017C7.85431 41.5786 7.908 41.8531 8.01343 42.1092C8.11886 42.3653 8.27394 42.598 8.46975 42.7939L17.9522 52.2763Z" fill="#0CCA4A"/>
<path d="M130.376 17.074L116.888 30.3903C116.497 30.7759 115.971 30.9931 115.422 30.9951C114.873 30.997 114.345 30.7837 113.951 30.4009L113.068 29.5413C112.869 29.3475 112.71 29.116 112.601 28.8604C112.492 28.6047 112.435 28.3299 112.433 28.052C112.431 27.774 112.485 27.4985 112.59 27.2413C112.696 26.9841 112.851 26.7505 113.048 26.5539L122.53 17.0718C122.726 16.8759 122.881 16.6431 122.987 16.387C123.092 16.1308 123.146 15.8563 123.144 15.5793C123.143 15.3023 123.087 15.0283 122.98 14.7731C122.872 14.5178 122.715 14.2865 122.517 14.0923L113.053 4.78727C112.855 4.59308 112.698 4.36172 112.591 4.10653C112.483 3.85133 112.427 3.57736 112.426 3.3004C112.425 3.02345 112.478 2.74899 112.584 2.49286C112.689 2.23672 112.844 2.00398 113.04 1.80806L113.956 0.892282C114.347 0.501628 114.876 0.281008 115.429 0.278345C115.982 0.275681 116.513 0.491189 116.908 0.878057L130.371 14.083C130.57 14.278 130.728 14.5105 130.836 14.7671C130.944 15.0237 131 15.2992 131 15.5775C131 15.8559 130.945 16.1316 130.838 16.3885C130.731 16.6454 130.574 16.8784 130.376 17.074Z" fill="#0CCA4A"/>
</svg>
