<svg width="558" height="3027" viewBox="0 0 558 3027" fill="none" xmlns="http://www.w3.org/2000/svg">
<path d="M536.215 209.066C536.215 214.957 540.991 219.733 546.882 219.733C552.773 219.733 557.549 214.957 557.549 209.066C557.549 203.175 552.773 198.4 546.882 198.4C540.991 198.4 536.215 203.175 536.215 209.066ZM544.885 209.168C546.272 236.444 535.418 277.905 498.034 313.091C460.669 348.26 396.628 377.314 291.398 379.407L291.478 383.406C397.402 381.299 462.499 352.031 500.776 316.004C539.034 279.995 550.325 237.386 548.879 208.965L544.885 209.168ZM291.398 379.407C79.7202 383.618 8 490.514 8 544.482H12C12 493.669 80.8489 387.596 291.478 383.406L291.398 379.407ZM8 544.482V815.037H12V544.482H8Z" fill="url(#paint0_linear_1228_4070)"/>
<path d="M0.333353 10.9793C0.322463 16.8704 5.08926 21.6552 10.9803 21.6666C16.8713 21.6781 21.6558 16.9117 21.6666 11.0207C21.6775 5.12963 16.9107 0.344762 11.0197 0.333352C5.12869 0.321942 0.344243 5.08831 0.333353 10.9793ZM11.9886 558.118L13 11.0039L9 10.9961L7.98865 558.11L11.9886 558.118Z" fill="url(#paint1_linear_1228_4070)"/>
<path d="M10 815L9.99995 1923.56" stroke="url(#paint2_linear_1228_4070)" stroke-width="4"/>
<path d="M10 1918L9.99995 3026.56" stroke="url(#paint3_linear_1228_4070)" stroke-width="4"/>
<g clip-path="url(#clip0_1228_4070)">
<path d="M13 1742.42C18.1811 1714.11 28.1299 1686.51 43.8059 1673.6C49.607 1669.81 55.408 1666.9 60.5595 1660.82C67.0577 1653.27 72.4351 1643.04 76.2338 1630.99C80.0324 1618.95 82.1397 1605.44 82.3761 1591.63C82.2433 1535.01 82.0071 1450.18 82.258 1393.3C82.258 1384.23 82.509 1366.82 82.3614 1357.86C82.0916 1343.27 79.7723 1329.04 75.6156 1316.46C71.8648 1305.22 66.7072 1295.67 60.5448 1288.57C55.408 1282.49 49.607 1279.58 43.8059 1275.79C35.4107 1268.65 28.244 1257.63 23.0522 1243.88C18.7025 1232.56 15.3152 1220.16 13 1207.08C15.8788 1219.6 19.7026 1231.36 24.3659 1242.04C29.7263 1254.67 36.851 1264.59 45.0311 1270.8C45.7544 1271.27 48.1604 1272.53 48.9427 1273C61.6061 1278.51 72.5694 1292.58 79.5125 1312.23C84.8742 1327.36 87.7055 1344.91 87.6753 1362.8C87.6753 1369.06 87.8081 1386.83 87.8376 1393.35C87.8376 1452.78 88.4871 1538.32 87.3358 1597.42C86.5037 1611.6 83.8331 1625.23 79.5347 1637.26C75.2363 1649.29 69.4276 1659.37 62.567 1666.71C57.5483 1672.15 51.8359 1675.02 46.3301 1677.99C30.2407 1687.98 19.421 1715.29 13 1742.42Z" fill="#30A044"/>
</g>
<defs>
<linearGradient id="paint0_linear_1228_4070" x1="278.5" y1="209.066" x2="278.5" y2="815.037" gradientUnits="userSpaceOnUse">
<stop offset="0.770833" stop-color="#753FC7"/>
<stop offset="1" stop-color="white" stop-opacity="0.54"/>
</linearGradient>
<linearGradient id="paint1_linear_1228_4070" x1="11.5" y1="11.001" x2="10.4403" y2="558.115" gradientUnits="userSpaceOnUse">
<stop stop-color="white"/>
<stop offset="0.03125" stop-color="#7640C7"/>
</linearGradient>
<linearGradient id="paint2_linear_1228_4070" x1="10.5" y1="815" x2="10.5" y2="1923.56" gradientUnits="userSpaceOnUse">
<stop offset="0.713542" stop-color="#2FA043"/>
<stop offset="1" stop-color="#EC6548"/>
</linearGradient>
<linearGradient id="paint3_linear_1228_4070" x1="10.5" y1="1918" x2="10.5" y2="3026.56" gradientUnits="userSpaceOnUse">
<stop offset="0.354167" stop-color="#EC6548"/>
<stop offset="1" stop-color="#939AFF"/>
</linearGradient>
<clipPath id="clip0_1228_4070">
<rect width="75" height="535.343" fill="white" transform="translate(13 1207.08)"/>
</clipPath>
</defs>
</svg>