<svg width="570" height="3211" viewBox="0 0 570 3211" fill="none" xmlns="http://www.w3.org/2000/svg">
<path d="M548.215 209.066C548.215 214.957 552.991 219.733 558.882 219.733C564.773 219.733 569.549 214.957 569.549 209.066C569.549 203.175 564.773 198.4 558.882 198.4C552.991 198.4 548.215 203.175 548.215 209.066ZM556.885 209.168C558.272 236.444 547.418 277.905 510.034 313.091C472.669 348.26 408.628 377.314 303.398 379.407L303.478 383.406C409.402 381.299 474.499 352.031 512.776 316.004C551.034 279.995 562.325 237.386 560.879 208.965L556.885 209.168ZM303.398 379.407C91.7202 383.618 20 490.514 20 544.482H24C24 493.669 92.8489 387.596 303.478 383.406L303.398 379.407ZM20 544.482V815.037H24V544.482H20Z" fill="url(#paint0_linear_1165_3684)"/>
<path d="M12.3334 10.9793C12.3225 16.8704 17.0893 21.6552 22.9803 21.6666C28.8713 21.6781 33.6558 16.9117 33.6666 11.0207C33.6775 5.12963 28.9107 0.344762 23.0197 0.333352C17.1287 0.321942 12.3442 5.08831 12.3334 10.9793ZM23.9886 558.118L25 11.0039L21 10.9961L19.9887 558.11L23.9886 558.118Z" fill="url(#paint1_linear_1165_3684)"/>
<g clip-path="url(#clip0_1165_3684)">
<path d="M40.1599 866.769C39.5911 867.258 39.0472 867.776 38.5304 868.322C36.2858 871.024 34.764 871.079 32.6361 868.322C31.3837 866.709 30.4454 866.884 29.2962 868.423C27.4601 870.886 25.6196 870.955 23.797 868.754C21.9744 866.553 21.8128 866.571 19.9857 868.754C18.2753 870.808 16.3674 870.822 14.7109 868.791C12.8749 866.548 12.6953 866.544 10.9131 868.713C9.13093 870.881 7.32181 870.84 5.52615 868.653C5.07723 868.097 4.47568 867.637 3.73048 866.925V879.879H40.1599V866.769ZM3.63621 864.821C4.83931 865.946 5.88079 866.783 6.74719 867.771C7.79766 868.965 8.67304 868.988 9.71003 867.771C12.2599 864.788 13.3732 864.775 15.8736 867.734C16.9106 868.961 17.7636 868.97 18.8095 867.757C21.3684 864.775 22.4592 864.765 24.9731 867.757C26.0057 868.975 26.8541 869.002 27.9046 867.757C30.4544 864.77 31.5587 864.779 34.0682 867.757C35.0872 868.961 35.9671 868.988 37.031 867.794C37.9288 866.81 38.9344 865.956 40.1465 864.83C40.3664 862.169 39.5539 861.186 36.6135 861.186C26.8122 861.186 17.0109 861.186 7.20958 861.186C4.25123 861.186 3.45216 862.132 3.63621 864.821ZM34.6922 859.495C35.2488 856.568 35.0468 854.128 32.6316 852.088C31.2849 850.934 30.5217 850.709 29.3905 852.175C27.2896 854.891 25.669 854.891 23.5052 852.175C22.356 850.732 21.4581 850.709 20.2999 852.175C18.1272 854.932 16.5695 854.858 14.3743 852.239C13.9253 851.72 12.7986 851.017 12.6684 851.141C11.3216 852.428 9.84471 853.705 9.00973 855.318C8.45756 856.389 8.90648 857.997 8.90648 859.513L34.6922 859.495ZM34.7505 852.313C35.1321 846.762 34.6069 846.169 29.7765 846.169C24.1831 846.169 18.5851 846.169 12.9916 846.169C9.29703 846.169 7.97722 848.264 9.34192 851.89C12.1521 848.604 13.0185 848.563 16.0083 851.78C17.3191 853.158 18.1496 852.46 19.0654 851.283C20.9464 848.866 22.7645 848.807 24.5691 851.008C26.3738 853.209 26.5129 853.158 28.3894 850.93C30.0818 848.922 31.9268 848.935 33.6597 850.976C33.9335 851.32 34.1984 851.642 34.7505 852.313ZM21.8981 883.614C28.551 883.614 35.1994 883.642 41.8479 883.578C42.4988 883.578 43.1452 883.008 43.7962 882.705C43.1452 882.328 42.4943 881.62 41.8434 881.62C28.5465 881.556 15.2467 881.556 1.9438 881.62C1.29736 881.62 0.646438 882.19 0 882.493C0.650927 882.87 1.29736 883.569 1.95278 883.573C8.60121 883.647 15.2631 883.614 21.8981 883.614ZM21.5479 836.221L20.9419 836.657C20.9419 838.923 20.897 841.188 20.9868 843.449C20.9868 843.858 21.5524 844.248 21.8532 844.648C22.1899 844.28 22.7914 843.927 22.8139 843.541C22.9351 841.571 22.9351 839.596 22.8139 837.627C22.76 837.126 21.9968 836.685 21.5479 836.221Z" fill="black"/>
<path d="M21.3056 834.598C20.7803 833.794 19.7523 832.939 19.8331 832.195C19.9813 830.665 19.887 828.303 21.9475 828.344C22.6792 828.344 23.6085 830.844 23.9542 832.324C24.0978 832.921 22.9261 833.845 22.3515 834.621L21.3056 834.598Z" fill="white"/>
<path d="M40.1597 866.768V879.891H3.7168V866.942C4.45751 867.654 5.06354 868.114 5.51246 868.67C7.34403 870.857 9.13969 870.894 10.8994 868.73C12.6592 866.565 12.8612 866.565 14.6973 868.808C16.3538 870.839 18.2616 870.825 19.972 868.771C21.7991 866.575 21.9697 866.575 23.7833 868.771C25.5969 870.967 27.4465 870.903 29.2825 868.44C30.4317 866.901 31.37 866.726 32.6224 868.339C34.7503 871.096 36.2631 871.027 38.5167 868.339C39.0374 867.787 39.5858 867.262 40.1597 866.768Z" fill="white"/>
<path d="M3.63627 864.82C3.45221 862.132 4.25128 861.186 7.22759 861.186C17.0289 861.186 26.8302 861.186 36.6315 861.186C39.5719 861.186 40.3845 862.169 40.1645 864.829C38.9524 865.969 37.9199 866.81 37.049 867.793C35.9851 868.988 35.1052 868.96 34.0862 867.757C31.5767 864.788 30.4949 864.779 27.9226 867.757C26.8721 868.983 26.0237 868.956 24.9912 867.757C22.4772 864.784 21.3998 864.793 18.8276 867.757C17.7816 868.97 16.9286 868.96 15.8917 867.734C13.3912 864.774 12.3003 864.788 9.72805 867.77C8.69105 868.979 7.81567 868.956 6.76521 867.77C5.87635 866.782 4.83936 865.946 3.63627 864.82Z" fill="white"/>
<path d="M34.6917 859.493H8.906C8.906 857.977 8.45709 856.368 9.00925 855.298C9.84423 853.685 11.3346 852.407 12.6679 851.121C12.7981 850.997 13.9383 851.7 14.3738 852.219C16.569 854.838 18.1267 854.889 20.2995 852.155C21.4577 850.703 22.3555 850.726 23.5047 852.155C25.6685 854.875 27.2891 854.875 29.39 852.155C30.5213 850.689 31.2665 850.914 32.6312 852.067C35.0463 854.126 35.2483 856.566 34.6917 859.493Z" fill="white"/>
<path d="M34.75 852.311C34.1978 851.64 33.933 851.318 33.6681 850.988C31.9353 848.947 30.0768 848.934 28.3979 850.942C26.5214 853.17 26.3463 853.175 24.5776 851.02C22.8089 848.865 20.9549 848.878 19.0739 851.295C18.1761 852.472 17.3276 853.193 16.0168 851.792C13.018 848.575 12.1606 848.603 9.35039 851.893C8.00365 848.267 9.3055 846.181 13.0001 846.172C18.5936 846.172 24.1915 846.172 29.785 846.172C34.6064 846.167 35.1316 846.76 34.75 852.311Z" fill="white"/>
<path d="M21.8981 883.614C15.2496 883.614 8.60121 883.646 1.95278 883.563C1.29736 883.563 0.650927 882.861 0 882.484C0.646438 882.181 1.29736 881.611 1.9438 881.611C15.2467 881.559 28.5465 881.559 41.8434 881.611C42.4943 881.611 43.1452 882.319 43.7962 882.695C43.1452 882.999 42.4988 883.559 41.8479 883.568C35.1994 883.642 28.551 883.614 21.8981 883.614Z" fill="white"/>
<path d="M21.5482 836.221C21.9971 836.68 22.7648 837.14 22.8007 837.627C22.9219 839.596 22.9219 841.571 22.8007 843.541C22.7782 843.927 22.1767 844.28 21.84 844.648C21.5392 844.248 20.9871 843.858 20.9736 843.449C20.8838 841.188 20.9287 838.923 20.9287 836.657L21.5482 836.221Z" fill="white"/>
</g>
<path d="M21 914.326L21 2022.88" stroke="url(#paint2_linear_1165_3684)" stroke-width="4"/>
<path d="M21 2101.7L21 3210.26" stroke="url(#paint3_linear_1165_3684)" stroke-width="4"/>
<g clip-path="url(#clip1_1165_3684)">
<path d="M25 1742.42C30.1811 1714.11 40.1299 1686.51 55.8059 1673.6C61.607 1669.81 67.408 1666.9 72.5595 1660.82C79.0577 1653.27 84.4351 1643.04 88.2338 1630.99C92.0324 1618.95 94.1397 1605.44 94.3761 1591.63C94.2433 1535.01 94.0071 1450.18 94.258 1393.3C94.258 1384.23 94.509 1366.82 94.3614 1357.86C94.0916 1343.27 91.7723 1329.04 87.6156 1316.46C83.8648 1305.22 78.7072 1295.67 72.5448 1288.57C67.408 1282.49 61.607 1279.58 55.8059 1275.79C47.4107 1268.65 40.244 1257.63 35.0522 1243.88C30.7025 1232.56 27.3152 1220.16 25 1207.08C27.8788 1219.6 31.7026 1231.36 36.3659 1242.04C41.7263 1254.67 48.851 1264.59 57.0311 1270.8C57.7544 1271.27 60.1604 1272.53 60.9427 1273C73.6061 1278.51 84.5694 1292.58 91.5125 1312.23C96.8742 1327.36 99.7055 1344.91 99.6753 1362.8C99.6753 1369.06 99.8081 1386.83 99.8376 1393.35C99.8376 1452.78 100.487 1538.32 99.3358 1597.42C98.5037 1611.6 95.8331 1625.23 91.5347 1637.26C87.2363 1649.29 81.4276 1659.37 74.567 1666.71C69.5483 1672.15 63.8359 1675.02 58.3301 1677.99C42.2407 1687.98 31.421 1715.29 25 1742.42Z" fill="#30A044"/>
</g>
<g filter="url(#filter0_b_1165_3684)">
<circle cx="99.5" cy="1474.5" r="17.5" fill="#2FA043"/>
</g>
<circle cx="99.5" cy="1474.5" r="12.5" fill="white"/>
<circle cx="100" cy="1475" r="6" fill="#0D0F16"/>
<defs>
<filter id="filter0_b_1165_3684" x="62" y="1437" width="75" height="75" filterUnits="userSpaceOnUse" color-interpolation-filters="sRGB">
<feFlood flood-opacity="0" result="BackgroundImageFix"/>
<feGaussianBlur in="BackgroundImageFix" stdDeviation="10"/>
<feComposite in2="SourceAlpha" operator="in" result="effect1_backgroundBlur_1165_3684"/>
<feBlend mode="normal" in="SourceGraphic" in2="effect1_backgroundBlur_1165_3684" result="shape"/>
</filter>
<linearGradient id="paint0_linear_1165_3684" x1="290.5" y1="209.066" x2="290.5" y2="815.037" gradientUnits="userSpaceOnUse">
<stop offset="0.770833" stop-color="#753FC7"/>
<stop offset="1" stop-color="white" stop-opacity="0.54"/>
</linearGradient>
<linearGradient id="paint1_linear_1165_3684" x1="23.5" y1="11.001" x2="22.4403" y2="558.115" gradientUnits="userSpaceOnUse">
<stop stop-color="white"/>
<stop offset="0.03125" stop-color="#7640C7"/>
</linearGradient>
<linearGradient id="paint2_linear_1165_3684" x1="21.5" y1="914.326" x2="21.5" y2="2022.88" gradientUnits="userSpaceOnUse">
<stop offset="0.713542" stop-color="#2FA043"/>
<stop offset="1" stop-color="#EC6548"/>
</linearGradient>
<linearGradient id="paint3_linear_1165_3684" x1="21.5" y1="2101.7" x2="21.5" y2="3210.26" gradientUnits="userSpaceOnUse">
<stop offset="0.354167" stop-color="#EC6548"/>
<stop offset="1" stop-color="#939AFF"/>
</linearGradient>
<clipPath id="clip0_1165_3684">
<rect width="43.7962" height="55.2744" fill="white" transform="translate(0 828.344)"/>
</clipPath>
<clipPath id="clip1_1165_3684">
<rect width="75" height="535.343" fill="white" transform="translate(25 1207.08)"/>
</clipPath>
</defs>
</svg>
