<svg xmlns="http://www.w3.org/2000/svg" version="1.1" xmlns:xlink="http://www.w3.org/1999/xlink" width="512" height="512" x="0" y="0" viewBox="0 0 64 64" style="enable-background:new 0 0 512 512" xml:space="preserve" class=""><g><path d="M33.26 30.72 42 26.69V32a.984.984 0 0 1-.2.6A12.513 12.513 0 0 1 32 37a12.513 12.513 0 0 1-9.8-4.4.984.984 0 0 1-.2-.6v-5.31l8.75 4.04A2.991 2.991 0 0 0 32 31a2.929 2.929 0 0 0 1.26-.28zM32 29a1.005 1.005 0 0 0 .419-.092l13-6a1 1 0 0 0 0-1.816l-13-6a1.004 1.004 0 0 0-.838 0l-13 6a1 1 0 0 0 0 1.816l13 6A1.005 1.005 0 0 0 32 29zm12 0a1 1 0 0 0 2 0v-4.16l-2 .92zm12-3c0 18.294-22.45 35.098-23.406 35.804a1 1 0 0 1-1.188 0C30.45 61.098 8 44.294 8 26a24 24 0 0 1 48 0zm-6 0a18 18 0 1 0-18 18 18.02 18.02 0 0 0 18-18z" data-name="17-Education" fill="#ffffff" opacity="1" data-original="#000000" class=""></path></g></svg>