<svg width="30" height="30" viewBox="0 0 70 70" fill="none" xmlns="http://www.w3.org/2000/svg">
<g clip-path="url(#clip0_1022_4247)">
<path d="M64.1882 48.6611C63.279 49.2801 62.4097 49.9366 61.5836 50.628C57.9961 54.0498 55.5638 54.1196 52.1628 50.628C50.1609 48.5855 48.6613 48.8066 46.8245 50.7561C43.8899 53.8752 40.9481 53.9625 38.0351 51.175C35.122 48.3876 34.8637 48.4109 31.9434 51.175C29.2097 53.7763 26.1603 53.7937 23.5127 51.2216C20.5781 48.3818 20.2911 48.376 17.4426 51.1227C14.5941 53.8694 11.7025 53.817 8.83251 51.047C8.11501 50.3429 7.15355 49.761 5.96248 48.859V65.2635H64.1882V48.6611ZM5.81181 46.1937C7.73473 47.6195 9.39934 48.6786 10.7841 49.9297C12.4631 51.4427 13.8622 51.4718 15.5197 49.9297C19.5951 46.153 21.3745 46.1356 25.3711 49.8832C27.0285 51.4369 28.3918 51.4485 30.0636 49.9123C34.1533 46.1356 35.8969 46.1239 39.9149 49.9123C41.5652 51.4544 42.9213 51.4893 44.6002 49.9123C48.6757 46.1297 50.4408 46.1414 54.4516 49.9123C56.0804 51.4369 57.4867 51.4718 59.1872 49.9588C60.6222 48.7135 62.2294 47.6311 64.1667 46.2054C64.5182 42.836 63.2196 41.5907 58.5199 41.5907C42.8543 41.5907 27.1887 41.5907 11.5232 41.5907C6.79479 41.5907 5.51763 42.7895 5.81181 46.1937ZM55.449 39.4492C56.3387 35.7423 56.0158 32.6523 52.1556 30.0685C50.0031 28.6079 48.7833 28.3228 46.9752 30.1791C43.6173 33.6183 41.0271 33.6183 37.5687 30.1791C35.7319 28.3519 34.2968 28.3228 32.4457 30.1791C28.9729 33.6707 26.4832 33.5776 22.9746 30.2606C22.2571 29.603 20.4561 28.7127 20.2481 28.8698C18.0955 30.4992 15.7349 32.1169 14.4004 34.1595C13.5178 35.5154 14.2353 37.5521 14.2353 39.4725L55.449 39.4492ZM55.5422 30.3537C56.1521 23.324 55.3126 22.5733 47.5923 22.5733C38.6521 22.5733 29.7048 22.5733 20.7647 22.5733C14.8596 22.5733 12.7501 25.2269 14.9313 29.8183C19.4229 25.6575 20.8077 25.6052 25.5863 29.6787C27.6814 31.4244 29.0088 30.5399 30.4725 29.0502C33.4789 25.9892 36.3848 25.9136 39.2692 28.701C42.1535 31.4885 42.376 31.4244 45.3752 28.6021C48.0802 26.0591 51.0291 26.0765 53.7987 28.6603C54.2364 29.0967 54.6597 29.5041 55.5422 30.3537ZM35 69.9946C45.6335 69.9946 56.2597 70.0295 66.886 69.948C67.9264 69.948 68.9596 69.2264 70 68.8423C68.9596 68.3652 67.9192 67.469 66.8788 67.469C45.6263 67.3875 24.3689 67.3875 3.10681 67.469C2.0736 67.469 1.03321 68.1906 0 68.5747C1.04039 69.0518 2.0736 69.9364 3.12116 69.9422C13.7474 70.0353 24.3952 69.9946 35 69.9946ZM34.4403 9.97461L33.4717 10.5274C33.4717 13.3963 33.4 16.2652 33.5435 19.1283C33.5435 19.6462 34.4475 20.1409 34.9282 20.6472C35.4664 20.1816 36.4278 19.7335 36.4637 19.2447C36.6575 16.7507 36.6575 14.2493 36.4637 11.7553C36.3776 11.121 35.1579 10.5624 34.4403 9.97461Z" fill="black"/>
<path d="M34.053 7.92071C33.2135 6.90233 31.5704 5.81995 31.6996 4.87723C31.9363 2.93941 31.7857 -0.0516949 35.079 0.00067858C36.2486 0.00067858 37.7338 3.16636 38.2863 5.04017C38.5159 5.79667 36.6432 6.96635 35.7248 7.9498L34.053 7.92071Z" fill="white"/>
<path d="M64.1882 48.6621V65.2819H5.94092V48.8832C7.1248 49.7852 8.09344 50.3672 8.81095 51.0713C11.7384 53.8413 14.6084 53.8878 17.421 51.1469C20.2337 48.4061 20.5565 48.4061 23.4911 51.2459C26.1387 53.818 29.1882 53.8005 31.9219 51.1993C34.8421 48.4177 35.1148 48.4177 38.0135 51.1993C40.9122 53.9809 43.8684 53.8995 46.803 50.7803C48.6398 48.8309 50.1394 48.6097 52.1412 50.6523C55.5422 54.1439 57.9602 54.0566 61.5621 50.6523C62.3944 49.9525 63.2709 49.2882 64.1882 48.6621Z" fill="white"/>
<path d="M5.81232 46.1929C5.51814 42.7886 6.79531 41.5898 11.5524 41.5898C27.218 41.5898 42.8835 41.5898 58.5491 41.5898C63.2488 41.5898 64.5475 42.8352 64.1959 46.2045C62.2586 47.6477 60.6083 48.7126 59.2164 49.958C57.5159 51.471 56.1096 51.436 54.4808 49.9114C50.47 46.1521 48.7408 46.1405 44.6295 49.9114C42.9505 51.4651 41.5944 51.4302 39.9441 49.9114C35.9261 46.1463 34.2041 46.158 30.0928 49.9114C28.421 51.4477 27.0577 51.436 25.4003 49.8823C21.4038 46.1347 19.6602 46.1522 15.5489 49.9289C13.8915 51.4593 12.4923 51.4302 10.8133 49.9289C9.39268 48.6777 7.73524 47.6186 5.81232 46.1929Z" fill="white"/>
<path d="M55.4487 39.4488H14.2351C14.2351 37.5284 13.5175 35.4917 14.4001 34.1358C15.7346 32.0932 18.1168 30.4754 20.2478 28.8461C20.4558 28.6889 22.2783 29.5793 22.9743 30.2369C26.4829 33.5538 28.9727 33.6179 32.4454 30.1554C34.2966 28.3165 35.7316 28.3456 37.5684 30.1554C41.0268 33.6004 43.617 33.6004 46.9749 30.1554C48.783 28.299 49.9741 28.5842 52.1553 30.0448C56.0155 32.6519 56.3384 35.7419 55.4487 39.4488Z" fill="white"/>
<path d="M55.542 30.3527C54.6594 29.5031 54.2361 29.0957 53.8128 28.6768C51.0432 26.093 48.0727 26.0755 45.3892 28.6186C42.3901 31.4409 42.1102 31.4467 39.2832 28.7175C36.4563 25.9883 33.493 26.0057 30.4866 29.0666C29.0516 30.5564 27.6955 31.47 25.6004 29.6951C20.8074 25.6216 19.437 25.6566 14.9454 29.8232C12.7929 25.2317 14.8736 22.5898 20.7787 22.5782C29.7189 22.5782 38.6662 22.5782 47.6063 22.5782C55.3124 22.5723 56.1518 23.323 55.542 30.3527Z" fill="white"/>
<path d="M35 69.9939C24.3737 69.9939 13.7474 70.0346 3.12116 69.9299C2.0736 69.9299 1.04039 69.0399 0 68.5629C1.03321 68.179 2.0736 67.4576 3.10681 67.4576C24.3689 67.3917 45.6263 67.3917 66.8788 67.4576C67.9192 67.4576 68.9596 68.3535 70 68.8305C68.9596 69.2144 67.9264 69.9241 66.886 69.9357C56.2597 70.0288 45.6335 69.9939 35 69.9939Z" fill="white"/>
<path d="M34.4412 9.97461C35.1587 10.5565 36.3856 11.1385 36.443 11.7553C36.6368 14.2493 36.6368 16.7507 36.443 19.2447C36.4072 19.7335 35.4457 20.1816 34.9076 20.6472C34.4269 20.1409 33.5443 19.6462 33.5228 19.1283C33.3793 16.2652 33.451 13.3963 33.451 10.5274L34.4412 9.97461Z" fill="white"/>
</g>
<defs>
<clipPath id="clip0_1022_4247">
<rect width="70" height="70" fill="white"/>
</clipPath>
</defs>
</svg>
