<svg xmlns="http://www.w3.org/2000/svg" version="1.1" xmlns:xlink="http://www.w3.org/1999/xlink" xmlns:svgjs="http://svgjs.com/svgjs" width="40" height="40" x="0" y="0" viewBox="0 0 32 32" style="enable-background:new 0 0 512 512" xml:space="preserve" class=""><g><path d="M6.32 26.54h8.523a1 1 0 0 0 0-2H6.32A2.317 2.317 0 0 1 4 22.23V11.594h19.555v1.676a1 1 0 0 0 2 0V8.93a4.325 4.325 0 0 0-4.32-4.32h-1.07v-.622a1 1 0 0 0-2 0v.622H9.387v-.622a1 1 0 0 0-2 0v.622H6.32a4.319 4.319 0 0 0-3.582 1.907A4.291 4.291 0 0 0 2 8.929v13.3a4.32 4.32 0 0 0 4.32 4.31zM23.552 9.595H4V8.93a2.32 2.32 0 0 1 2.316-2.317h1.072v.624a1 1 0 0 0 2 0v-.624h8.776v.624a1 1 0 0 0 2 0v-.624h1.073a2.318 2.318 0 0 1 2.315 2.316z" fill="#ffffff" opacity="1" data-original="#000000" class=""></path><path d="M23.054 15.12c-3.83 0-6.946 3.115-6.946 6.945s3.116 6.947 6.946 6.947S30 25.896 30 22.065s-3.116-6.945-6.946-6.945zm-4.946 6.945a4.951 4.951 0 0 1 4.946-4.945A4.952 4.952 0 0 1 28 22.065a4.952 4.952 0 0 1-4.946 4.947 4.952 4.952 0 0 1-4.946-4.947z" fill="#ffffff" opacity="1" data-original="#000000" class=""></path><path d="M25.329 19.791a1 1 0 0 0-1.414 0l-.861.86-.86-.86a1 1 0 1 0-1.415 1.414l.86.86-.86.861a1 1 0 1 0 1.414 1.414l.861-.86.86.86a.997.997 0 0 0 1.415 0 1 1 0 0 0 0-1.414l-.861-.86.86-.86a1 1 0 0 0 0-1.415z" fill="#ffffff" opacity="1" data-original="#000000" class=""></path></g></svg>