<svg width="30" height="30" viewBox="0 0 70 70" fill="none" xmlns="http://www.w3.org/2000/svg">
<g clip-path="url(#clip0_1540_3787)">
<path d="M69.51 3.71039H64.7161V2.61746C64.7161 2.49175 64.6913 2.36727 64.6432 2.25114C64.5951 2.135 64.5246 2.02948 64.4357 1.94059C64.3468 1.85171 64.2413 1.78121 64.1251 1.73311C64.009 1.68502 63.8845 1.66028 63.7588 1.66029L39.0545 1.73311L13.5323 1.66029C13.2784 1.66029 13.0349 1.76113 12.8554 1.94063C12.6759 2.12013 12.575 2.36359 12.575 2.61746V3.71039H7.78119C5.501 3.71039 3.646 5.56539 3.646 7.84559V53.0649C3.646 55.3472 5.501 57.2039 7.78119 57.2039H31.4333V60.1957H26.1005C23.5297 60.1957 21.4382 62.2873 21.4382 64.858V68.5631C21.4382 68.817 21.539 69.0605 21.7186 69.24C21.8981 69.4195 22.1416 69.5204 22.3955 69.5204H54.8954C55.1493 69.5204 55.3928 69.4195 55.5724 69.24C55.7519 69.0605 55.8527 68.817 55.8527 68.5631V64.858C55.8527 62.2873 53.7612 60.1957 51.1904 60.1957H45.8578V57.2039H58.3585L59.3953 59.0003C60.2428 60.4675 61.7852 61.2888 63.3693 61.2888C64.1458 61.2888 64.9325 61.0914 65.6519 60.676C66.7074 60.0664 67.4634 59.0781 67.7806 57.8933C67.8419 57.6648 67.8848 57.4344 67.9107 57.2039H69.5097C71.7899 57.2039 73.6449 55.3472 73.6449 53.0649V7.84545C73.6452 5.56539 71.7902 3.71039 69.51 3.71039ZM53.6257 42.7739L52.4482 40.7362C53.3374 40.3268 54.1869 39.8362 54.9859 39.2707L56.1615 41.3086L53.6257 42.7739ZM49.4816 13.2308C53.0231 14.1802 55.9866 16.4541 57.8255 19.6325C59.6589 22.8116 60.1453 26.5149 59.195 30.0603C58.245 33.6079 55.9717 36.5712 52.7924 38.4046C49.619 40.2407 45.916 40.728 42.3657 39.7775C38.8218 38.8274 35.8584 36.5537 34.022 33.3759C32.1874 30.1947 31.6997 26.4914 32.6487 22.9481C33.5982 19.402 35.8729 16.4389 39.0545 14.6043C41.1717 13.3817 43.5219 12.7573 45.9036 12.7573C47.1118 12.758 48.3148 12.9172 49.4816 13.2308ZM58.0285 40.2297L57.8192 40.3507L56.4961 38.057C58.683 36.0638 60.2599 33.4849 61.0442 30.5558C62.1268 26.517 61.5726 22.2981 59.4833 18.6749C57.388 15.0534 54.012 12.4633 49.9772 11.3817C45.9368 10.2997 41.7181 10.8556 38.0975 12.9459C34.4731 15.036 31.8812 18.4123 30.7992 22.4528C29.7181 26.4896 30.2736 30.7085 32.3638 34.3331C34.4564 37.9541 37.8324 40.5445 41.8702 41.6267C43.2212 41.9885 44.5911 42.1675 45.952 42.1675C47.5438 42.1675 49.1222 41.9205 50.6417 41.4368L51.9679 43.7321L51.7579 43.8535C51.5382 43.9805 51.3778 44.1895 51.3122 44.4346C51.2465 44.6798 51.2808 44.9409 51.4076 45.1608L54.6476 50.7746H14.4896V10.1359H62.8013V46.5806L59.3363 40.5799C59.2093 40.36 59.0002 40.1996 58.7549 40.134C58.5097 40.0683 58.2484 40.1028 58.0285 40.2297ZM12.5751 50.7743H10.0715V10.1359H12.5751V50.7743ZM64.7161 49.8963V10.1359H67.2195V50.7743H65.2232L64.7161 49.8963ZM51.1905 62.1102C52.7056 62.1102 53.9383 63.3427 53.9383 64.8579V67.6056H23.3529V64.8579C23.3529 63.3427 24.5856 62.1102 26.1007 62.1102H45.8581H51.1905ZM43.9433 60.1956H33.3479V57.2038H43.9433V60.1956ZM45.8579 55.2893H7.78119C6.55674 55.2893 5.56061 54.2914 5.56061 53.0648V7.84545C5.56061 6.621 6.55674 5.62473 7.78119 5.62473H12.575V8.22129H9.1142C8.86033 8.22129 8.61686 8.32213 8.43733 8.50163C8.25781 8.68113 8.15693 8.92459 8.1569 9.17846V51.7314C8.1569 51.8571 8.18166 51.9815 8.22977 52.0977C8.27788 52.2138 8.3484 52.3193 8.43729 52.4082C8.52619 52.4971 8.63172 52.5676 8.74787 52.6157C8.86401 52.6638 8.98849 52.6885 9.1142 52.6885H55.7527L57.2536 55.2891L45.8579 55.2893ZM65.9315 57.3979C65.7465 58.0888 65.3073 58.6641 64.6946 59.0179C63.4219 59.7532 61.7884 59.3156 61.0534 58.0428L53.5442 45.0321L58.1573 42.3663L65.6696 55.3765C66.0237 55.9893 66.1166 56.7071 65.9315 57.3979ZM71.7306 53.0648C71.7306 54.2914 70.7344 55.2893 69.51 55.2893H67.7154C67.6167 54.9866 67.4868 54.695 67.3277 54.4192L66.3284 52.6888H68.1767C68.4306 52.6888 68.674 52.588 68.8536 52.4085C69.0331 52.229 69.134 51.9855 69.134 51.7316V9.17859C69.134 9.05289 69.1093 8.92841 69.0611 8.81227C69.013 8.69613 68.9425 8.59061 68.8536 8.50173C68.7647 8.41284 68.6592 8.34234 68.543 8.29425C68.4269 8.24615 68.3024 8.22141 68.1767 8.22143H64.7159V5.62486H69.5098C70.7343 5.62486 71.7304 6.62113 71.7304 7.84559L71.7306 53.0648ZM20.2796 6.85725H18.113V4.94277H20.2796V6.85725ZM24.5931 6.85725H22.4265V4.94277H24.5931V6.85725ZM28.9066 6.85725H26.74V4.94277H28.9066V6.85725ZM44.2165 17.9317C43.4459 16.7439 42.1049 15.9879 40.657 15.9879H39.6997V17.9023H40.657C41.4183 17.9023 42.1256 18.2832 42.5551 18.8885C41.442 19.841 40.7345 21.255 40.7345 22.832V23.3979H39.0991C38.7126 23.3979 38.386 23.0713 38.386 22.6848V21.7276H36.4714V22.6848C36.4714 24.1205 37.6294 25.2893 39.0603 25.3103V27.316H36.2932V29.2304H39.0603V30.1605C39.0603 30.358 39.0705 30.5531 39.0871 30.7464C37.6437 30.7529 36.4715 31.9286 36.4715 33.3733V34.3305H38.3861V33.3733C38.3861 32.9868 38.7127 32.6602 39.0992 32.6602H39.534C40.5355 35.2097 43.0195 37.0201 45.92 37.0201C48.8205 37.0201 51.3045 35.2097 52.3061 32.6602H52.5122C52.9075 32.6602 53.2291 32.9801 53.2291 33.3733V34.3305H55.1437V33.3733C55.1437 32.0053 54.091 30.8794 52.7521 30.7579C52.7699 30.5593 52.7791 30.36 52.7797 30.1605V29.2304H55.5546V27.316H52.7796V25.2988C54.1055 25.1646 55.1436 24.0435 55.1436 22.6848V21.7276H53.229V22.6848C53.229 23.078 52.9073 23.3979 52.512 23.3979H51.1091V22.832C51.1091 21.2544 50.4007 19.8401 49.2863 18.8875C49.7164 18.2785 50.4204 17.9023 51.1828 17.9023H52.1401V15.9879H51.1827C49.731 15.9879 48.3943 16.7337 47.6221 17.9309C47.0749 17.74 46.4994 17.6426 45.9198 17.6427C45.3232 17.6427 44.7504 17.7454 44.2165 17.9317ZM40.9747 30.1605V25.3124H44.9625V35.012C42.6925 34.5647 40.9747 32.5598 40.9747 30.1605ZM50.865 29.2304V30.1605C50.865 32.5598 49.1472 34.5647 46.8772 35.0119V25.3122H50.865V27.3158V29.2304ZM46.8772 23.3979H42.649V22.832C42.649 21.0262 44.1163 19.5572 45.9198 19.5572C47.7255 19.5572 49.1945 21.0264 49.1945 22.832V23.3979H46.8772ZM27.1664 19.5688H18.113H22.6397H27.1664ZM27.1664 29.0057H18.113H22.6397H27.1664ZM29.7824 33.7221H18.113V31.8076H29.7824V33.7221ZM29.7824 38.4386H18.113V36.5241H29.7824V38.4386ZM18.113 41.2406H33.5765V43.1551H18.113V41.2406ZM18.113 45.957H50.4968V47.8715H18.113V45.957Z" fill="white"/>
</g>
<defs>
<clipPath id="clip0_1540_3787">
<rect width="70" height="70" fill="white"/>
</clipPath>
</defs>
</svg>
