<svg width="30" height="30" viewBox="0 0 63 66" fill="none" xmlns="http://www.w3.org/2000/svg">
<path d="M17.9648 63.201H42.3172C42.3172 62.3738 42.268 61.8871 41.6363 61.2391C41.2303 60.8658 40.7121 60.6389 40.1119 60.6389H20.1701C19.5535 60.6389 19.0189 60.8822 18.6143 61.2719V61.2883C18.0141 61.8707 17.9648 62.4381 17.9648 63.201ZM36.9031 55.3041L35.8326 58.5635H40.1133C42.4648 58.5635 44.3939 60.4762 44.3939 62.8441C44.3939 63.7848 44.6373 65.2764 43.3563 65.2764H16.9271C15.6625 65.2764 15.9059 63.7848 15.9059 62.8441C15.9059 61.6602 16.3762 60.591 17.1541 59.8117C17.932 59.0502 19.0025 58.5635 20.1701 58.5635H24.4508L23.3967 55.3041H2.67559C1.94551 55.3041 1.28105 54.9965 0.777929 54.5098C0.291211 54.023 0 53.3586 0 52.6121V20.3643C0 18.8891 1.20039 17.6887 2.67559 17.6887H23.0727C21.3705 14.365 21.8572 10.0352 25.2779 8.12246C26.7531 7.27891 28.5209 7.05195 30.2395 6.9877V6.16055C27.5324 6.12773 26.1529 2.83691 28.0998 0.907812C28.6508 0.34043 29.4287 0 30.2723 0H54.5275C55.3875 0 56.149 0.34043 56.7164 0.907812C58.6619 2.85332 57.2674 6.1291 54.5768 6.16055V6.9877C57.657 7.10117 60.8357 7.8627 62.1646 11.0086C62.6186 12.127 62.8127 13.4887 62.5693 15.1266C62.3096 16.8451 61.4988 18.4023 60.2998 19.7477V52.6121C60.2998 54.0873 59.0844 55.3041 57.6078 55.3041H36.9031ZM33.6766 58.5635L34.7307 55.3041H25.5541L26.6246 58.5635H33.6766ZM58.223 52.6121V50.683H2.05898C2.05898 51.4445 1.9291 52.7256 2.23672 53.0496L2.67422 53.2273H57.6064C57.9482 53.2287 58.223 52.9539 58.223 52.6121ZM25.7482 18.0127C26.5262 18.8398 26.5754 19.0176 27.6609 19.8447C29.0063 20.8824 30.6441 21.7096 32.3955 22.2934C31.8924 21.5797 31.4713 20.7854 31.1309 19.9582C31.1309 19.9582 26.9158 17.7529 26.3484 14.3486C26.1543 13.1646 26.5426 12.0627 27.6131 11.4625C28.2461 11.1221 29.3809 11.0729 30.2395 11.0578V9.04668C26.6082 9.19297 23.6236 10.4248 24.2895 14.8354C24.4508 15.9701 24.9689 17.0393 25.7482 18.0127ZM24.515 19.7477H2.67559C2.35156 19.7477 2.05898 20.0238 2.05898 20.3643V48.609H58.223V21.6289C55.8879 23.3475 52.8568 24.5643 49.7916 25.066C49.7752 25.066 49.7588 25.066 49.7424 25.0824C48.4777 26.023 47.0354 26.7518 45.4781 27.1578C45.7215 30.8055 46.2889 34.7129 47.4893 37.8916H50.9756C51.543 37.8916 52.0133 38.3455 52.0133 38.9293V42.5291C52.0133 43.1129 51.543 43.5668 50.9756 43.5668H33.8215C33.2541 43.5668 32.8002 43.1129 32.8002 42.5291V38.9293C32.8002 38.3455 33.2541 37.8916 33.8215 37.8916H37.3078C38.5082 34.7143 39.0756 30.8068 39.334 27.1578C37.7617 26.7531 36.318 26.023 35.0697 25.0824L35.0055 25.066C31.2279 24.4822 26.9965 22.5531 24.515 19.7477ZM15.4355 30.8055C14.7547 29.6215 16.5539 28.5838 17.2348 29.7678L22.277 38.5232C22.9578 39.6908 21.175 40.7285 20.4928 39.5609L15.4355 30.8055ZM24.0133 30.6428C22.9756 29.7514 24.3209 28.1777 25.3586 29.0705L30.9682 33.8693C31.4549 34.2904 31.4385 35.0369 30.9518 35.458L25.3586 40.2404C24.3209 41.1318 22.9756 39.5596 24.0133 38.6846L28.715 34.6637L24.0133 30.6428ZM11.982 29.0705C13.0197 28.1791 14.365 29.7514 13.3273 30.6428L8.62559 34.6637L13.3273 38.6846C14.365 39.5596 13.0197 41.1332 11.982 40.2404L6.25898 35.3281C5.88574 34.8906 5.93496 34.2412 6.37246 33.8693L11.982 29.0705ZM45.3018 37.8902C44.2313 34.7443 43.6967 31.0475 43.4369 27.5133H41.3779C41.1182 31.0639 40.5836 34.7279 39.5131 37.8902H45.3018ZM52.4029 22.2934C61.5152 19.2609 62.2768 12.0135 58.532 9.92168C57.3809 9.27363 55.9221 9.09453 54.5754 9.04668V11.0578C56.1162 11.0742 57.5586 11.1549 58.2394 12.5822C58.774 13.6842 58.4172 14.998 57.8184 16.085C57.024 17.4959 55.5488 18.9711 53.6676 19.9596C53.3436 20.7854 52.9061 21.5633 52.4029 22.2934ZM54.4783 16.9258C55.2562 16.2285 56.7971 14.3637 56.376 13.4723C56.1982 13.0826 55.0785 13.1318 54.5768 13.1318L54.4783 16.9258ZM30.2381 13.1318C28.9242 13.1482 27.6281 12.9855 28.7957 15.0773C29.1361 15.6939 29.6707 16.342 30.3365 16.9258L30.2381 13.1318ZM32.2984 6.16055V15.3863C32.2984 24.2717 43.1457 28.9092 49.5332 22.5203C51.3652 20.6883 52.5 18.159 52.5 15.3863V6.16055H32.2984ZM54.5275 2.05898H30.2709C28.942 2.05898 28.942 4.10156 30.2709 4.10156H54.5262C55.434 4.10156 55.9043 3.01465 55.2563 2.3666C55.0785 2.17246 54.8187 2.05898 54.5275 2.05898ZM34.8592 41.5064H49.9379V39.9492H34.8592V41.5064ZM42.2693 19.9582C41.4422 20.2822 38.865 21.4498 38.2977 21.3691C37.8766 21.3199 37.5033 21.0287 37.3406 20.6391L37.26 19.991L37.6332 16.5703L35.4771 13.9768C35.0396 13.4572 35.1367 12.6479 35.607 12.2746L36.2387 11.9834L39.5623 11.3025C40.049 10.541 41.2973 8.30293 41.8318 8.01172C42.3992 7.7041 43.1129 7.89824 43.4697 8.49844L45.2375 11.3039L48.6418 12.0012C49.3063 12.1311 49.7287 12.7791 49.5988 13.4121L49.2912 14.0287L47.1666 16.5744L47.5562 20.0279C47.6055 20.4654 47.4264 20.8715 47.0859 21.1299C46.9232 21.2598 46.7291 21.3404 46.5186 21.3732C45.6271 21.5031 42.9023 19.8324 42.2707 19.9459V19.9582H42.2693ZM39.4639 18.8562L41.5064 18.0291V18.0455C42.6904 17.526 44.1328 18.3695 45.3496 18.8562C44.96 15.4191 44.6523 16.3762 46.8576 13.7334C46.241 13.6199 44.3926 13.3123 44.0207 13.0689C43.8908 12.9719 43.7773 12.842 43.6803 12.7121H43.6967L42.3992 10.6695C42.0752 11.1877 41.151 12.8092 40.7777 13.0689C40.4045 13.3123 38.5561 13.6199 37.9572 13.7334C40.1447 16.3748 39.8371 15.4191 39.4639 18.8562Z" fill="white"/>
</svg>
