<svg width="92" height="536" viewBox="0 0 92 536" fill="none" xmlns="http://www.w3.org/2000/svg">
<g clip-path="url(#clip0_1689_3900)">
<path d="M0 535.343C5.18107 507.031 15.1299 479.429 30.8059 466.522C36.607 462.737 42.408 459.819 47.5595 453.747C54.0577 446.199 59.4351 435.965 63.2338 423.919C67.0324 411.872 69.1397 398.368 69.3761 384.558C69.2433 327.935 69.0071 243.106 69.258 186.22C69.258 177.151 69.509 159.748 69.3614 150.784C69.0916 136.196 66.7723 121.961 62.6156 109.382C58.8648 98.1424 53.7072 88.5974 47.5448 81.4909C42.408 75.4185 36.607 72.5006 30.8059 68.7152C22.4107 61.5724 15.244 50.5523 10.0522 36.8023C5.70247 25.483 2.31522 13.0818 0 0C2.87879 12.5198 6.70262 24.2822 11.3659 34.9622C16.7263 47.597 23.851 57.5119 32.0311 63.7206C32.7544 64.1938 35.1604 65.4556 35.9427 65.9288C48.6061 71.436 59.5694 85.5018 66.5125 105.15C71.8742 120.287 74.7055 137.829 74.6753 155.726C74.6753 161.983 74.8081 179.753 74.8376 186.272C74.8376 245.708 75.4871 331.247 74.3358 390.341C73.5037 404.519 70.8331 418.159 66.5347 430.184C62.2363 442.209 56.4276 452.291 49.567 459.635C44.5483 465.076 38.8359 467.942 33.3301 470.912C17.2407 480.901 6.42098 508.214 0 535.343Z" fill="#30A044"/>
</g>
<g filter="url(#filter0_b_1689_3900)">
<circle cx="74.5" cy="257.424" r="17.5" fill="#2FA043"/>
</g>
<circle cx="74.5" cy="257.424" r="12.5" fill="white"/>
<circle cx="75" cy="257.924" r="6" fill="#0D0F16"/>
<defs>
<filter id="filter0_b_1689_3900" x="37" y="219.924" width="75" height="75" filterUnits="userSpaceOnUse" color-interpolation-filters="sRGB">
<feFlood flood-opacity="0" result="BackgroundImageFix"/>
<feGaussianBlur in="BackgroundImageFix" stdDeviation="10"/>
<feComposite in2="SourceAlpha" operator="in" result="effect1_backgroundBlur_1689_3900"/>
<feBlend mode="normal" in="SourceGraphic" in2="effect1_backgroundBlur_1689_3900" result="shape"/>
</filter>
<clipPath id="clip0_1689_3900">
<rect width="75" height="535.343" fill="white"/>
</clipPath>
</defs>
</svg>
