<svg width="558" height="816" viewBox="0 0 558 816" fill="none" xmlns="http://www.w3.org/2000/svg">
<path d="M536.215 209.066C536.215 214.957 540.991 219.733 546.882 219.733C552.773 219.733 557.549 214.957 557.549 209.066C557.549 203.175 552.773 198.4 546.882 198.4C540.991 198.4 536.215 203.175 536.215 209.066ZM544.885 209.168C546.272 236.444 535.418 277.905 498.034 313.091C460.669 348.26 396.628 377.314 291.398 379.407L291.478 383.406C397.402 381.299 462.499 352.031 500.776 316.004C539.034 279.995 550.325 237.386 548.879 208.965L544.885 209.168ZM291.398 379.407C79.7202 383.618 8 490.514 8 544.482H12C12 493.669 80.8489 387.596 291.478 383.406L291.398 379.407ZM8 544.482V815.037H12V544.482H8Z" fill="url(#paint0_linear_1541_3795)"/>
<path d="M0.333353 10.9793C0.322463 16.8704 5.08926 21.6552 10.9803 21.6666C16.8713 21.6781 21.6558 16.9117 21.6666 11.0207C21.6775 5.12963 16.9107 0.344761 11.0197 0.333351C5.12869 0.321942 0.344242 5.08831 0.333353 10.9793ZM11.9886 558.118L13 11.0039L9 10.9961L7.98865 558.11L11.9886 558.118Z" fill="url(#paint1_linear_1541_3795)"/>
<defs>
<linearGradient id="paint0_linear_1541_3795" x1="278.5" y1="209.066" x2="278.5" y2="815.037" gradientUnits="userSpaceOnUse">
<stop offset="0.770833" stop-color="#753FC7"/>
<stop offset="1" stop-color="white" stop-opacity="0.54"/>
</linearGradient>
<linearGradient id="paint1_linear_1541_3795" x1="11.5" y1="11.001" x2="10.4403" y2="558.115" gradientUnits="userSpaceOnUse">
<stop stop-color="white"/>
<stop offset="0.03125" stop-color="#7640C7"/>
</linearGradient>
</defs>
</svg>
